<svg xmlns="http://www.w3.org/2000/svg" width="24" height="24" viewBox="0 0 24 24">
  <g id="checkbox" transform="translate(13776 422)">
    <g id="Rectangle_1399" data-name="Rectangle 1399" transform="translate(-13776 -422)" fill="none" stroke="#000" stroke-width="2">
      <rect width="24" height="24" stroke="none"/>
      <rect x="1" y="1" width="22" height="22" fill="none"/>
    </g>
    <path id="Icon_awesome-check" data-name="Icon awesome-check" d="M3.415,11.928.147,8.66a.5.5,0,0,1,0-.711l.711-.711a.5.5,0,0,1,.711,0l2.2,2.2L8.486,4.724a.5.5,0,0,1,.711,0l.711.711a.5.5,0,0,1,0,.711L4.126,11.928A.5.5,0,0,1,3.415,11.928Z" transform="translate(-13769.027 -418.326)"/>
  </g>
</svg>
