<svg xmlns="http://www.w3.org/2000/svg" width="16" height="16" viewBox="0 0 16 16">
  <path id="setting" d="M8,10.223A2.222,2.222,0,1,1,10.222,8,2.225,2.225,0,0,1,8,10.223M8,5.111A2.889,2.889,0,1,0,10.889,8,2.891,2.891,0,0,0,8,5.111M7.2.667H8.8C9.048,1.4,9.241,2.3,10.2,2.7a2.731,2.731,0,0,0,2.423-.448l1.124,1.125A2.771,2.771,0,0,0,13.3,5.8c.378.913,1.159,1.109,2.032,1.4V8.8c-.823.281-1.647.472-2.031,1.4s.038,1.6.446,2.429l-1.125,1.124A2.745,2.745,0,0,0,10.2,13.3c-.916.381-1.1,1.156-1.4,2.031H7.2c-.283-.821-.469-1.645-1.4-2.031a1.83,1.83,0,0,0-.718-.151,3.993,3.993,0,0,0-1.711.6L2.252,12.623A2.734,2.734,0,0,0,2.7,10.195c-.381-.917-1.156-1.1-2.031-1.4V7.2c.817-.279,1.645-.47,2.031-1.4s-.05-1.621-.446-2.429L3.377,2.252c.967.483,1.57.8,2.428.446.919-.381,1.1-1.159,1.4-2.031M9.267,0H6.732C6.278,1.279,6.209,1.809,5.55,2.082S4.4,1.994,3.239,1.447L1.447,3.24c.582,1.225.911,1.643.635,2.31S1.287,6.275,0,6.732V9.268c1.271.452,1.808.521,2.082,1.182s-.047,1.075-.635,2.311l1.793,1.792c1.161-.552,1.644-.91,2.31-.635s.721.79,1.183,2.083H9.267c.455-1.279.525-1.809,1.183-2.082s1.139.079,2.311.635l1.791-1.792c-.585-1.231-.907-1.651-.635-2.31S14.713,9.726,16,9.268V6.731c-1.271-.451-1.809-.521-2.083-1.182s.029-1.041.636-2.309L12.761,1.447c-1.152.547-1.645.913-2.3.637S9.737,1.32,9.267,0" fill="#fff" fill-rule="evenodd"/>
</svg>
