<svg xmlns="http://www.w3.org/2000/svg" width="24.023" height="24.023" viewBox="0 0 24.023 24.023">
  <g id="activities-icon" opacity="0.5">
    <g id="Group_120" data-name="Group 120" transform="translate(0 10.421)">
      <g id="Group_119" data-name="Group 119">
        <path id="Path_118" data-name="Path 118" d="M8.526,228.887a.47.47,0,0,0-.1-.017,3,3,0,0,0,.83-2.073v-2.469a.474.474,0,0,0-.005-.066c0-.045.005-.089.005-.135v-1.562a.469.469,0,0,0-.469-.469H5.637a2.406,2.406,0,0,0-2.4,2.4v2.3a3,3,0,0,0,.83,2.073.469.469,0,0,0-.1.017A4.362,4.362,0,0,0,0,233.225v2a.469.469,0,0,0,.469.469H12.017a.469.469,0,0,0,.469-.469v-2A4.362,4.362,0,0,0,8.526,228.887ZM4.172,225.1v-.6a1.467,1.467,0,0,1,1.465-1.465H8.315v1.093a1,1,0,0,1-1,1H4.172Zm0,.968H7.317a1.923,1.923,0,0,0,1-.277V226.8a2.071,2.071,0,1,1-4.143,0Zm3.093,3.743-1.021,1.021-1.021-1.021Zm4.284,4.954H.938v-.938H2.886a.469.469,0,1,0,0-.938H.956a3.424,3.424,0,0,1,2.968-3.048l1.988,1.988a.469.469,0,0,0,.664,0l1.988-1.988a3.423,3.423,0,0,1,2.985,3.39Z" transform="translate(0 -222.097)"/>
      </g>
    </g>
    <g id="Group_122" data-name="Group 122" transform="translate(11.536)">
      <g id="Group_121" data-name="Group 121">
        <path id="Path_119" data-name="Path 119" d="M254.4,6.79a.469.469,0,0,0-.1-.017,3,3,0,0,0,.83-2.073V2.232a.476.476,0,0,0-.005-.066c0-.045.005-.089.005-.135V.469A.469.469,0,0,0,254.656,0h-3.147a2.406,2.406,0,0,0-2.4,2.4V4.7a3,3,0,0,0,.83,2.073.47.47,0,0,0-.1.017,4.362,4.362,0,0,0-3.96,4.338v2a.469.469,0,0,0,.469.469h3.775a.469.469,0,0,0,0-.938H246.81V11.128a3.422,3.422,0,0,1,2.985-3.39l1.988,1.988a.469.469,0,0,0,.664,0l1.988-1.988a3.423,3.423,0,0,1,2.985,3.39v1.535h-3.456a.469.469,0,0,0,0,.938h3.926a.469.469,0,0,0,.469-.469v-2A4.362,4.362,0,0,0,254.4,6.79Zm-2.283,1.941L251.094,7.71h2.042ZM254.187,4.7a2.071,2.071,0,0,1-4.143,0V3.967h3.145a1.924,1.924,0,0,0,1-.277Zm0-2.67a1,1,0,0,1-1,1h-3.145V2.4A1.467,1.467,0,0,1,251.509.938h2.678Z" transform="translate(-245.872)"/>
      </g>
    </g>
    <g id="Group_124" data-name="Group 124" transform="translate(17.311 12.664)">
      <g id="Group_123" data-name="Group 123">
        <path id="Path_120" data-name="Path 120" d="M369.741,270.037a.469.469,0,1,0,.137.332A.473.473,0,0,0,369.741,270.037Z" transform="translate(-368.94 -269.9)"/>
      </g>
    </g>
    <g id="Group_126" data-name="Group 126">
      <g id="Group_125" data-name="Group 125">
        <path id="Path_121" data-name="Path 121" d="M12.547,6.565,10.584,4.6V2.346A2.349,2.349,0,0,0,8.238,0H2.346A2.349,2.349,0,0,0,0,2.346V6.475A2.349,2.349,0,0,0,2.346,8.821H8.238a2.333,2.333,0,0,0,2.171-1.455h1.806a.469.469,0,0,0,.332-.8Zm-2.48-.137a.469.469,0,0,0-.457.364A1.4,1.4,0,0,1,8.238,7.883H2.346A1.409,1.409,0,0,1,.938,6.475V2.346A1.409,1.409,0,0,1,2.346.938H8.238A1.409,1.409,0,0,1,9.646,2.346V4.8a.469.469,0,0,0,.137.332l1.3,1.3Z"/>
      </g>
    </g>
    <g id="Group_128" data-name="Group 128" transform="translate(11.339 15.202)">
      <g id="Group_127" data-name="Group 127">
        <path id="Path_122" data-name="Path 122" d="M252,324h-5.892a2.333,2.333,0,0,0-2.171,1.455h-1.806a.469.469,0,0,0-.332.8l1.962,1.962v2.257a2.349,2.349,0,0,0,2.346,2.346H252a2.349,2.349,0,0,0,2.346-2.346v-4.129A2.349,2.349,0,0,0,252,324Zm1.408,6.475A1.409,1.409,0,0,1,252,331.883h-5.892a1.409,1.409,0,0,1-1.408-1.408v-2.452a.469.469,0,0,0-.137-.332l-1.3-1.3h1.015a.469.469,0,0,0,.457-.364,1.4,1.4,0,0,1,1.371-1.091H252a1.409,1.409,0,0,1,1.408,1.408Z" transform="translate(-241.666 -324)"/>
      </g>
    </g>
    <g id="Group_130" data-name="Group 130" transform="translate(17.548 18.227)">
      <g id="Group_129" data-name="Group 129">
        <path id="Path_123" data-name="Path 123" d="M377.291,388.6a.469.469,0,0,0-.664,0l-1.247,1.247-.58-.58a.469.469,0,1,0-.664.664l.912.912a.469.469,0,0,0,.664,0l1.579-1.579A.469.469,0,0,0,377.291,388.6Z" transform="translate(-373.999 -388.463)"/>
      </g>
    </g>
    <g id="Group_132" data-name="Group 132" transform="translate(4.176 1.597)">
      <g id="Group_131" data-name="Group 131">
        <path id="Path_124" data-name="Path 124" d="M92.244,35.544a1.631,1.631,0,0,0-1.509-1.509,1.613,1.613,0,0,0-1.224.433,1.633,1.633,0,0,0-.517,1.189.469.469,0,0,0,.938,0,.688.688,0,1,1,.84.672.788.788,0,0,0-.621.773v.25a.469.469,0,0,0,.938,0v-.137A1.618,1.618,0,0,0,92.244,35.544Z" transform="translate(-88.994 -34.032)"/>
      </g>
    </g>
    <g id="Group_134" data-name="Group 134" transform="translate(5.333 6.245)">
      <g id="Group_133" data-name="Group 133">
        <path id="Path_125" data-name="Path 125" d="M114.471,133.227a.469.469,0,1,0,.137.332A.473.473,0,0,0,114.471,133.227Z" transform="translate(-113.67 -133.09)"/>
      </g>
    </g>
    <g id="Group_136" data-name="Group 136" transform="translate(4.293 21.208)">
      <g id="Group_135" data-name="Group 135">
        <path id="Path_126" data-name="Path 126" d="M92.3,452.137a.469.469,0,1,0,.137.332A.473.473,0,0,0,92.3,452.137Z" transform="translate(-91.5 -452)"/>
      </g>
    </g>
  </g>
</svg>
