<svg xmlns="http://www.w3.org/2000/svg" width="17.479" height="18.303" viewBox="0 0 17.479 18.303">
  <g id="report_2_" data-name="report (2)" transform="translate(0 0)">
    <path id="Path_738" data-name="Path 738" d="M0,16.68A1.675,1.675,0,0,0,1.713,18.3H11.769a1.681,1.681,0,0,0,1.676-1.35,1.65,1.65,0,0,0,1.426-1.6V8.044h.817A.292.292,0,0,0,15.849,8l1.5-.971a.294.294,0,0,0,0-.494l-1.5-.981a.3.3,0,0,0-.161-.056h-.817V3.888a.365.365,0,0,0-.131-.254L11.337.166A.3.3,0,0,0,11.267.1L11.258.087A.294.294,0,0,0,11.047,0H3.114A1.688,1.688,0,0,0,1.432,1.35,1.656,1.656,0,0,0,0,2.951ZM5.018,7.454V6.088H15.388V7.454Zm10.959-.243V6.354l.659.429ZM11.4,1.063,13.85,3.579H11.8A.386.386,0,0,1,11.4,3.2ZM3.114.59h7.7V3.2a.977.977,0,0,0,.985.968h2.484V5.5H4.738a.323.323,0,0,0-.31.312v.038L3.55,5.83h0a.3.3,0,0,0-.3.3l.009,1.285a.3.3,0,0,0,.3.293h.872v.043a.3.3,0,0,0,.31.289h.624l0,.443a.65.65,0,0,0,.176.455.546.546,0,0,0,.382.172H9.5a.3.3,0,1,0,0-.59H5.949c0-.037,0-.018,0-.023l0-.457h8.328v7.307a1.075,1.075,0,0,1-1.11,1.033H3.114a1.085,1.085,0,0,1-1.122-1.033V1.669c0-.015.01-.03.01-.046a.281.281,0,0,0,0-.038A1.081,1.081,0,0,1,3.114.59ZM4.428,7.122H3.849l-.013-.691.591.007ZM.59,2.951a1.078,1.078,0,0,1,.812-1V15.351a1.675,1.675,0,0,0,1.712,1.623h9.718a1.083,1.083,0,0,1-1.064.738H1.713A1.085,1.085,0,0,1,.59,16.68Zm0,0" transform="translate(0 0)"/>
    <path id="Path_739" data-name="Path 739" d="M88.756,268.59H93.61a.3.3,0,0,0,0-.59H88.756a.3.3,0,1,0,0,.59Zm0,0" transform="translate(-85.197 -258.111)"/>
    <path id="Path_740" data-name="Path 740" d="M88.756,307.59H97.2a.3.3,0,1,0,0-.59H88.756a.3.3,0,1,0,0,.59Zm0,0" transform="translate(-85.197 -295.672)"/>
    <path id="Path_741" data-name="Path 741" d="M88.756,346.59H97.2a.3.3,0,1,0,0-.59H88.756a.3.3,0,1,0,0,.59Zm0,0" transform="translate(-85.197 -333.233)"/>
    <path id="Path_742" data-name="Path 742" d="M88.756,385.59H97.2a.3.3,0,1,0,0-.59H88.756a.3.3,0,1,0,0,.59Zm0,0" transform="translate(-85.197 -370.793)"/>
  </g>
</svg>
