<svg xmlns="http://www.w3.org/2000/svg" width="58.618" height="46.28" viewBox="0 0 58.618 46.28">
  <path id="Path_366" data-name="Path 366" d="M53.878,46.266H32.738l-4.211-4.987a.728.728,0,0,0-.559-.259H10.925a4.74,4.74,0,0,0-4.74,4.74v1.384H4.74A4.741,4.741,0,0,0,0,51.879V82.559A4.74,4.74,0,0,0,4.74,87.3H47.693a4.74,4.74,0,0,0,4.74-4.74V81.176h1.444a4.74,4.74,0,0,0,4.74-4.74V51.006A4.74,4.74,0,0,0,53.878,46.266ZM50.966,79.75v2.839a3.285,3.285,0,0,1-3.279,3.279H4.74a3.285,3.285,0,0,1-3.279-3.279V51.909A3.285,3.285,0,0,1,4.74,48.63H21.489L25.7,53.617a.728.728,0,0,0,.559.259H47.736a3.285,3.285,0,0,1,3.23,3.255Zm6.184-3.279a3.285,3.285,0,0,1-3.279,3.279H52.428V57.13a4.74,4.74,0,0,0-4.74-4.74H26.554L22.343,47.4a.728.728,0,0,0-.559-.259H7.652V45.76a3.285,3.285,0,0,1,3.279-3.279H27.655l4.211,4.987a.728.728,0,0,0,.559.259H53.9a3.285,3.285,0,0,1,3.279,3.279Z" transform="translate(0 -41.02)"/>
</svg>
