<svg xmlns="http://www.w3.org/2000/svg" width="111.984" height="30.022" viewBox="0 0 111.984 30.022">
  <path id="Path_478" data-name="Path 478" d="M24.107,103A15.011,15.011,0,1,1,39.119,87.989,15.055,15.055,0,0,1,24.107,103ZM34.815,84.437,28.461,95.445H24.107l8.556-14.811a11.136,11.136,0,0,0-8.556-3.953A11.286,11.286,0,0,0,12.849,87.989a10.305,10.305,0,0,0,.6,3.5L19.8,80.484l4.3-.05L15.552,95.244a11.222,11.222,0,0,0,19.814-7.255,10.193,10.193,0,0,0-.55-3.552ZM21.956,95.445H17.6L26.31,80.484l4.353-.05ZM55.481,80.684h4.854l2.952,9.708,2.9-9.708h4.9V95.495h-3.5l.151-11.108-.05-.05L64.538,95.495h-2.5L58.884,84.337l-.05.05.1,11.108H55.481V80.684ZM84.2,91.993a6.519,6.519,0,0,1-2.252,2.852,5.609,5.609,0,0,1-3.152,1,5.93,5.93,0,1,1,5.8-5.805,3.744,3.744,0,0,1-.1.9H76.2a2.507,2.507,0,0,0,2.6,2.1,2.3,2.3,0,0,0,2-1.05h3.4Zm-2.952-3.3a2.629,2.629,0,0,0-5.053,0ZM86.3,80.684h3.352V95.495H86.3Zm5.654,0h3.3V95.495h-3.3Zm11.058,3.3a5.9,5.9,0,1,1-5.954,5.9A5.824,5.824,0,0,1,103.017,83.986Zm0,8.707a2.715,2.715,0,0,0,2.7-2.8,2.68,2.68,0,1,0-5.354,0A2.705,2.705,0,0,0,103.017,92.694Zm7.756-8.307h3.1v1.151h.05a3.2,3.2,0,0,1,3.052-1.551,4.809,4.809,0,0,1,2.8.951c.6.55,1.3,1.4,1.3,3.6v6.955h-3.3v-6.1c0-.751,0-2.3-1.751-2.3-1.9,0-1.9,1.652-1.9,2.351v6.055h-3.353V84.387Z" transform="translate(-9.096 -72.978)" fill="#163e4c" fill-rule="evenodd"/>
</svg>
