<svg xmlns="http://www.w3.org/2000/svg" width="13.582" height="9.055" viewBox="0 0 13.582 9.055">
  <path id="Icon_awesome-eye" data-name="Icon awesome-eye" d="M13.5,8.683A7.563,7.563,0,0,0,6.791,4.5,7.564,7.564,0,0,0,.082,8.683a.763.763,0,0,0,0,.688,7.563,7.563,0,0,0,6.709,4.183A7.564,7.564,0,0,0,13.5,9.371.763.763,0,0,0,13.5,8.683Zm-6.709,3.74a3.4,3.4,0,1,1,3.4-3.4A3.4,3.4,0,0,1,6.791,12.423Zm0-5.659a2.247,2.247,0,0,0-.6.089A1.128,1.128,0,0,1,4.617,8.431,2.258,2.258,0,1,0,6.791,6.764Z" transform="translate(0 -4.5)" fill="#fff"/>
</svg>
