<svg xmlns="http://www.w3.org/2000/svg" width="56.812" height="60" viewBox="0 0 56.812 60">
  <g id="bar-chart_1_" data-name="bar-chart (1)" transform="translate(-13.601)">
    <g id="Group_114" data-name="Group 114" transform="translate(13.601 17.218)">
      <g id="Group_113" data-name="Group 113">
        <path id="Path_116" data-name="Path 116" d="M69.241,187.094h-2.57V149.8a3.153,3.153,0,0,0-3.15-3.148H57.776a3.153,3.153,0,0,0-3.15,3.148v37.292H48.1V166.7a3.153,3.153,0,0,0-3.15-3.148H39.2a3.153,3.153,0,0,0-3.15,3.148v20.4H29.527V176.531a3.153,3.153,0,0,0-3.15-3.148H20.632a3.153,3.153,0,0,0-3.15,3.148v10.563H14.773a1.171,1.171,0,1,0,0,2.342H69.241a1.171,1.171,0,1,0,0-2.342Zm-42.058,0H19.825V176.531a.807.807,0,0,1,.806-.806h5.745a.807.807,0,0,1,.806.806v10.563Zm18.572,0H38.4V166.7a.807.807,0,0,1,.806-.806h5.745a.807.807,0,0,1,.806.806Zm18.572,0H56.969V149.8a.807.807,0,0,1,.806-.806h5.745a.807.807,0,0,1,.806.806Z" transform="translate(-13.601 -146.654)" fill="#34c38f"/>
      </g>
    </g>
    <g id="Group_116" data-name="Group 116" transform="translate(23.561)">
      <g id="Group_115" data-name="Group 115">
        <path id="Path_117" data-name="Path 117" d="M142.446,1.235A1.17,1.17,0,0,0,141.214,0l-.057,0h-7.1a1.174,1.174,0,0,0,0,2.348h4.386L126.834,13.955l-4.377-4.377a1.174,1.174,0,0,0-1.66,0L99.69,30.684a1.174,1.174,0,0,0,1.66,1.66l20.276-20.276L126,16.445a1.174,1.174,0,0,0,1.66,0L140.1,4.009v3.97a1.174,1.174,0,1,0,2.348,0V1.291C142.449,1.272,142.447,1.254,142.446,1.235Z" transform="translate(-99.346)" fill="#34c38f"/>
      </g>
    </g>
    <g id="Group_118" data-name="Group 118" transform="translate(19.711 34.37)">
      <g id="Group_117" data-name="Group 117">
        <circle id="Ellipse_2" data-name="Ellipse 2" cx="1.174" cy="1.174" r="1.174" fill="#34c38f"/>
      </g>
    </g>
  </g>
</svg>
