<svg xmlns="http://www.w3.org/2000/svg" width="60" height="54" viewBox="0 0 60 54">
  <g id="bar-chart" transform="translate(0 -24)">
    <g id="Group_110" data-name="Group 110" transform="translate(30.887 24.696)">
      <g id="Group_109" data-name="Group 109">
        <path id="Path_114" data-name="Path 114" d="M270.043,44.305a1.022,1.022,0,0,0-1.192.7v.1l-.994,5.167L247.289,29.9a.984.984,0,1,0-1.391,1.391l20.468,20.468-5.167.994a1.031,1.031,0,0,0-.795,1.192.968.968,0,0,0,.994.795h.2l7.055-1.391c.1,0,.1-.1.2-.1a1.2,1.2,0,0,0,.5-.5v-.2l1.391-7.055A1.022,1.022,0,0,0,270.043,44.305Z" transform="translate(-245.6 -29.6)" fill="#f46a6a"/>
      </g>
    </g>
    <g id="Group_112" data-name="Group 112" transform="translate(0 24)">
      <g id="Group_111" data-name="Group 111" transform="translate(0 0)">
        <path id="Path_115" data-name="Path 115" d="M59,76H58V58a.945.945,0,0,0-1-1H45a.945.945,0,0,0-1,1V76H37V42a.945.945,0,0,0-1-1H24a.945.945,0,0,0-1,1V76H16V25a.945.945,0,0,0-1-1H3a.945.945,0,0,0-1,1V76H1a1,1,0,0,0,0,2H59a1,1,0,0,0,0-2ZM14,76H4V26H14Zm21,0H25V43H35Zm21,0H46V59H56Z" transform="translate(0 -24)" fill="#f46a6a"/>
      </g>
    </g>
  </g>
</svg>
