<svg id="browser" xmlns="http://www.w3.org/2000/svg" width="18.123" height="18.123" viewBox="0 0 18.123 18.123">
  <g id="Group_3187" data-name="Group 3187" transform="translate(9.062 9.062)">
    <g id="Group_3186" data-name="Group 3186">
      <path id="Path_734" data-name="Path 734" d="M264.684,259.4h-.952a3.449,3.449,0,0,0-.137-.33l.674-.674a.378.378,0,0,0,0-.534l-1.068-1.068a.378.378,0,0,0-.534,0l-.674.674a3.5,3.5,0,0,0-.33-.137v-.952a.378.378,0,0,0-.378-.378h-1.51a.378.378,0,0,0-.378.378v.952a3.5,3.5,0,0,0-.33.136l-.674-.673a.378.378,0,0,0-.534,0l-1.068,1.068a.378.378,0,0,0,0,.534l.674.674a3.448,3.448,0,0,0-.137.33h-.952a.378.378,0,0,0-.378.378v1.51a.378.378,0,0,0,.378.378h.952a3.442,3.442,0,0,0,.137.33l-.674.674a.378.378,0,0,0,0,.534l1.068,1.068a.378.378,0,0,0,.534,0l.674-.674a3.5,3.5,0,0,0,.33.137v.952a.378.378,0,0,0,.378.378h1.51a.378.378,0,0,0,.378-.378v-.952a3.508,3.508,0,0,0,.33-.137l.674.673a.378.378,0,0,0,.534,0l1.068-1.068a.378.378,0,0,0,0-.534l-.674-.674a3.448,3.448,0,0,0,.137-.33h.952a.378.378,0,0,0,.378-.378v-1.51A.378.378,0,0,0,264.684,259.4Zm-.378,1.51h-.854a.378.378,0,0,0-.365.283,2.645,2.645,0,0,1-.282.68.378.378,0,0,0,.059.459l.6.6-.534.534-.6-.6a.378.378,0,0,0-.459-.058,2.643,2.643,0,0,1-.68.281.378.378,0,0,0-.283.365v.854h-.755v-.853a.377.377,0,0,0-.283-.365,2.643,2.643,0,0,1-.68-.281.378.378,0,0,0-.459.058l-.6.6-.534-.534.6-.6a.378.378,0,0,0,.059-.459,2.644,2.644,0,0,1-.282-.68.378.378,0,0,0-.365-.283h-.854v-.755h.854a.378.378,0,0,0,.365-.283,2.645,2.645,0,0,1,.282-.68.378.378,0,0,0-.059-.459l-.6-.6.534-.534.6.6a.378.378,0,0,0,.459.058,2.643,2.643,0,0,1,.68-.281.378.378,0,0,0,.283-.365v-.854h.755v.854a.377.377,0,0,0,.283.365,2.642,2.642,0,0,1,.68.281.378.378,0,0,0,.459-.058l.6-.6.534.534-.6.6a.378.378,0,0,0-.059.459,2.644,2.644,0,0,1,.282.68.378.378,0,0,0,.365.283h.854v.755Z" transform="translate(-256 -256)"/>
    </g>
  </g>
  <g id="Group_3189" data-name="Group 3189" transform="translate(12.082 12.082)">
    <g id="Group_3188" data-name="Group 3188">
      <path id="Path_735" data-name="Path 735" d="M342.843,341.333a1.51,1.51,0,1,0,1.51,1.51A1.51,1.51,0,0,0,342.843,341.333Zm0,2.265a.755.755,0,1,1,.755-.755A.755.755,0,0,1,342.843,343.6Z" transform="translate(-341.333 -341.333)"/>
    </g>
  </g>
  <g id="Group_3191" data-name="Group 3191">
    <g id="Group_3190" data-name="Group 3190">
      <path id="Path_736" data-name="Path 736" d="M16.235,0H1.888A1.89,1.89,0,0,0,0,1.888V16.235a1.89,1.89,0,0,0,1.888,1.888h8.306v-.755H1.888A1.133,1.133,0,0,1,.755,16.235V1.888A1.133,1.133,0,0,1,1.888.755H16.235a1.133,1.133,0,0,1,1.133,1.133V9.062h.755V1.888A1.89,1.89,0,0,0,16.235,0Z"/>
    </g>
  </g>
  <g id="Group_3193" data-name="Group 3193" transform="translate(1.51 3.02)">
    <g id="Group_3192" data-name="Group 3192">
      <rect id="Rectangle_381" data-name="Rectangle 381" width="15.103" height="0.755"/>
    </g>
  </g>
  <g id="Group_3195" data-name="Group 3195" transform="translate(1.888 1.51)">
    <g id="Group_3194" data-name="Group 3194">
      <rect id="Rectangle_382" data-name="Rectangle 382" width="0.755" height="0.755"/>
    </g>
  </g>
  <g id="Group_3197" data-name="Group 3197" transform="translate(3.398 1.51)">
    <g id="Group_3196" data-name="Group 3196">
      <rect id="Rectangle_383" data-name="Rectangle 383" width="0.755" height="0.755"/>
    </g>
  </g>
  <g id="Group_3199" data-name="Group 3199" transform="translate(15.48 1.51)">
    <g id="Group_3198" data-name="Group 3198">
      <rect id="Rectangle_384" data-name="Rectangle 384" width="0.755" height="0.755"/>
    </g>
  </g>
  <g id="Group_3201" data-name="Group 3201" transform="translate(6.041 4.531)">
    <g id="Group_3200" data-name="Group 3200">
      <rect id="Rectangle_385" data-name="Rectangle 385" width="0.755" height="12.082"/>
    </g>
  </g>
  <g id="Group_3203" data-name="Group 3203" transform="translate(7.929 5.663)">
    <g id="Group_3202" data-name="Group 3202">
      <path id="Path_737" data-name="Path 737" d="M231.551,160h-6.8a.755.755,0,0,0-.755.755v.755a.755.755,0,0,0,.755.755h6.8a.755.755,0,0,0,.755-.755v-.755A.755.755,0,0,0,231.551,160Zm0,1.51h-6.8v-.755h6.8Z" transform="translate(-224 -160)"/>
    </g>
  </g>
  <g id="Group_3205" data-name="Group 3205" transform="translate(7.929 8.684)">
    <g id="Group_3204" data-name="Group 3204">
      <rect id="Rectangle_386" data-name="Rectangle 386" width="0.755" height="0.755"/>
    </g>
  </g>
  <g id="Group_3207" data-name="Group 3207" transform="translate(7.929 10.194)">
    <g id="Group_3206" data-name="Group 3206">
      <rect id="Rectangle_387" data-name="Rectangle 387" width="0.755" height="0.755"/>
    </g>
  </g>
  <g id="Group_3209" data-name="Group 3209" transform="translate(9.439 8.684)">
    <g id="Group_3208" data-name="Group 3208">
      <rect id="Rectangle_388" data-name="Rectangle 388" width="0.755" height="0.755"/>
    </g>
  </g>
  <g id="Group_3211" data-name="Group 3211" transform="translate(2.265 6.419)">
    <g id="Group_3210" data-name="Group 3210">
      <rect id="Rectangle_389" data-name="Rectangle 389" width="1.888" height="0.755"/>
    </g>
  </g>
  <g id="Group_3213" data-name="Group 3213" transform="translate(2.265 8.306)">
    <g id="Group_3212" data-name="Group 3212">
      <rect id="Rectangle_390" data-name="Rectangle 390" width="1.888" height="0.755"/>
    </g>
  </g>
  <g id="Group_3215" data-name="Group 3215" transform="translate(2.265 10.194)">
    <g id="Group_3214" data-name="Group 3214">
      <rect id="Rectangle_391" data-name="Rectangle 391" width="1.888" height="0.755"/>
    </g>
  </g>
  <g id="Group_3217" data-name="Group 3217" transform="translate(2.265 12.082)">
    <g id="Group_3216" data-name="Group 3216">
      <rect id="Rectangle_392" data-name="Rectangle 392" width="1.888" height="0.755"/>
    </g>
  </g>
  <g id="Group_3219" data-name="Group 3219" transform="translate(2.265 13.97)">
    <g id="Group_3218" data-name="Group 3218">
      <rect id="Rectangle_393" data-name="Rectangle 393" width="1.888" height="0.755"/>
    </g>
  </g>
</svg>
