<svg id="businessmen" xmlns="http://www.w3.org/2000/svg" width="37.561" height="37.561" viewBox="0 0 37.561 37.561">
  <g id="Group_2657" data-name="Group 2657" transform="translate(9.39)">
    <path id="Path_408" data-name="Path 408" d="M15.39,15.65h-.03a.788.788,0,0,1-.6-.313L12.651,12.52h-4.3A2.35,2.35,0,0,1,6,10.173V2.348A2.35,2.35,0,0,1,8.348,0H22.433A2.35,2.35,0,0,1,24.78,2.348v7.825a2.35,2.35,0,0,1-2.348,2.348H18.484l-2.506,2.862A.78.78,0,0,1,15.39,15.65ZM8.348,1.565a.783.783,0,0,0-.783.783v7.825a.783.783,0,0,0,.783.783h4.7a.782.782,0,0,1,.626.313l1.768,2.357,2.1-2.4a.784.784,0,0,1,.588-.266h4.3a.783.783,0,0,0,.783-.783V2.348a.783.783,0,0,0-.783-.783Z" transform="translate(-6)" fill="#be2623"/>
  </g>
  <g id="Group_2658" data-name="Group 2658" transform="translate(29.282 1.565)">
    <path id="Path_409" data-name="Path 409" d="M20.729,16.65H20.7a.782.782,0,0,1-.6-.315l-1.236-1.659a.783.783,0,1,1,1.255-.936l.657.883,2.1-2.4a.786.786,0,0,1,.59-.268h1.174a.783.783,0,0,0,.783-.783V3.348a.783.783,0,0,0-.783-.783h-3.13a.783.783,0,0,1,0-1.565h3.13a2.35,2.35,0,0,1,2.348,2.348v7.825a2.35,2.35,0,0,1-2.348,2.348h-.819l-2.506,2.862a.78.78,0,0,1-.588.268Z" transform="translate(-18.71 -1)" fill="#be2623"/>
  </g>
  <g id="Group_2659" data-name="Group 2659" transform="translate(0 1.565)">
    <path id="Path_410" data-name="Path 410" d="M6.26,16.65a.78.78,0,0,1-.588-.268L3.166,13.52H2.348A2.35,2.35,0,0,1,0,11.173V3.348A2.35,2.35,0,0,1,2.348,1h3.13a.783.783,0,1,1,0,1.565H2.348a.783.783,0,0,0-.783.783v7.825a.783.783,0,0,0,.783.783H3.521a.78.78,0,0,1,.588.268l2.1,2.4.657-.883a.783.783,0,0,1,1.255.936L6.886,16.336a.779.779,0,0,1-.595.315H6.26Z" transform="translate(0 -1)" fill="#be2623"/>
  </g>
  <g id="Group_2660" data-name="Group 2660" transform="translate(28.17 20.345)">
    <path id="Path_411" data-name="Path 411" d="M21.13,19.26a3.13,3.13,0,1,1,3.13-3.13A3.133,3.133,0,0,1,21.13,19.26Zm0-4.7A1.565,1.565,0,1,0,22.7,16.13,1.568,1.568,0,0,0,21.13,14.565Z" transform="translate(-18 -13)" fill="#be2623"/>
  </g>
  <g id="Group_2661" data-name="Group 2661" transform="translate(28.17 28.17)">
    <path id="Path_412" data-name="Path 412" d="M26.608,24.26a.783.783,0,0,1-.783-.783V21.913a2.35,2.35,0,0,0-2.348-2.348h-4.7a.783.783,0,0,1,0-1.565h4.7a3.918,3.918,0,0,1,3.913,3.913v1.565A.783.783,0,0,1,26.608,24.26Z" transform="translate(-18 -18)" fill="#be2623"/>
  </g>
  <g id="Group_2662" data-name="Group 2662" transform="translate(3.13 20.345)">
    <path id="Path_413" data-name="Path 413" d="M5.13,19.26a3.13,3.13,0,1,1,3.13-3.13A3.133,3.133,0,0,1,5.13,19.26Zm0-4.7A1.565,1.565,0,1,0,6.7,16.13,1.568,1.568,0,0,0,5.13,14.565Z" transform="translate(-2 -13)" fill="#be2623"/>
  </g>
  <g id="Group_2663" data-name="Group 2663" transform="translate(0 28.17)">
    <path id="Path_414" data-name="Path 414" d="M.783,24.26A.783.783,0,0,1,0,23.478V21.913A3.918,3.918,0,0,1,3.913,18h4.7a.783.783,0,1,1,0,1.565h-4.7a2.35,2.35,0,0,0-2.348,2.348v1.565A.783.783,0,0,1,.783,24.26Z" transform="translate(0 -18)" fill="#be2623"/>
  </g>
  <g id="Group_2664" data-name="Group 2664" transform="translate(14.085 17.998)">
    <path id="Path_415" data-name="Path 415" d="M13.7,20.89a4.7,4.7,0,1,1,4.7-4.7A4.7,4.7,0,0,1,13.7,20.89Zm0-7.825a3.13,3.13,0,1,0,3.13,3.13A3.133,3.133,0,0,0,13.7,13.065Z" transform="translate(-9 -11.5)" fill="#be2623"/>
  </g>
  <g id="Group_2665" data-name="Group 2665" transform="translate(10.173 29.735)">
    <path id="Path_416" data-name="Path 416" d="M22.933,26.825a.783.783,0,0,1-.783-.783v-3.13A2.35,2.35,0,0,0,19.8,20.565h-9.39a2.35,2.35,0,0,0-2.348,2.348v3.13a.783.783,0,1,1-1.565,0v-3.13A3.918,3.918,0,0,1,10.413,19H19.8a3.918,3.918,0,0,1,3.913,3.913v3.13A.783.783,0,0,1,22.933,26.825Z" transform="translate(-6.5 -19)" fill="#be2623"/>
  </g>
</svg>
