<svg xmlns="http://www.w3.org/2000/svg" width="37.503" height="37.5" viewBox="0 0 37.503 37.5">
  <g id="call-activities" transform="translate(-1 -1.018)">
    <g id="Group_2654" data-name="Group 2654" transform="translate(1 1.018)">
      <g id="Group_2653" data-name="Group 2653" transform="translate(0 0)">
        <path id="Path_397" data-name="Path 397" d="M37.519,29.948l-7.591-5.062a2.216,2.216,0,0,0-2.967.482l-2.211,2.843a.945.945,0,0,1-1.212.255l-.421-.232a25.419,25.419,0,0,1-6.625-5.2,25.522,25.522,0,0,1-5.2-6.625l-.231-.421a.946.946,0,0,1,.25-1.216l2.841-2.21a2.217,2.217,0,0,0,.482-2.967L9.571,2A2.2,2.2,0,0,0,6.6,1.333L3.426,3.24A4.477,4.477,0,0,0,1.384,5.89C.241,10.054,1.1,17.242,11.689,27.831c8.423,8.422,14.693,10.687,19,10.687a11.072,11.072,0,0,0,2.937-.384,4.473,4.473,0,0,0,2.65-2.042l1.909-3.172A2.2,2.2,0,0,0,37.519,29.948Zm-.409,2.331-1.9,3.174A3.23,3.23,0,0,1,33.3,36.931c-3.845,1.056-10.562.181-20.727-9.984S1.534,10.066,2.59,6.22A3.235,3.235,0,0,1,4.069,4.312l3.174-1.9a.956.956,0,0,1,1.289.29l2.75,4.128,2.308,3.462a.962.962,0,0,1-.209,1.287l-2.842,2.21a2.187,2.187,0,0,0-.579,2.807l.226.41A26.512,26.512,0,0,0,15.6,23.915a26.54,26.54,0,0,0,6.911,5.416l.411.226a2.187,2.187,0,0,0,2.807-.579l2.21-2.842a.962.962,0,0,1,1.287-.209l7.59,5.062A.956.956,0,0,1,37.111,32.279Z" transform="translate(-1 -1.018)" fill="#be2623"/>
        <path id="Path_398" data-name="Path 398" d="M283.253,70.574A10.636,10.636,0,0,1,293.877,81.2a.625.625,0,1,0,1.25,0,11.887,11.887,0,0,0-11.874-11.874.625.625,0,1,0,0,1.25Z" transform="translate(-262.002 -64.321)" fill="#be2623"/>
        <path id="Path_399" data-name="Path 399" d="M283.253,121.774a6.883,6.883,0,0,1,6.875,6.875.625.625,0,1,0,1.25,0,8.134,8.134,0,0,0-8.124-8.124.625.625,0,1,0,0,1.25Z" transform="translate(-262.002 -111.772)" fill="#be2623"/>
        <path id="Path_400" data-name="Path 400" d="M283.253,172.974a3.129,3.129,0,0,1,3.125,3.125.625.625,0,1,0,1.25,0,4.38,4.38,0,0,0-4.375-4.375.625.625,0,1,0,0,1.25Z" transform="translate(-262.002 -159.222)" fill="#be2623"/>
      </g>
    </g>
  </g>
</svg>
