<svg xmlns="http://www.w3.org/2000/svg" width="18" height="18" viewBox="0 0 18 18">
  <g id="check-mark" transform="translate(0 -0.001)">
    <g id="Group_2917" data-name="Group 2917" transform="translate(0 0.001)">
      <path id="Path_461" data-name="Path 461" d="M9,0a9,9,0,1,0,9,9A9.01,9.01,0,0,0,9,0ZM9,16.526A7.525,7.525,0,1,1,16.525,9,7.533,7.533,0,0,1,9,16.526Z" transform="translate(0 -0.001)"/>
      <path id="Path_462" data-name="Path 462" d="M74.236,90.525l-5.344,5.344L66.45,93.426a.738.738,0,0,0-1.043,1.043l2.965,2.965a.738.738,0,0,0,1.043,0l5.865-5.865a.738.738,0,0,0-1.043-1.043Z" transform="translate(-61.343 -84.98)"/>
    </g>
  </g>
</svg>
