<svg xmlns="http://www.w3.org/2000/svg" width="31.024" height="39.488" viewBox="0 0 31.024 39.488">
  <g id="clipboard-activities" transform="translate(-47.037 0)">
    <g id="Group_2656" data-name="Group 2656" transform="translate(47.037 0)">
      <g id="Group_2655" data-name="Group 2655" transform="translate(0 0)">
        <path id="Path_401" data-name="Path 401" d="M74.113,5.174H70.54v-1.6c0-.517-.564-.752-1.081-.752H66.686A4.2,4.2,0,0,0,62.5,0a4.278,4.278,0,0,0-4.184,2.82H55.592c-.517,0-1.034.235-1.034.752v1.6H50.986a4,4,0,0,0-3.949,3.807V35.916a3.782,3.782,0,0,0,3.949,3.572H74.113a3.782,3.782,0,0,0,3.949-3.572V8.981A4,4,0,0,0,74.113,5.174ZM56.438,4.7h2.585a1.034,1.034,0,0,0,.893-.846A2.726,2.726,0,0,1,62.5,1.742a2.679,2.679,0,0,1,2.538,2.115,1.034,1.034,0,0,0,.94.846H68.66V8.464H56.438ZM76.181,35.916a1.907,1.907,0,0,1-2.068,1.692H50.986a1.907,1.907,0,0,1-2.068-1.692V8.981a2.115,2.115,0,0,1,2.068-1.927h3.572v2.4a.987.987,0,0,0,1.034.893H69.459a1.034,1.034,0,0,0,1.081-.893v-2.4h3.572a2.115,2.115,0,0,1,2.068,1.927V35.916Z" transform="translate(-47.037 0)" fill="#be2623"/>
        <path id="Path_402" data-name="Path 402" d="M106.564,230.6a.94.94,0,0,0-1.316-.047l-3.008,2.867-1.269-1.316a.94.94,0,0,0-1.316-.047.987.987,0,0,0,0,1.363l1.927,1.974a.846.846,0,0,0,.658.282.94.94,0,0,0,.658-.282l3.667-3.478a.893.893,0,0,0,.054-1.262Q106.592,230.63,106.564,230.6Z" transform="translate(-94.671 -209.59)" fill="#be2623"/>
        <path id="Path_403" data-name="Path 403" d="M210.3,256.034H199.488a.94.94,0,0,0,0,1.88H210.3a.94.94,0,1,0,0-1.88Z" transform="translate(-184.916 -232.998)" fill="#be2623"/>
        <path id="Path_404" data-name="Path 404" d="M106.564,147.013a.94.94,0,0,0-1.316-.047l-3.008,2.867-1.269-1.316a.94.94,0,0,0-1.316-.047.987.987,0,0,0,0,1.363l1.927,1.974a.846.846,0,0,0,.658.282.94.94,0,0,0,.658-.282l3.667-3.478a.893.893,0,0,0,.054-1.262Q106.592,147.038,106.564,147.013Z" transform="translate(-94.671 -133.519)" fill="#be2623"/>
        <path id="Path_405" data-name="Path 405" d="M210.3,172.442H199.488a.94.94,0,0,0,0,1.88H210.3a.94.94,0,1,0,0-1.88Z" transform="translate(-184.916 -156.927)" fill="#be2623"/>
        <path id="Path_406" data-name="Path 406" d="M106.564,314.2a.94.94,0,0,0-1.316-.047l-3.008,2.867L100.97,315.7a.94.94,0,0,0-1.316-.047.987.987,0,0,0,0,1.363l1.927,1.974a.846.846,0,0,0,.658.282.94.94,0,0,0,.658-.282l3.667-3.478a.893.893,0,0,0,.054-1.262Q106.592,314.222,106.564,314.2Z" transform="translate(-94.671 -285.66)" fill="#be2623"/>
        <path id="Path_407" data-name="Path 407" d="M210.3,339.626H199.488a.94.94,0,0,0,0,1.88H210.3a.94.94,0,1,0,0-1.88Z" transform="translate(-184.916 -309.069)" fill="#be2623"/>
      </g>
    </g>
  </g>
</svg>
