<svg id="clipboard-table" xmlns="http://www.w3.org/2000/svg" width="13.533" height="17.225" viewBox="0 0 13.533 17.225">
  <g id="Group_2320" data-name="Group 2320">
    <g id="Group_2319" data-name="Group 2319">
      <path id="Path_340" data-name="Path 340" d="M58.848,2.257H57.289v-.7c0-.226-.246-.328-.472-.328h-1.21A1.834,1.834,0,0,0,53.783,0a1.866,1.866,0,0,0-1.825,1.23H50.769c-.226,0-.451.1-.451.328v.7H48.759a1.743,1.743,0,0,0-1.722,1.661V15.667a1.65,1.65,0,0,0,1.722,1.558H58.848a1.65,1.65,0,0,0,1.722-1.558V3.918A1.743,1.743,0,0,0,58.848,2.257Zm-7.71-.205h1.128a.451.451,0,0,0,.39-.369A1.189,1.189,0,0,1,53.783.76a1.169,1.169,0,0,1,1.107.923.451.451,0,0,0,.41.369h1.169v1.64H51.138ZM59.75,15.667a.832.832,0,0,1-.9.738H48.759a.832.832,0,0,1-.9-.738V3.918a.923.923,0,0,1,.9-.841h1.558V4.123a.431.431,0,0,0,.451.39h6.049a.451.451,0,0,0,.472-.39V3.077h1.558a.923.923,0,0,1,.9.841V15.667Z" transform="translate(-47.037 0)"/>
      <path id="Path_341" data-name="Path 341" d="M102.514,230.439a.41.41,0,0,0-.574-.021l-1.312,1.251-.554-.574a.41.41,0,0,0-.574-.02.431.431,0,0,0,0,.595l.841.861a.369.369,0,0,0,.287.123.41.41,0,0,0,.287-.123l1.6-1.517a.39.39,0,0,0,.024-.55Z" transform="translate(-97.326 -221.272)"/>
      <path id="Path_342" data-name="Path 342" d="M203.674,256.034h-4.716a.41.41,0,1,0,0,.82h4.716a.41.41,0,1,0,0-.82Z" transform="translate(-192.602 -245.985)"/>
      <path id="Path_343" data-name="Path 343" d="M102.514,146.847a.41.41,0,0,0-.574-.02l-1.312,1.251-.554-.574a.41.41,0,0,0-.574-.02.431.431,0,0,0,0,.595l.841.861a.369.369,0,0,0,.287.123.41.41,0,0,0,.287-.123l1.6-1.517a.39.39,0,0,0,.024-.55Z" transform="translate(-97.326 -140.961)"/>
      <path id="Path_344" data-name="Path 344" d="M203.674,172.442h-4.716a.41.41,0,1,0,0,.82h4.716a.41.41,0,1,0,0-.82Z" transform="translate(-192.602 -165.674)"/>
      <path id="Path_345" data-name="Path 345" d="M102.514,314.031a.41.41,0,0,0-.574-.021l-1.312,1.251-.554-.574a.41.41,0,0,0-.574-.02.431.431,0,0,0,0,.595l.841.861a.369.369,0,0,0,.287.123.41.41,0,0,0,.287-.123l1.6-1.517a.39.39,0,0,0,.024-.55Z" transform="translate(-97.326 -301.583)"/>
      <path id="Path_346" data-name="Path 346" d="M203.674,339.626h-4.716a.41.41,0,1,0,0,.82h4.716a.41.41,0,1,0,0-.82Z" transform="translate(-192.602 -326.296)"/>
    </g>
  </g>
</svg>
