<svg xmlns="http://www.w3.org/2000/svg" width="31.33" height="31.33" viewBox="0 0 31.33 31.33">
  <g id="clock_4_" data-name="clock (4)" transform="translate(0 0)">
    <path id="Path_385" data-name="Path 385" d="M28.034,8.244a1.305,1.305,0,0,0-.606,1.743,12.921,12.921,0,0,1,1.292,5.678A13.054,13.054,0,1,1,15.665,2.611a12.9,12.9,0,0,1,8.1,2.816,1.305,1.305,0,1,0,1.624-2.044A15.667,15.667,0,1,0,31.33,15.665,15.505,15.505,0,0,0,29.777,8.85a1.3,1.3,0,0,0-1.743-.606Zm0,0" fill="#be2623"/>
    <path id="Path_386" data-name="Path 386" d="M177.305,64A1.306,1.306,0,0,0,176,65.305v9.138a1.306,1.306,0,0,0,1.305,1.305h6.527a1.305,1.305,0,1,0,0-2.611h-5.222V65.305A1.306,1.306,0,0,0,177.305,64Zm0,0" transform="translate(-161.64 -58.778)" fill="#be2623"/>
  </g>
</svg>
