<svg id="close-activities" xmlns="http://www.w3.org/2000/svg" width="37.936" height="37.936" viewBox="0 0 37.936 37.936">
  <path id="Path_393" data-name="Path 393" d="M18.968,0A18.968,18.968,0,1,0,32.112,32.643a.772.772,0,1,0-1.07-1.113,17.368,17.368,0,1,1,4.182-6.279.772.772,0,0,0,1.44.557A18.979,18.979,0,0,0,18.968,0Z" fill="#be2623"/>
  <path id="Path_394" data-name="Path 394" d="M158.734,158.642a.772.772,0,0,0-1.08,1.1l6.078,5.949a.772.772,0,0,0,1.08-1.1Z" transform="translate(-137.167 -138.038)" fill="#be2623"/>
  <path id="Path_395" data-name="Path 395" d="M84.232,85.323a.772.772,0,0,0,1.092-1.092l-5.82-5.82A.772.772,0,1,0,78.412,79.5Z" transform="translate(-68.126 -68.125)" fill="#be2623"/>
  <path id="Path_396" data-name="Path 396" d="M95.775,78.411a.772.772,0,0,0-1.092,0L78.411,94.683A.772.772,0,0,0,79.5,95.775L95.775,79.5A.772.772,0,0,0,95.775,78.411Z" transform="translate(-68.125 -68.125)" fill="#be2623"/>
</svg>
