<svg xmlns="http://www.w3.org/2000/svg" width="47.847" height="47.847" viewBox="0 0 47.847 47.847">
  <g id="conversion" transform="translate(0 0)">
    <path id="Path_234" data-name="Path 234" d="M14.172,11.051a3.171,3.171,0,0,1,.14-.682,4.062,4.062,0,0,0,.523-.991A3.236,3.236,0,0,1,17.382,8.13H20a3.2,3.2,0,0,1,1.255.253A.7.7,0,1,0,21.8,7.092q-.14-.059-.282-.109a4.065,4.065,0,1,0-5.652,0,4.657,4.657,0,0,0-.839.389A4.065,4.065,0,1,0,8.183,10.92a4.6,4.6,0,0,0-.538.226,4.064,4.064,0,0,0-4.537,6.607A4.634,4.634,0,0,0,0,22.123V25.3a2.947,2.947,0,0,0,2.944,2.944H4.83a.7.7,0,1,0,0-1.4H2.944A1.544,1.544,0,0,1,1.4,25.3V22.123A3.228,3.228,0,0,1,4.626,18.9H7.243a3.228,3.228,0,0,1,3.224,3.224V25.3a1.544,1.544,0,0,1-1.542,1.542H7.855a.7.7,0,1,0,0,1.4h1.07A2.947,2.947,0,0,0,11.868,25.3V22.123a4.644,4.644,0,0,0-.055-.711H14a2.947,2.947,0,0,0,2.944-2.944v-.993h4.737a2.947,2.947,0,0,0,2.944-2.944V11.354a4.6,4.6,0,0,0-.354-1.777.7.7,0,0,0-1.294.539,3.205,3.205,0,0,1,.246,1.239v3.177a1.544,1.544,0,0,1-1.542,1.542H16.944v-.783a5.051,5.051,0,0,0-2.772-4.239ZM18.69,1.4a2.663,2.663,0,1,1-2.663,2.663A2.666,2.666,0,0,1,18.69,1.4ZM11.009,5.338a2.664,2.664,0,0,1,2.562,3.394,4.557,4.557,0,0,0-.507.963,2.663,2.663,0,1,1-2.054-4.357ZM5.934,12.17a2.663,2.663,0,1,1-2.663,2.663A2.666,2.666,0,0,1,5.934,12.17Zm9.608,6.3A1.544,1.544,0,0,1,14,20.01H11.357a4.651,4.651,0,0,0-2.6-2.257,4.058,4.058,0,0,0,.222-5.606,3.235,3.235,0,0,1,.719-.081h2.617a3.221,3.221,0,0,1,3.224,3.224Z" fill="#be2623"/>
    <path id="Path_235" data-name="Path 235" d="M275.14,265a10.14,10.14,0,1,0,10.14,10.14A10.151,10.151,0,0,0,275.14,265Zm0,18.877a8.738,8.738,0,1,1,8.738-8.738A8.748,8.748,0,0,1,275.14,283.877Z" transform="translate(-240.235 -240.235)" fill="#be2623"/>
    <path id="Path_236" data-name="Path 236" d="M258.431,240.357a.7.7,0,0,0-1.135.822,11.546,11.546,0,1,1-1.917-2.063.7.7,0,1,0,.9-1.072,12.934,12.934,0,1,0,2.149,2.312Z" transform="translate(-213.039 -213.039)" fill="#be2623"/>
    <path id="Path_237" data-name="Path 237" d="M350.546,308.738v-.98a.7.7,0,0,0-1.4,0v.98A2.293,2.293,0,0,0,347.216,311v.679a2.292,2.292,0,0,0,2.29,2.29h1.31a.257.257,0,0,1,.257.257v1.31a.889.889,0,0,1-.888.888h-.679a.889.889,0,0,1-.888-.888v-.339a.7.7,0,1,0-1.4,0v.339a2.293,2.293,0,0,0,1.928,2.261v.98a.7.7,0,1,0,1.4,0v-.98a2.293,2.293,0,0,0,1.928-2.261v-1.31a1.66,1.66,0,0,0-1.658-1.658h-1.31a.889.889,0,0,1-.888-.888V311a.889.889,0,0,1,.888-.888h.679a.889.889,0,0,1,.888.888v.339a.7.7,0,0,0,1.4,0V311A2.293,2.293,0,0,0,350.546,308.738Z" transform="translate(-314.768 -278.362)" fill="#be2623"/>
    <path id="Path_238" data-name="Path 238" d="M324.1,73.72a7.764,7.764,0,0,1,7.677,6.673l-.538-.4a.7.7,0,1,0-.833,1.127l1.73,1.278a.7.7,0,0,0,.986-.156l1.325-1.852a.7.7,0,1,0-1.14-.816l-.2.276a9.169,9.169,0,0,0-9.01-7.535.7.7,0,0,0,0,1.4Z" transform="translate(-293.173 -65.56)" fill="#be2623"/>
    <path id="Path_239" data-name="Path 239" d="M71.931,344.05a.7.7,0,0,0-1.128.833l.4.538a7.764,7.764,0,0,1-6.673-7.677.7.7,0,0,0-1.4,0,9.169,9.169,0,0,0,7.535,9.01l-.276.2a.7.7,0,1,0,.816,1.14l1.852-1.325a.7.7,0,0,0,.156-.986Z" transform="translate(-57.227 -305.546)" fill="#be2623"/>
  </g>
</svg>
