<svg id="correct" xmlns="http://www.w3.org/2000/svg" width="21.64" height="20.74" viewBox="0 0 21.64 20.74">
  <path id="Path_23" data-name="Path 23" d="M18.667,10.478,18.182,9.1l-5.223,5.223a2.7,2.7,0,0,1-3.825,0L5.3,10.493A2.7,2.7,0,1,1,9.127,6.668l1.92,1.919L16.19,3.444l-.346-.983-.159-.954a1.783,1.783,0,0,0-2.8-1.159L10.381,2.163,7.848.344A1.783,1.783,0,0,0,5.056,1.505l-.49,3.054-3.072.51a1.783,1.783,0,0,0-1.158,2.8l1.813,2.506L.331,12.907A1.783,1.783,0,0,0,1.492,15.7l3.054.491.51,3.071a1.782,1.782,0,0,0,2.8,1.159l2.506-1.814,2.527,1.814a1.784,1.784,0,0,0,2.8-1.157l.491-3.054,3.071-.51A1.782,1.782,0,0,0,20.4,12.9Zm0,0" transform="translate(-0.001 -0.014)" fill="#52a6c4"/>
  <path id="Path_24" data-name="Path 24" d="M154.084,54.2a.9.9,0,0,1-.637-.264l-3.832-3.832a.9.9,0,0,1,1.275-1.275l3.194,3.194,9.055-9.055a.9.9,0,0,1,1.275,1.275l-9.693,9.693A.9.9,0,0,1,154.084,54.2Zm0,0" transform="translate(-143.038 -40.902)" fill="#ffc6bf"/>
</svg>
