<svg xmlns="http://www.w3.org/2000/svg" width="267" height="80" viewBox="0 0 267 80">
  <g id="credit-card" transform="translate(-34.744 -116)">
    <rect id="Rectangle_1397" data-name="Rectangle 1397" width="267" height="80" rx="5" transform="translate(34.744 116)" fill="#0d3745"/>
    <text id="Credit_Card" data-name="Credit Card" transform="translate(137.744 163)" fill="#fff" font-size="20" font-family="SegoeUI-Semibold, Segoe UI" font-weight="600"><tspan x="0" y="0">Credit Card</tspan></text>
    <g id="credit-card_5_" data-name="credit-card (5)" transform="translate(63.801 144)">
      <g id="Group_3916" data-name="Group 3916">
        <g id="Group_3915" data-name="Group 3915" transform="translate(0 0)">
          <path id="Path_1215" data-name="Path 1215" d="M32.25,85.333H3.75A3.755,3.755,0,0,0,0,89.083v16.5a3.755,3.755,0,0,0,3.75,3.75h28.5a3.755,3.755,0,0,0,3.75-3.75v-16.5A3.755,3.755,0,0,0,32.25,85.333Zm2.25,20.25a2.253,2.253,0,0,1-2.25,2.25H3.75a2.253,2.253,0,0,1-2.25-2.25v-16.5a2.253,2.253,0,0,1,2.25-2.25h28.5a2.253,2.253,0,0,1,2.25,2.25v16.5Z" transform="translate(0 -85.333)" fill="#fff"/>
        </g>
      </g>
      <g id="Group_3918" data-name="Group 3918" transform="translate(0 4.5)">
        <g id="Group_3917" data-name="Group 3917" transform="translate(0 0)">
          <path id="Path_1216" data-name="Path 1216" d="M35.25,149.333H.75a.75.75,0,0,0-.75.75v4.5a.75.75,0,0,0,.75.75h34.5a.75.75,0,0,0,.75-.75v-4.5A.75.75,0,0,0,35.25,149.333Zm-.75,4.5H1.5v-3h33v3Z" transform="translate(0 -149.333)" fill="#fff"/>
        </g>
      </g>
      <g id="Group_3920" data-name="Group 3920" transform="translate(4.5 15)">
        <g id="Group_3919" data-name="Group 3919" transform="translate(0 0)">
          <path id="Path_1217" data-name="Path 1217" d="M73.75,298.667h-9a.75.75,0,1,0,0,1.5h9a.75.75,0,1,0,0-1.5Z" transform="translate(-64 -298.667)" fill="#fff"/>
        </g>
      </g>
      <g id="Group_3922" data-name="Group 3922" transform="translate(4.5 18)">
        <g id="Group_3921" data-name="Group 3921">
          <path id="Path_1218" data-name="Path 1218" d="M73.75,341.333h-9a.75.75,0,0,0,0,1.5h9a.75.75,0,0,0,0-1.5Z" transform="translate(-64 -341.333)" fill="#fff"/>
        </g>
      </g>
      <g id="Group_3924" data-name="Group 3924" transform="translate(25.5 13.5)">
        <g id="Group_3923" data-name="Group 3923" transform="translate(0 0)">
          <path id="Path_1219" data-name="Path 1219" d="M366.417,277.333h-1.5a2.253,2.253,0,0,0-2.25,2.25v1.5a2.253,2.253,0,0,0,2.25,2.25h1.5a2.253,2.253,0,0,0,2.25-2.25v-1.5A2.253,2.253,0,0,0,366.417,277.333Zm.75,3.75a.75.75,0,0,1-.75.75h-1.5a.75.75,0,0,1-.75-.75v-1.5a.75.75,0,0,1,.75-.75h1.5a.75.75,0,0,1,.75.75Z" transform="translate(-362.667 -277.333)" fill="#fff"/>
        </g>
      </g>
    </g>
  </g>
</svg>
