<svg xmlns="http://www.w3.org/2000/svg" width="19.807" height="20" viewBox="0 0 19.807 20">
  <g id="dashboard-icon" transform="translate(-61.175 -47.188)" opacity="0.5">
    <path id="Path_53" data-name="Path 53" d="M125.339,194.157H111.566a.727.727,0,0,1-.766-.68v-10.8a.771.771,0,0,1,1.532,0V192.8h12.241V182.68a.771.771,0,0,1,1.532,0v10.8A.727.727,0,0,1,125.339,194.157Z" transform="translate(-47.374 -126.969)" fill="#272643"/>
    <path id="Path_54" data-name="Path 54" d="M80.238,56.917a.782.782,0,0,1-.527-.2l-8.632-7.887-8.632,7.887a.8.8,0,0,1-1.053,0,.64.64,0,0,1,0-.962l9.157-8.368a.8.8,0,0,1,1.053,0l9.161,8.368a.638.638,0,0,1,.161.741A.749.749,0,0,1,80.238,56.917Z" fill="#272643"/>
    <path id="Path_55" data-name="Path 55" d="M206.777,297.716H202.83a.68.68,0,0,1-.68-.68V291.16a.68.68,0,0,1,.68-.68h3.947a.68.68,0,0,1,.68.68v5.875A.68.68,0,0,1,206.777,297.716Zm-3.266-1.361H206.1v-4.515h-2.586Z" transform="translate(-133.725 -230.528)" fill="#272643"/>
  </g>
</svg>
