<svg xmlns="http://www.w3.org/2000/svg" width="12.311" height="10.259" viewBox="0 0 12.311 10.259">
  <g id="direct-download_1_" data-name="direct-download (1)" transform="translate(0 -2)">
    <path id="Path_450" data-name="Path 450" d="M9.077,9.181A.384.384,0,0,1,8.8,9.062L6.106,6.241a.385.385,0,0,1,.278-.65H7.8V2.641A.642.642,0,0,1,8.436,2H9.719a.642.642,0,0,1,.641.641v2.95H11.77a.385.385,0,0,1,.278.65L9.355,9.062A.384.384,0,0,1,9.077,9.181Z" transform="translate(-2.922)"/>
    <path id="Path_451" data-name="Path 451" d="M11.413,20.052H.9a.9.9,0,0,1-.9-.9V18.9A.9.9,0,0,1,.9,18H11.413a.9.9,0,0,1,.9.9v.256A.9.9,0,0,1,11.413,20.052Z" transform="translate(0 -7.793)"/>
  </g>
</svg>
