<svg xmlns="http://www.w3.org/2000/svg" width="34.076" height="34.076" viewBox="0 0 34.076 34.076">
  <g id="dollar" transform="translate(0 0)">
    <path id="Path_44" data-name="Path 44" d="M17.038,34.076A17.038,17.038,0,0,1,4.99,4.99a17.038,17.038,0,0,1,24.1,24.1,16.926,16.926,0,0,1-12.048,4.99Zm0-31.946A14.908,14.908,0,1,0,31.946,17.038,14.925,14.925,0,0,0,17.038,2.13Z" transform="translate(0 0)" fill="#0d3745"/>
    <path id="Path_45" data-name="Path 45" d="M188.792,105.584a2.662,2.662,0,1,1,2.662-2.662,1.065,1.065,0,1,0,2.13,0,4.8,4.8,0,0,0-3.727-4.671V97.065a1.065,1.065,0,0,0-2.13,0V98.25a4.791,4.791,0,0,0,1.065,9.463,2.662,2.662,0,1,1-2.662,2.662,1.065,1.065,0,0,0-2.13,0,4.8,4.8,0,0,0,3.727,4.671v1.186a1.065,1.065,0,1,0,2.13,0v-1.186a4.791,4.791,0,0,0-1.065-9.463Z" transform="translate(-171.754 -89.611)" fill="#0d3745"/>
  </g>
</svg>
