<svg xmlns="http://www.w3.org/2000/svg" width="30" height="30" viewBox="0 0 30 30">
  <g id="email-icon" transform="translate(-1175 -15)">
    <rect id="Rectangle_3" data-name="Rectangle 3" width="30" height="30" rx="3" transform="translate(1175 15)" fill="#0d3745"/>
    <path id="Icon_simple-email" data-name="Icon simple-email" d="M13.455,6a6.707,6.707,0,0,1-.216,1.455,4.209,4.209,0,0,1-.566,1.277,2.985,2.985,0,0,1-.959.908,2.706,2.706,0,0,1-1.4.345A2.03,2.03,0,0,1,9.3,9.74a1.734,1.734,0,0,1-.684-.7,2.169,2.169,0,0,1-1.835.922A1.866,1.866,0,0,1,5.18,9.1a2.82,2.82,0,0,1-.4-1A4.3,4.3,0,0,1,4.73,6.8a6.047,6.047,0,0,1,.4-1.594A4.334,4.334,0,0,1,5.86,3.983,3.1,3.1,0,0,1,6.867,3.2a2.812,2.812,0,0,1,1.225-.272,3.811,3.811,0,0,1,.733.063,3,3,0,0,1,.569.171,3.076,3.076,0,0,1,.471.249c.144.093.288.189.432.286L9.942,7.8a1.361,1.361,0,0,0,.011.479.671.671,0,0,0,.146.3.527.527,0,0,0,.237.154.881.881,0,0,0,.834-.164,1.777,1.777,0,0,0,.447-.569,3.664,3.664,0,0,0,.3-.855,5.866,5.866,0,0,0,.132-1.065,6.8,6.8,0,0,0-.167-1.989,3.954,3.954,0,0,0-.736-1.539,3.419,3.419,0,0,0-1.32-.991A4.79,4.79,0,0,0,7.9,1.2,4.245,4.245,0,0,0,6,1.616,4.363,4.363,0,0,0,4.557,2.765a5.515,5.515,0,0,0-.946,1.728,7.789,7.789,0,0,0-.4,2.154,7.161,7.161,0,0,0,.2,2.2,3.969,3.969,0,0,0,.8,1.575,3.35,3.35,0,0,0,1.36.946,5.218,5.218,0,0,0,1.877.314,6.43,6.43,0,0,0,1.232-.132c.2-.041.4-.089.579-.143a4.361,4.361,0,0,0,.5-.179l.258,1.159a2.86,2.86,0,0,1-.558.276,5.374,5.374,0,0,1-.66.191A6.439,6.439,0,0,1,7.428,13a7.228,7.228,0,0,1-2.513-.4,4.625,4.625,0,0,1-1.832-1.2,5.058,5.058,0,0,1-1.1-1.989,8.482,8.482,0,0,1-.307-2.761A8.419,8.419,0,0,1,2.205,4a6.556,6.556,0,0,1,1.273-2.1A5.8,5.8,0,0,1,5.419.5,6.078,6.078,0,0,1,7.934,0,6.346,6.346,0,0,1,10.37.436a4.739,4.739,0,0,1,1.759,1.227,5.036,5.036,0,0,1,1.043,1.9A7.249,7.249,0,0,1,13.455,6Zm-6.979.8A2.764,2.764,0,0,0,6.619,8.17a.735.735,0,0,0,.707.463.781.781,0,0,0,.242-.045.864.864,0,0,0,.279-.167,1.488,1.488,0,0,0,.283-.341,2.619,2.619,0,0,0,.26-.577L8.667,4.32a1.66,1.66,0,0,0-.432-.057,1.5,1.5,0,0,0-.719.165,1.424,1.424,0,0,0-.51.484,2.844,2.844,0,0,0-.338.8A6.756,6.756,0,0,0,6.476,6.8Z" transform="translate(1182.33 23)" fill="#fff"/>
  </g>
</svg>
