<svg xmlns="http://www.w3.org/2000/svg" width="16.803" height="17.999" viewBox="0 0 16.803 17.999">
  <g id="XMLID_1312_" transform="translate(-17 0.001)">
    <path id="XMLID_1335_" d="M177.584,172.032a.638.638,0,0,0-.9,0l-3.364,3.364a.638.638,0,0,0,.9.9l3.364-3.364A.638.638,0,0,0,177.584,172.032Z" transform="translate(-150.643 -165.805)"/>
    <circle id="XMLID_1342_" cx="0.638" cy="0.638" r="0.638" transform="translate(25.867 9.404)"/>
    <circle id="XMLID_1343_" cx="0.638" cy="0.638" r="0.638" transform="translate(22.474 6.04)"/>
    <path id="XMLID_1346_" d="M32.013,10.936a11.181,11.181,0,0,0,.6-3.608V3.168a.352.352,0,0,0-.291-.346l-.023,0A20.773,20.773,0,0,1,24.988.051a.352.352,0,0,0-.368,0A20.533,20.533,0,0,1,17.359,2.81l-.068.012A.352.352,0,0,0,17,3.168V7.327A11.222,11.222,0,0,0,24.694,17.98a.351.351,0,0,0,.221,0h0a11.237,11.237,0,0,0,2.358-1.1,3.824,3.824,0,1,0,4.735-5.943ZM24.8,17.276a10.5,10.5,0,0,1-7.1-9.948V3.462a21.222,21.222,0,0,0,7.1-2.7,21.464,21.464,0,0,0,7.1,2.7V7.327a10.481,10.481,0,0,1-.526,3.286,3.794,3.794,0,0,0-.955-.239,9.514,9.514,0,0,0,.5-3.047V4.542a.352.352,0,0,0-.27-.342A22.456,22.456,0,0,1,24.976,2a.352.352,0,0,0-.341,0,22.214,22.214,0,0,1-5.677,2.2.352.352,0,0,0-.27.342V7.327a9.519,9.519,0,0,0,5.986,8.85.351.351,0,0,0,.261,0,9.572,9.572,0,0,0,1.44-.723,3.817,3.817,0,0,0,.449.878,10.533,10.533,0,0,1-2.019.943Zm1.349-3.1a3.839,3.839,0,0,0,.042.564,8.861,8.861,0,0,1-1.391.734A8.784,8.784,0,0,1,19.39,7.327V4.821a22.918,22.918,0,0,0,5.416-2.114,23.16,23.16,0,0,0,5.411,2.112V7.327a8.81,8.81,0,0,1-.534,3.032,3.83,3.83,0,0,0-3.53,3.814Zm3.825,3.122A3.122,3.122,0,1,1,33.1,14.173,3.125,3.125,0,0,1,29.978,17.295Z" transform="translate(0 0)"/>
    <path id="XMLID_1375_" d="M331.842,359.132l-.733-.733-.868.868,1.6,1.6,2.333-2.333-.868-.868Z" transform="translate(-302.23 -345.094)"/>
  </g>
</svg>
