<svg xmlns="http://www.w3.org/2000/svg" width="35.53" height="35.113" viewBox="0 0 35.53 35.113">
  <g id="finance-money" transform="translate(0 -3)">
    <g id="Group_2667" data-name="Group 2667" transform="translate(20.815 20.571)">
      <g id="Group_2666" data-name="Group 2666">
        <path id="Path_426" data-name="Path 426" d="M302.869,261.208a1.335,1.335,0,1,1,1.527-1.321.694.694,0,0,0,1.388,0,2.761,2.761,0,0,0-2.221-2.631v-.361a.694.694,0,0,0-1.388,0v.361a2.761,2.761,0,0,0-2.221,2.631,2.821,2.821,0,0,0,2.915,2.709,1.335,1.335,0,1,1-1.527,1.321.694.694,0,0,0-1.388,0,2.761,2.761,0,0,0,2.221,2.631v.3a.694.694,0,0,0,1.388,0v-.3a2.761,2.761,0,0,0,2.221-2.631A2.821,2.821,0,0,0,302.869,261.208Z" transform="translate(-299.954 -256.201)" fill="#be2623"/>
      </g>
    </g>
    <g id="Group_2669" data-name="Group 2669" transform="translate(26.642 18.113)">
      <g id="Group_2668" data-name="Group 2668">
        <path id="Path_427" data-name="Path 427" d="M388.612,224.122a9.042,9.042,0,0,0-3.693-3.269.694.694,0,1,0-.6,1.251,7.64,7.64,0,0,1,3.441,10.464.694.694,0,1,0,1.225.652,9.031,9.031,0,0,0-.371-9.1Z" transform="translate(-383.924 -220.785)" fill="#be2623"/>
      </g>
    </g>
    <g id="Group_2671" data-name="Group 2671" transform="translate(24.08 17.295)">
      <g id="Group_2670" data-name="Group 2670">
        <path id="Path_428" data-name="Path 428" d="M347.741,209h-.047a.694.694,0,1,0,0,1.388h.044a.694.694,0,0,0,0-1.388Z" transform="translate(-347 -209.001)" fill="#be2623"/>
      </g>
    </g>
    <g id="Group_2673" data-name="Group 2673" transform="translate(14.712 21.716)">
      <g id="Group_2672" data-name="Group 2672">
        <path id="Path_429" data-name="Path 429" d="M217.72,284.2a7.64,7.64,0,0,1-3.441-10.464.694.694,0,1,0-1.225-.652,9.025,9.025,0,0,0,4.065,12.367.694.694,0,0,0,.6-1.251Z" transform="translate(-212.002 -272.711)" fill="#be2623"/>
      </g>
    </g>
    <g id="Group_2675" data-name="Group 2675" transform="translate(21.955 33.95)">
      <g id="Group_2674" data-name="Group 2674">
        <path id="Path_430" data-name="Path 430" d="M317.115,449h-.04a.694.694,0,0,0-.006,1.388h.046a.694.694,0,1,0,0-1.388Z" transform="translate(-316.378 -448.999)" fill="#be2623"/>
      </g>
    </g>
    <g id="Group_2677" data-name="Group 2677" transform="translate(0 3)">
      <g id="Group_2676" data-name="Group 2676" transform="translate(0 0)">
        <path id="Path_431" data-name="Path 431" d="M26.884,14.947a3.186,3.186,0,0,0-.308-.567h1.807a3.192,3.192,0,1,0,0-6.384H22.825a3.19,3.19,0,0,0-2.631-5h-17a3.192,3.192,0,0,0,0,6.384H8.749a3.183,3.183,0,0,0,0,3.608H6.939a3.19,3.19,0,0,0-1.984,5.69,3.186,3.186,0,0,0,0,5,3.186,3.186,0,0,0,0,5,3.19,3.19,0,0,0,1.984,5.69h8.178A11.794,11.794,0,1,0,26.884,14.947Zm1.5-5.563a1.8,1.8,0,1,1,0,3.608h-17a1.8,1.8,0,0,1,0-3.608ZM3.192,8a1.8,1.8,0,1,1,0-3.608h17a1.8,1.8,0,1,1,0,3.608Zm3.747,6.384h17a1.8,1.8,0,0,1,.787.181c-.328-.028-.66-.042-1-.042a11.76,11.76,0,0,0-8.348,3.47H6.939a1.8,1.8,0,0,1,0-3.608Zm0,5H14.2a11.763,11.763,0,0,0-1.784,3.608H6.939a1.8,1.8,0,0,1,0-3.608Zm0,5H12.1a11.806,11.806,0,0,0-.043,3.608H6.939a1.8,1.8,0,1,1,0-3.608Zm0,8.6a1.8,1.8,0,1,1,0-3.608h5.4A11.75,11.75,0,0,0,14,32.978Zm16.793,3.747A10.409,10.409,0,1,1,34.142,26.316,10.421,10.421,0,0,1,23.733,36.726Z" transform="translate(0 -3)" fill="#be2623"/>
      </g>
    </g>
  </g>
</svg>
