<svg xmlns="http://www.w3.org/2000/svg" width="1915.273" height="127.747" viewBox="0 0 1915.273 127.747">
  <g id="Group_2701" data-name="Group 2701" transform="translate(0 0)" opacity="0.05">
    <g id="Group_2201" data-name="Group 2201" transform="translate(-427.029 -5.475)">
      <g id="Group_1600" data-name="Group 1600" transform="translate(816.858 5.475)">
        <path id="Path_21" data-name="Path 21" d="M634.2,18.183a1.947,1.947,0,0,1-1.266-.467l-5.756-4.9a1.955,1.955,0,0,1,2.535-2.977l3.805,3.242,2.119-4.528a1.952,1.952,0,0,1,1.354-1.081,1.927,1.927,0,0,1,1.681.42l3.811,3.242L644.6,6.6a1.955,1.955,0,0,1,3.541,1.659l-3.209,6.85a1.954,1.954,0,0,1-3.035.661l-3.813-3.242-2.119,4.528a1.952,1.952,0,0,1-1.356,1.083A1.979,1.979,0,0,1,634.2,18.183Z" transform="translate(-626.489 -5.475)" fill="#fff"/>
      </g>
      <g id="Group_1603" data-name="Group 1603" transform="translate(662.341 10.322)">
        <path id="Path_24" data-name="Path 24" d="M563.665,57.844a1.946,1.946,0,0,1-1.288-.485L548.094,44.825a1.954,1.954,0,0,1,.213-3.1l13.718-9.059L549.669,21.832a1.953,1.953,0,0,1,.213-3.1L565.736,8.278a1.955,1.955,0,0,1,2.152,3.264l-13.716,9.041,12.356,10.835a1.952,1.952,0,0,1-.211,3.1L552.6,43.576l12.36,10.845a1.954,1.954,0,0,1-1.292,3.422Z" transform="translate(-547.429 -7.955)" fill="#fff"/>
      </g>
      <g id="Group_1611" data-name="Group 1611" transform="translate(433.782 57.989)">
        <path id="Path_32" data-name="Path 32" d="M436.773,54.044a1.95,1.95,0,0,1-1.622-.86l-4.333-6.412a1.955,1.955,0,0,1,.993-2.945l4.9-1.663-2.9-4.288a1.952,1.952,0,0,1,.991-2.945l7.327-2.482a1.955,1.955,0,0,1,1.255,3.7l-4.9,1.657,2.9,4.286a1.955,1.955,0,0,1-.991,2.945l-4.9,1.665L438.39,51a1.953,1.953,0,0,1-1.616,3.047Z" transform="translate(-430.484 -32.344)" fill="#fff"/>
      </g>
      <g id="Group_1612" data-name="Group 1612" transform="translate(608.149 49.688)">
        <path id="Path_33" data-name="Path 33" d="M521.656,59.01l-.061,0a1.953,1.953,0,0,1-1.894-2.013l.479-15.821a1.954,1.954,0,0,1,2.527-1.808l12.686,3.885.4-13.259a1.954,1.954,0,0,1,2.527-1.81l15.121,4.646a1.954,1.954,0,0,1-1.145,3.737l-12.672-3.893-.4,13.255a1.954,1.954,0,0,1-2.527,1.812l-12.686-3.887-.4,13.263A1.956,1.956,0,0,1,521.656,59.01Z" transform="translate(-519.701 -28.097)" fill="#fff"/>
      </g>
      <g id="Group_1614" data-name="Group 1614" transform="translate(860.105 19.078)">
        <path id="Path_35" data-name="Path 35" d="M655.051,28.491a1.958,1.958,0,0,1-1.1-.336l-4.147-2.82a1.955,1.955,0,0,1-.172-3.1l1.867-1.593-2.031-1.378a1.956,1.956,0,0,1-.17-3.1l3.815-3.252a1.954,1.954,0,1,1,2.537,2.973l-1.865,1.589,2.029,1.378a1.954,1.954,0,0,1,.17,3.1l-1.867,1.595,2.031,1.38a1.954,1.954,0,0,1-1.1,3.571Z" transform="translate(-648.617 -12.435)" fill="#fff"/>
      </g>
      <g id="Group_1618" data-name="Group 1618" transform="translate(894.397 10.897)">
        <path id="Path_39" data-name="Path 39" d="M680.861,35.5a1.984,1.984,0,0,1-.705-.131l-9.35-3.616a1.955,1.955,0,0,1-.868-2.982l4.432-6-6.958-2.689a1.954,1.954,0,0,1-.868-2.984L672.5,9.04a1.955,1.955,0,1,1,3.143,2.326l-4.433,5.994,6.958,2.687a1.955,1.955,0,0,1,.868,2.982l-4.433,6,6.962,2.691a1.955,1.955,0,0,1-.706,3.778Z" transform="translate(-666.162 -8.249)" fill="#fff"/>
      </g>
      <g id="Group_1622" data-name="Group 1622" transform="translate(820.894 36.245)">
        <path id="Path_43" data-name="Path 43" d="M636.253,49.941a1.955,1.955,0,0,1-1.5-3.2l5.062-6.108-7.233-3.262a1.956,1.956,0,0,1-.7-3.029l5.062-6.115-7.235-3.27a1.954,1.954,0,0,1,1.609-3.561l9.569,4.323a1.953,1.953,0,0,1,.7,3.027l-5.062,6.115,7.235,3.264a1.954,1.954,0,0,1,.7,3.029l-6.7,8.082A1.955,1.955,0,0,1,636.253,49.941Z" transform="translate(-628.554 -21.219)" fill="#fff"/>
      </g>
      <g id="Group_1627" data-name="Group 1627" transform="translate(929.697 96.076)">
        <path id="Path_48" data-name="Path 48" d="M692.273,68.109a1.933,1.933,0,0,1-.823-.182l-4.734-2.2a1.955,1.955,0,0,1-.669-3.035l1.718-2.029-2.412-1.122a1.953,1.953,0,0,1-.667-3.035l3.374-3.981a1.954,1.954,0,1,1,2.982,2.527l-1.716,2.025,2.408,1.12a1.955,1.955,0,0,1,.668,3.035l-1.718,2.029,2.414,1.124a1.954,1.954,0,0,1-.827,3.725Z" transform="translate(-684.224 -51.832)" fill="#fff"/>
      </g>
      <g id="Group_1635" data-name="Group 1635" transform="translate(709.568 10.228)">
        <path id="Path_56" data-name="Path 56" d="M582.374,15.181a1.951,1.951,0,0,1-1.636-.885l-.594-.9-.717.813a1.94,1.94,0,0,1-1.6.657,1.96,1.96,0,0,1-1.5-.879l-.6-.909-.719.815a1.954,1.954,0,0,1-2.93-2.588L574.5,8.566a2.021,2.021,0,0,1,1.6-.657,1.96,1.96,0,0,1,1.5.879l.6.907.717-.813a1.981,1.981,0,0,1,1.607-.657,1.947,1.947,0,0,1,1.493.879l2,3.051a1.955,1.955,0,0,1-1.632,3.025Z" transform="translate(-571.593 -7.907)" fill="#fff"/>
      </g>
      <g id="Group_1638" data-name="Group 1638" transform="translate(463.723 92.103)">
        <path id="Path_59" data-name="Path 59" d="M447.76,85.475a1.955,1.955,0,0,1-1.026-3.62l9.026-5.547-7.742-7.235a1.953,1.953,0,0,1,.309-3.092l9.027-5.56-7.741-7.241a1.955,1.955,0,1,1,2.67-2.855l9.614,8.992a1.954,1.954,0,0,1-.311,3.092l-9.027,5.558L460.3,75.2a1.953,1.953,0,0,1-.311,3.094l-11.209,6.889A1.948,1.948,0,0,1,447.76,85.475Z" transform="translate(-445.804 -49.799)" fill="#fff"/>
      </g>
      <g id="Group_1639" data-name="Group 1639" transform="translate(628.033 10.432)">
        <path id="Path_60" data-name="Path 60" d="M539.89,16.946a1.73,1.73,0,0,1-.283-.021,1.948,1.948,0,0,1-1.425-.983L537.1,14l-1.589,1.554a1.955,1.955,0,0,1-3.076-.451l-2.318-4.184a1.954,1.954,0,1,1,3.42-1.892l1.075,1.941L536.2,9.41a1.926,1.926,0,0,1,1.65-.536,1.957,1.957,0,0,1,1.427.985l1.079,1.945,1.591-1.554a1.955,1.955,0,1,1,2.732,2.8l-3.424,3.342A1.955,1.955,0,0,1,539.89,16.946Z" transform="translate(-529.874 -8.011)" fill="#fff"/>
      </g>
      <g id="Group_1646" data-name="Group 1646" transform="translate(957.234 101.788)">
        <path id="Path_67" data-name="Path 67" d="M700.271,68.579a1.955,1.955,0,0,1-1.016-3.625l1.321-.8-1.124-1.063A1.952,1.952,0,0,1,699.78,60l1.323-.805-1.126-1.065a1.954,1.954,0,1,1,2.685-2.84l2.986,2.824a1.953,1.953,0,0,1-.326,3.09L704,62.008l1.126,1.063a1.954,1.954,0,0,1-.328,3.092L701.283,68.3A1.95,1.95,0,0,1,700.271,68.579Z" transform="translate(-698.314 -54.755)" fill="#fff"/>
      </g>
      <g id="Group_1655" data-name="Group 1655" transform="translate(934.84 9.409)">
        <path id="Path_76" data-name="Path 76" d="M712.276,26.987a1.957,1.957,0,0,1-1.9-1.511l-1.825-7.826-7.067,3.835a1.952,1.952,0,0,1-2.834-1.272l-1.833-7.831-7.073,3.835a1.954,1.954,0,0,1-1.862-3.436L697.2,7.725A1.955,1.955,0,0,1,700.035,9l1.833,7.831,7.067-3.837a1.955,1.955,0,0,1,2.836,1.274l2.408,10.323a1.959,1.959,0,0,1-1.9,2.4Z" transform="translate(-686.855 -7.488)" fill="#fff"/>
      </g>
      <g id="Group_1656" data-name="Group 1656" transform="translate(720.579 77.953)">
        <path id="Path_77" data-name="Path 77" d="M590.662,62.506a1.95,1.95,0,0,1-1.464-.663l-11.482-13a1.954,1.954,0,1,1,2.93-2.588l9.784,11.084,8.1-12.375a1.954,1.954,0,0,1,1.5-.879,1.986,1.986,0,0,1,1.6.655l9.8,11.085,8.107-12.379a1.954,1.954,0,0,1,3.27,2.142L613.3,60.106a1.954,1.954,0,0,1-3.1.223l-9.8-11.084L592.3,61.62a1.954,1.954,0,0,1-1.5.879Q590.733,62.506,590.662,62.506Z" transform="translate(-577.227 -42.559)" fill="#fff"/>
      </g>
      <g id="Group_1661" data-name="Group 1661" transform="translate(739.949 9.967)">
        <path id="Path_82" data-name="Path 82" d="M589.093,49.4a1.956,1.956,0,0,1-.772-3.752l12.368-5.306-8.4-10.525a1.951,1.951,0,0,1,.756-3.014l12.373-5.322-8.4-10.53a1.954,1.954,0,1,1,3.055-2.437l9.995,12.534a1.954,1.954,0,0,1-.756,3.014l-12.373,5.32,8.4,10.527a1.955,1.955,0,0,1-.758,3.016l-14.723,6.317A1.922,1.922,0,0,1,589.093,49.4Z" transform="translate(-587.138 -7.773)" fill="#fff"/>
      </g>
      <g id="Group_1665" data-name="Group 1665" transform="translate(640.186 88.858)">
        <path id="Path_86" data-name="Path 86" d="M540.95,65.4a1.953,1.953,0,0,1-1.714-1.012l-2.9-5.273a1.954,1.954,0,0,1,1.255-2.844l3.362-.807-1.665-3.029a1.955,1.955,0,0,1,1.257-2.844l5.85-1.4a1.954,1.954,0,1,1,.911,3.8l-3.358.805,1.665,3.025a1.954,1.954,0,0,1-1.255,2.844L541,59.477l1.665,3.029a1.952,1.952,0,0,1-.77,2.654A1.926,1.926,0,0,1,540.95,65.4Z" transform="translate(-536.093 -48.139)" fill="#fff"/>
      </g>
      <g id="Group_1669" data-name="Group 1669" transform="translate(775.286 118.906)">
        <path id="Path_90" data-name="Path 90" d="M611.4,74.987a1.952,1.952,0,0,1-.557-.082l-4.227-1.259a1.955,1.955,0,1,1,1.116-3.747l1.771.528.039-1.847a1.952,1.952,0,0,1,2.509-1.831l1.779.528.039-1.853a1.955,1.955,0,0,1,1.954-1.911h.043a1.956,1.956,0,0,1,1.911,2l-.1,4.411a1.956,1.956,0,0,1-2.511,1.831l-1.777-.528-.039,1.849a1.956,1.956,0,0,1-1.954,1.913Z" transform="translate(-605.218 -63.513)" fill="#fff"/>
      </g>
      <g id="Group_1677" data-name="Group 1677" transform="translate(476.409 44.933)">
        <path id="Path_98" data-name="Path 98" d="M467.153,47.866a1.958,1.958,0,0,1-1.44-.631l-12.9-14.041a1.955,1.955,0,0,1,2.879-2.646L466.856,42.7l8.766-14a1.956,1.956,0,0,1,3.094-.285L489.9,40.578l8.773-14a1.954,1.954,0,0,1,3.311,2.078L491.855,44.823a1.956,1.956,0,0,1-3.094.285L477.574,32.954l-8.766,14a1.956,1.956,0,0,1-1.477.909C467.272,47.864,467.212,47.866,467.153,47.866Z" transform="translate(-452.295 -25.664)" fill="#fff"/>
      </g>
      <g id="Group_1681" data-name="Group 1681" transform="translate(922.497 53.579)">
        <path id="Path_102" data-name="Path 102" d="M724.091,50.555a1.95,1.95,0,0,1-1.659-.921L714.678,37.2,704.74,47.975a1.955,1.955,0,0,1-3.094-.291l-7.769-12.436-9.948,10.775a1.954,1.954,0,0,1-2.871-2.652l11.684-12.655a1.986,1.986,0,0,1,1.618-.622,1.964,1.964,0,0,1,1.476.911L703.6,43.441l9.94-10.775a1.955,1.955,0,0,1,3.094.291l9.11,14.607a1.956,1.956,0,0,1-1.657,2.99Z" transform="translate(-680.54 -30.088)" fill="#fff"/>
      </g>
      <g id="Group_1689" data-name="Group 1689" transform="translate(701.87 38.078)">
        <path id="Path_110" data-name="Path 110" d="M569.61,48.812a1.954,1.954,0,0,1-1.163-3.526l5.472-4.052-5.359-4.206a1.956,1.956,0,0,1,.043-3.108l5.478-4.061-5.361-4.212a1.954,1.954,0,1,1,2.414-3.074l7.376,5.795a1.956,1.956,0,0,1-.043,3.108l-5.478,4.059,5.363,4.208a1.954,1.954,0,0,1-.045,3.108l-7.536,5.578A1.949,1.949,0,0,1,569.61,48.812Z" transform="translate(-567.654 -22.156)" fill="#fff"/>
      </g>
      <g id="Group_1694" data-name="Group 1694" transform="translate(427.029 12.938)">
        <path id="Path_115" data-name="Path 115" d="M435.363,22.817a1.952,1.952,0,0,1-1.306-.5l-6.381-5.732a1.955,1.955,0,0,1,2.613-2.908l4.472,4.018,2.691-5.379a1.956,1.956,0,0,1,3.055-.58l4.48,4.02,2.7-5.382a1.954,1.954,0,1,1,3.495,1.749L447.336,19.8a1.956,1.956,0,0,1-3.053.579L439.8,16.358l-2.691,5.381a1.958,1.958,0,0,1-1.384,1.046A1.927,1.927,0,0,1,435.363,22.817Z" transform="translate(-427.029 -9.293)" fill="#fff"/>
      </g>
      <g id="Group_1695" data-name="Group 1695" transform="translate(846.963 66.831)">
        <path id="Path_116" data-name="Path 116" d="M647.268,70.487a1.954,1.954,0,0,1-1.906-1.524L641.941,53.75a1.947,1.947,0,0,1,.408-1.685,2,2,0,0,1,1.587-.7l13.018.6-2.863-12.712a1.954,1.954,0,0,1,.409-1.685,2.006,2.006,0,0,1,1.589-.7l15.569.723a1.955,1.955,0,0,1,1.861,2.044,1.978,1.978,0,0,1-2.042,1.863l-13.009-.606,2.863,12.71a1.955,1.955,0,0,1-2,2.382l-13.02-.6,2.861,12.715a1.954,1.954,0,0,1-1.478,2.336A1.917,1.917,0,0,1,647.268,70.487Z" transform="translate(-641.892 -36.869)" fill="#fff"/>
      </g>
      <g id="Group_1700" data-name="Group 1700" transform="translate(675.402 85.718)">
        <path id="Path_121" data-name="Path 121" d="M573.618,94.036a1.946,1.946,0,0,1-1.024-.291l-15.377-9.479a1.954,1.954,0,0,1-.307-3.092l11.326-10.583-13.194-8.127a1.954,1.954,0,0,1-.309-3.094l13.2-12.315a1.955,1.955,0,1,1,2.666,2.859L559.274,60.481l13.192,8.127a1.953,1.953,0,0,1,.309,3.092L561.448,82.282l13.2,8.134a1.955,1.955,0,0,1-1.028,3.62Z" transform="translate(-554.111 -46.532)" fill="#fff"/>
      </g>
      <g id="Group_1704" data-name="Group 1704" transform="translate(537.321 78.144)">
        <path id="Path_125" data-name="Path 125" d="M499.583,80.218a1.927,1.927,0,0,1-.971-.26,1.954,1.954,0,0,1-.721-2.668L504.1,66.464l-12.09-3.125a1.957,1.957,0,0,1-1.206-2.863l6.213-10.841L484.927,46.5a1.954,1.954,0,1,1,.977-3.784l14.574,3.772a1.955,1.955,0,0,1,1.206,2.865L495.473,60.2l12.092,3.127a1.955,1.955,0,0,1,1.206,2.865L501.28,79.236A1.949,1.949,0,0,1,499.583,80.218Z" transform="translate(-483.461 -42.657)" fill="#fff"/>
      </g>
      <g id="Group_1710" data-name="Group 1710" transform="translate(577.649 63.905)">
        <path id="Path_131" data-name="Path 131" d="M506.7,45.538a1.956,1.956,0,0,1-1.915-1.569l-.651-3.244a1.945,1.945,0,0,1,.448-1.673,1.975,1.975,0,0,1,1.6-.661l.745.051-.148-.731a1.965,1.965,0,0,1,.448-1.677,1.986,1.986,0,0,1,1.6-.659l3.3.229a1.954,1.954,0,1,1-.272,3.9l-.741-.051.147.729a1.955,1.955,0,0,1-2.05,2.336l-.745-.051.147.733a1.954,1.954,0,0,1-1.53,2.3A1.884,1.884,0,0,1,506.7,45.538Z" transform="translate(-504.095 -35.371)" fill="#fff"/>
      </g>
      <g id="Group_1711" data-name="Group 1711" transform="translate(784.919 12.836)">
        <path id="Path_132" data-name="Path 132" d="M612.1,24.263a1.953,1.953,0,0,1-1.161-3.526l1.622-1.2-1.585-1.247a1.954,1.954,0,0,1,.049-3.108l1.628-1.2-1.589-1.253a1.954,1.954,0,1,1,2.422-3.068l3.6,2.838a1.952,1.952,0,0,1-.049,3.106l-1.626,1.2L617,18.055a1.954,1.954,0,0,1-.049,3.108l-3.688,2.719A1.935,1.935,0,0,1,612.1,24.263Z" transform="translate(-610.147 -9.241)" fill="#fff"/>
      </g>
      <g id="Group_1723" data-name="Group 1723" transform="translate(523.019 9.393)">
        <path id="Path_144" data-name="Path 144" d="M487.788,16.725a1.957,1.957,0,0,1-1.827-1.263l-.567-1.5-1.3.944a1.954,1.954,0,0,1-2.979-.883l-.571-1.5-1.3.948a1.955,1.955,0,0,1-2.3-3.16l3.368-2.455a1.956,1.956,0,0,1,2.978.885l.571,1.5,1.3-.946a1.952,1.952,0,0,1,2.979.887l1.476,3.9a1.955,1.955,0,0,1-1.827,2.646Z" transform="translate(-476.143 -7.479)" fill="#fff"/>
      </g>
      <g id="Group_1724" data-name="Group 1724" transform="translate(894.777 73.03)">
        <path id="Path_145" data-name="Path 145" d="M676.485,69.423a1.944,1.944,0,0,1-1.226-.432l-8.175-6.6a1.953,1.953,0,0,1,.084-3.106l6.442-4.648-6.182-4.986a1.955,1.955,0,0,1,.084-3.108l8.521-6.135a1.955,1.955,0,1,1,2.285,3.172l-6.44,4.638,6.18,4.984a1.956,1.956,0,0,1-.084,3.106l-6.444,4.648,6.184,4.99a1.954,1.954,0,0,1-1.229,3.475Z" transform="translate(-666.357 -40.04)" fill="#fff"/>
      </g>
      <g id="Group_1725" data-name="Group 1725" transform="translate(560.027 12.176)">
        <path id="Path_146" data-name="Path 146" d="M497.036,42.624a1.953,1.953,0,0,1-1.931-2.271l3.111-18.9a1.955,1.955,0,0,1,2.744-1.458l15.082,6.919,2.689-16.37a1.957,1.957,0,0,1,2.746-1.458l17.394,8a1.954,1.954,0,1,1-1.632,3.551L522.173,13.7l-2.689,16.368a1.953,1.953,0,0,1-2.742,1.46l-15.084-6.921-2.7,16.376A1.955,1.955,0,0,1,497.036,42.624Z" transform="translate(-495.079 -8.904)" fill="#fff"/>
      </g>
      <g id="Group_1728" data-name="Group 1728" transform="translate(789.753 58.634)">
        <path id="Path_149" data-name="Path 149" d="M640.037,72.419a1.945,1.945,0,0,1-.352-.031l-16.317-2.973a1.955,1.955,0,0,1-1.413-2.769L628.021,54l-13.8-2.509a1.952,1.952,0,0,1-1.411-2.769l7.18-14.942a1.954,1.954,0,1,1,3.522,1.694L617.447,48.1l13.792,2.509a1.957,1.957,0,0,1,1.413,2.767l-6.067,12.647,13.8,2.513a1.955,1.955,0,0,1-.348,3.878Z" transform="translate(-612.62 -32.674)" fill="#fff"/>
      </g>
      <g id="Group_1733" data-name="Group 1733" transform="translate(591.655 102.128)">
        <path id="Path_154" data-name="Path 154" d="M529.871,76.3a2.19,2.19,0,0,1-.225-.012,1.955,1.955,0,0,1-1.72-2.165l.794-6.909-6.874,1.065a1.955,1.955,0,0,1-2.242-2.154l.789-6.917-6.88,1.065a1.955,1.955,0,0,1-.6-3.864l9.41-1.454a1.955,1.955,0,0,1,2.242,2.152l-.789,6.917,6.878-1.065a1.955,1.955,0,0,1,2.24,2.154l-1.087,9.455A1.954,1.954,0,0,1,529.871,76.3Z" transform="translate(-511.261 -54.928)" fill="#fff"/>
      </g>
      <g id="Group_1734" data-name="Group 1734" transform="translate(479.118 9.201)">
        <path id="Path_155" data-name="Path 155" d="M455.637,23.411c-.059,0-.117,0-.176-.008a1.956,1.956,0,0,1-1.773-2.121l.655-7.347a1.955,1.955,0,0,1,2.629-1.657l4.511,1.677.426-4.792A1.957,1.957,0,0,1,464.538,7.5l6.909,2.576a1.955,1.955,0,0,1-1.366,3.663l-4.505-1.681-.426,4.792a1.954,1.954,0,0,1-2.627,1.659l-4.513-1.679-.428,4.794A1.956,1.956,0,0,1,455.637,23.411Z" transform="translate(-453.681 -7.382)" fill="#fff"/>
      </g>
      <g id="Group_1738" data-name="Group 1738" transform="translate(430.63 104.367)">
        <path id="Path_159" data-name="Path 159" d="M430.829,73.05a1.955,1.955,0,0,1-.883-3.7l2.6-1.313-1.956-2.16a1.952,1.952,0,0,1,.567-3.057l2.6-1.317L431.8,59.34a1.955,1.955,0,0,1,2.9-2.623l3.674,4.063a1.953,1.953,0,0,1-.567,3.055l-2.6,1.317,1.956,2.164a1.95,1.95,0,0,1-.567,3.055l-4.89,2.47A1.937,1.937,0,0,1,430.829,73.05Z" transform="translate(-428.871 -56.074)" fill="#fff"/>
      </g>
    </g>
    <g id="Group_2202" data-name="Group 2202" transform="translate(113.971 -5.475)">
      <g id="Group_1600-2" data-name="Group 1600" transform="translate(816.858 5.475)">
        <path id="Path_21-2" data-name="Path 21" d="M634.2,18.183a1.947,1.947,0,0,1-1.266-.467l-5.756-4.9a1.955,1.955,0,0,1,2.535-2.977l3.805,3.242,2.119-4.528a1.952,1.952,0,0,1,1.354-1.081,1.927,1.927,0,0,1,1.681.42l3.811,3.242L644.6,6.6a1.955,1.955,0,0,1,3.541,1.659l-3.209,6.85a1.954,1.954,0,0,1-3.035.661l-3.813-3.242-2.119,4.528a1.952,1.952,0,0,1-1.356,1.083A1.979,1.979,0,0,1,634.2,18.183Z" transform="translate(-626.489 -5.475)" fill="#fff"/>
      </g>
      <g id="Group_1603-2" data-name="Group 1603" transform="translate(662.341 10.322)">
        <path id="Path_24-2" data-name="Path 24" d="M563.665,57.844a1.946,1.946,0,0,1-1.288-.485L548.094,44.825a1.954,1.954,0,0,1,.213-3.1l13.718-9.059L549.669,21.832a1.953,1.953,0,0,1,.213-3.1L565.736,8.278a1.955,1.955,0,0,1,2.152,3.264l-13.716,9.041,12.356,10.835a1.952,1.952,0,0,1-.211,3.1L552.6,43.576l12.36,10.845a1.954,1.954,0,0,1-1.292,3.422Z" transform="translate(-547.429 -7.955)" fill="#fff"/>
      </g>
      <g id="Group_1611-2" data-name="Group 1611" transform="translate(433.782 57.989)">
        <path id="Path_32-2" data-name="Path 32" d="M436.773,54.044a1.95,1.95,0,0,1-1.622-.86l-4.333-6.412a1.955,1.955,0,0,1,.993-2.945l4.9-1.663-2.9-4.288a1.952,1.952,0,0,1,.991-2.945l7.327-2.482a1.955,1.955,0,0,1,1.255,3.7l-4.9,1.657,2.9,4.286a1.955,1.955,0,0,1-.991,2.945l-4.9,1.665L438.39,51a1.953,1.953,0,0,1-1.616,3.047Z" transform="translate(-430.484 -32.344)" fill="#fff"/>
      </g>
      <g id="Group_1612-2" data-name="Group 1612" transform="translate(608.149 49.688)">
        <path id="Path_33-2" data-name="Path 33" d="M521.656,59.01l-.061,0a1.953,1.953,0,0,1-1.894-2.013l.479-15.821a1.954,1.954,0,0,1,2.527-1.808l12.686,3.885.4-13.259a1.954,1.954,0,0,1,2.527-1.81l15.121,4.646a1.954,1.954,0,0,1-1.145,3.737l-12.672-3.893-.4,13.255a1.954,1.954,0,0,1-2.527,1.812l-12.686-3.887-.4,13.263A1.956,1.956,0,0,1,521.656,59.01Z" transform="translate(-519.701 -28.097)" fill="#fff"/>
      </g>
      <g id="Group_1614-2" data-name="Group 1614" transform="translate(860.105 19.078)">
        <path id="Path_35-2" data-name="Path 35" d="M655.051,28.491a1.958,1.958,0,0,1-1.1-.336l-4.147-2.82a1.955,1.955,0,0,1-.172-3.1l1.867-1.593-2.031-1.378a1.956,1.956,0,0,1-.17-3.1l3.815-3.252a1.954,1.954,0,1,1,2.537,2.973l-1.865,1.589,2.029,1.378a1.954,1.954,0,0,1,.17,3.1l-1.867,1.595,2.031,1.38a1.954,1.954,0,0,1-1.1,3.571Z" transform="translate(-648.617 -12.435)" fill="#fff"/>
      </g>
      <g id="Group_1618-2" data-name="Group 1618" transform="translate(894.397 10.897)">
        <path id="Path_39-2" data-name="Path 39" d="M680.861,35.5a1.984,1.984,0,0,1-.705-.131l-9.35-3.616a1.955,1.955,0,0,1-.868-2.982l4.432-6-6.958-2.689a1.954,1.954,0,0,1-.868-2.984L672.5,9.04a1.955,1.955,0,1,1,3.143,2.326l-4.433,5.994,6.958,2.687a1.955,1.955,0,0,1,.868,2.982l-4.433,6,6.962,2.691a1.955,1.955,0,0,1-.706,3.778Z" transform="translate(-666.162 -8.249)" fill="#fff"/>
      </g>
      <g id="Group_1622-2" data-name="Group 1622" transform="translate(820.894 36.245)">
        <path id="Path_43-2" data-name="Path 43" d="M636.253,49.941a1.955,1.955,0,0,1-1.5-3.2l5.062-6.108-7.233-3.262a1.956,1.956,0,0,1-.7-3.029l5.062-6.115-7.235-3.27a1.954,1.954,0,0,1,1.609-3.561l9.569,4.323a1.953,1.953,0,0,1,.7,3.027l-5.062,6.115,7.235,3.264a1.954,1.954,0,0,1,.7,3.029l-6.7,8.082A1.955,1.955,0,0,1,636.253,49.941Z" transform="translate(-628.554 -21.219)" fill="#fff"/>
      </g>
      <g id="Group_1627-2" data-name="Group 1627" transform="translate(929.697 96.076)">
        <path id="Path_48-2" data-name="Path 48" d="M692.273,68.109a1.933,1.933,0,0,1-.823-.182l-4.734-2.2a1.955,1.955,0,0,1-.669-3.035l1.718-2.029-2.412-1.122a1.953,1.953,0,0,1-.667-3.035l3.374-3.981a1.954,1.954,0,1,1,2.982,2.527l-1.716,2.025,2.408,1.12a1.955,1.955,0,0,1,.668,3.035l-1.718,2.029,2.414,1.124a1.954,1.954,0,0,1-.827,3.725Z" transform="translate(-684.224 -51.832)" fill="#fff"/>
      </g>
      <g id="Group_1635-2" data-name="Group 1635" transform="translate(709.568 10.228)">
        <path id="Path_56-2" data-name="Path 56" d="M582.374,15.181a1.951,1.951,0,0,1-1.636-.885l-.594-.9-.717.813a1.94,1.94,0,0,1-1.6.657,1.96,1.96,0,0,1-1.5-.879l-.6-.909-.719.815a1.954,1.954,0,0,1-2.93-2.588L574.5,8.566a2.021,2.021,0,0,1,1.6-.657,1.96,1.96,0,0,1,1.5.879l.6.907.717-.813a1.981,1.981,0,0,1,1.607-.657,1.947,1.947,0,0,1,1.493.879l2,3.051a1.955,1.955,0,0,1-1.632,3.025Z" transform="translate(-571.593 -7.907)" fill="#fff"/>
      </g>
      <g id="Group_1638-2" data-name="Group 1638" transform="translate(463.723 92.103)">
        <path id="Path_59-2" data-name="Path 59" d="M447.76,85.475a1.955,1.955,0,0,1-1.026-3.62l9.026-5.547-7.742-7.235a1.953,1.953,0,0,1,.309-3.092l9.027-5.56-7.741-7.241a1.955,1.955,0,1,1,2.67-2.855l9.614,8.992a1.954,1.954,0,0,1-.311,3.092l-9.027,5.558L460.3,75.2a1.953,1.953,0,0,1-.311,3.094l-11.209,6.889A1.948,1.948,0,0,1,447.76,85.475Z" transform="translate(-445.804 -49.799)" fill="#fff"/>
      </g>
      <g id="Group_1639-2" data-name="Group 1639" transform="translate(628.033 10.432)">
        <path id="Path_60-2" data-name="Path 60" d="M539.89,16.946a1.73,1.73,0,0,1-.283-.021,1.948,1.948,0,0,1-1.425-.983L537.1,14l-1.589,1.554a1.955,1.955,0,0,1-3.076-.451l-2.318-4.184a1.954,1.954,0,1,1,3.42-1.892l1.075,1.941L536.2,9.41a1.926,1.926,0,0,1,1.65-.536,1.957,1.957,0,0,1,1.427.985l1.079,1.945,1.591-1.554a1.955,1.955,0,1,1,2.732,2.8l-3.424,3.342A1.955,1.955,0,0,1,539.89,16.946Z" transform="translate(-529.874 -8.011)" fill="#fff"/>
      </g>
      <g id="Group_1646-2" data-name="Group 1646" transform="translate(957.234 101.788)">
        <path id="Path_67-2" data-name="Path 67" d="M700.271,68.579a1.955,1.955,0,0,1-1.016-3.625l1.321-.8-1.124-1.063A1.952,1.952,0,0,1,699.78,60l1.323-.805-1.126-1.065a1.954,1.954,0,1,1,2.685-2.84l2.986,2.824a1.953,1.953,0,0,1-.326,3.09L704,62.008l1.126,1.063a1.954,1.954,0,0,1-.328,3.092L701.283,68.3A1.95,1.95,0,0,1,700.271,68.579Z" transform="translate(-698.314 -54.755)" fill="#fff"/>
      </g>
      <g id="Group_1655-2" data-name="Group 1655" transform="translate(934.84 9.409)">
        <path id="Path_76-2" data-name="Path 76" d="M712.276,26.987a1.957,1.957,0,0,1-1.9-1.511l-1.825-7.826-7.067,3.835a1.952,1.952,0,0,1-2.834-1.272l-1.833-7.831-7.073,3.835a1.954,1.954,0,0,1-1.862-3.436L697.2,7.725A1.955,1.955,0,0,1,700.035,9l1.833,7.831,7.067-3.837a1.955,1.955,0,0,1,2.836,1.274l2.408,10.323a1.959,1.959,0,0,1-1.9,2.4Z" transform="translate(-686.855 -7.488)" fill="#fff"/>
      </g>
      <g id="Group_1656-2" data-name="Group 1656" transform="translate(720.579 77.953)">
        <path id="Path_77-2" data-name="Path 77" d="M590.662,62.506a1.95,1.95,0,0,1-1.464-.663l-11.482-13a1.954,1.954,0,1,1,2.93-2.588l9.784,11.084,8.1-12.375a1.954,1.954,0,0,1,1.5-.879,1.986,1.986,0,0,1,1.6.655l9.8,11.085,8.107-12.379a1.954,1.954,0,0,1,3.27,2.142L613.3,60.106a1.954,1.954,0,0,1-3.1.223l-9.8-11.084L592.3,61.62a1.954,1.954,0,0,1-1.5.879Q590.733,62.506,590.662,62.506Z" transform="translate(-577.227 -42.559)" fill="#fff"/>
      </g>
      <g id="Group_1661-2" data-name="Group 1661" transform="translate(739.949 9.967)">
        <path id="Path_82-2" data-name="Path 82" d="M589.093,49.4a1.956,1.956,0,0,1-.772-3.752l12.368-5.306-8.4-10.525a1.951,1.951,0,0,1,.756-3.014l12.373-5.322-8.4-10.53a1.954,1.954,0,1,1,3.055-2.437l9.995,12.534a1.954,1.954,0,0,1-.756,3.014l-12.373,5.32,8.4,10.527a1.955,1.955,0,0,1-.758,3.016l-14.723,6.317A1.922,1.922,0,0,1,589.093,49.4Z" transform="translate(-587.138 -7.773)" fill="#fff"/>
      </g>
      <g id="Group_1665-2" data-name="Group 1665" transform="translate(640.186 88.858)">
        <path id="Path_86-2" data-name="Path 86" d="M540.95,65.4a1.953,1.953,0,0,1-1.714-1.012l-2.9-5.273a1.954,1.954,0,0,1,1.255-2.844l3.362-.807-1.665-3.029a1.955,1.955,0,0,1,1.257-2.844l5.85-1.4a1.954,1.954,0,1,1,.911,3.8l-3.358.805,1.665,3.025a1.954,1.954,0,0,1-1.255,2.844L541,59.477l1.665,3.029a1.952,1.952,0,0,1-.77,2.654A1.926,1.926,0,0,1,540.95,65.4Z" transform="translate(-536.093 -48.139)" fill="#fff"/>
      </g>
      <g id="Group_1669-2" data-name="Group 1669" transform="translate(775.286 118.906)">
        <path id="Path_90-2" data-name="Path 90" d="M611.4,74.987a1.952,1.952,0,0,1-.557-.082l-4.227-1.259a1.955,1.955,0,1,1,1.116-3.747l1.771.528.039-1.847a1.952,1.952,0,0,1,2.509-1.831l1.779.528.039-1.853a1.955,1.955,0,0,1,1.954-1.911h.043a1.956,1.956,0,0,1,1.911,2l-.1,4.411a1.956,1.956,0,0,1-2.511,1.831l-1.777-.528-.039,1.849a1.956,1.956,0,0,1-1.954,1.913Z" transform="translate(-605.218 -63.513)" fill="#fff"/>
      </g>
      <g id="Group_1677-2" data-name="Group 1677" transform="translate(476.409 44.933)">
        <path id="Path_98-2" data-name="Path 98" d="M467.153,47.866a1.958,1.958,0,0,1-1.44-.631l-12.9-14.041a1.955,1.955,0,0,1,2.879-2.646L466.856,42.7l8.766-14a1.956,1.956,0,0,1,3.094-.285L489.9,40.578l8.773-14a1.954,1.954,0,0,1,3.311,2.078L491.855,44.823a1.956,1.956,0,0,1-3.094.285L477.574,32.954l-8.766,14a1.956,1.956,0,0,1-1.477.909C467.272,47.864,467.212,47.866,467.153,47.866Z" transform="translate(-452.295 -25.664)" fill="#fff"/>
      </g>
      <g id="Group_1681-2" data-name="Group 1681" transform="translate(922.497 53.579)">
        <path id="Path_102-2" data-name="Path 102" d="M724.091,50.555a1.95,1.95,0,0,1-1.659-.921L714.678,37.2,704.74,47.975a1.955,1.955,0,0,1-3.094-.291l-7.769-12.436-9.948,10.775a1.954,1.954,0,0,1-2.871-2.652l11.684-12.655a1.986,1.986,0,0,1,1.618-.622,1.964,1.964,0,0,1,1.476.911L703.6,43.441l9.94-10.775a1.955,1.955,0,0,1,3.094.291l9.11,14.607a1.956,1.956,0,0,1-1.657,2.99Z" transform="translate(-680.54 -30.088)" fill="#fff"/>
      </g>
      <g id="Group_1689-2" data-name="Group 1689" transform="translate(701.87 38.078)">
        <path id="Path_110-2" data-name="Path 110" d="M569.61,48.812a1.954,1.954,0,0,1-1.163-3.526l5.472-4.052-5.359-4.206a1.956,1.956,0,0,1,.043-3.108l5.478-4.061-5.361-4.212a1.954,1.954,0,1,1,2.414-3.074l7.376,5.795a1.956,1.956,0,0,1-.043,3.108l-5.478,4.059,5.363,4.208a1.954,1.954,0,0,1-.045,3.108l-7.536,5.578A1.949,1.949,0,0,1,569.61,48.812Z" transform="translate(-567.654 -22.156)" fill="#fff"/>
      </g>
      <g id="Group_1694-2" data-name="Group 1694" transform="translate(427.029 12.938)">
        <path id="Path_115-2" data-name="Path 115" d="M435.363,22.817a1.952,1.952,0,0,1-1.306-.5l-6.381-5.732a1.955,1.955,0,0,1,2.613-2.908l4.472,4.018,2.691-5.379a1.956,1.956,0,0,1,3.055-.58l4.48,4.02,2.7-5.382a1.954,1.954,0,1,1,3.495,1.749L447.336,19.8a1.956,1.956,0,0,1-3.053.579L439.8,16.358l-2.691,5.381a1.958,1.958,0,0,1-1.384,1.046A1.927,1.927,0,0,1,435.363,22.817Z" transform="translate(-427.029 -9.293)" fill="#fff"/>
      </g>
      <g id="Group_1695-2" data-name="Group 1695" transform="translate(846.963 66.831)">
        <path id="Path_116-2" data-name="Path 116" d="M647.268,70.487a1.954,1.954,0,0,1-1.906-1.524L641.941,53.75a1.947,1.947,0,0,1,.408-1.685,2,2,0,0,1,1.587-.7l13.018.6-2.863-12.712a1.954,1.954,0,0,1,.409-1.685,2.006,2.006,0,0,1,1.589-.7l15.569.723a1.955,1.955,0,0,1,1.861,2.044,1.978,1.978,0,0,1-2.042,1.863l-13.009-.606,2.863,12.71a1.955,1.955,0,0,1-2,2.382l-13.02-.6,2.861,12.715a1.954,1.954,0,0,1-1.478,2.336A1.917,1.917,0,0,1,647.268,70.487Z" transform="translate(-641.892 -36.869)" fill="#fff"/>
      </g>
      <g id="Group_1700-2" data-name="Group 1700" transform="translate(675.402 85.718)">
        <path id="Path_121-2" data-name="Path 121" d="M573.618,94.036a1.946,1.946,0,0,1-1.024-.291l-15.377-9.479a1.954,1.954,0,0,1-.307-3.092l11.326-10.583-13.194-8.127a1.954,1.954,0,0,1-.309-3.094l13.2-12.315a1.955,1.955,0,1,1,2.666,2.859L559.274,60.481l13.192,8.127a1.953,1.953,0,0,1,.309,3.092L561.448,82.282l13.2,8.134a1.955,1.955,0,0,1-1.028,3.62Z" transform="translate(-554.111 -46.532)" fill="#fff"/>
      </g>
      <g id="Group_1704-2" data-name="Group 1704" transform="translate(537.321 78.144)">
        <path id="Path_125-2" data-name="Path 125" d="M499.583,80.218a1.927,1.927,0,0,1-.971-.26,1.954,1.954,0,0,1-.721-2.668L504.1,66.464l-12.09-3.125a1.957,1.957,0,0,1-1.206-2.863l6.213-10.841L484.927,46.5a1.954,1.954,0,1,1,.977-3.784l14.574,3.772a1.955,1.955,0,0,1,1.206,2.865L495.473,60.2l12.092,3.127a1.955,1.955,0,0,1,1.206,2.865L501.28,79.236A1.949,1.949,0,0,1,499.583,80.218Z" transform="translate(-483.461 -42.657)" fill="#fff"/>
      </g>
      <g id="Group_1710-2" data-name="Group 1710" transform="translate(577.649 63.905)">
        <path id="Path_131-2" data-name="Path 131" d="M506.7,45.538a1.956,1.956,0,0,1-1.915-1.569l-.651-3.244a1.945,1.945,0,0,1,.448-1.673,1.975,1.975,0,0,1,1.6-.661l.745.051-.148-.731a1.965,1.965,0,0,1,.448-1.677,1.986,1.986,0,0,1,1.6-.659l3.3.229a1.954,1.954,0,1,1-.272,3.9l-.741-.051.147.729a1.955,1.955,0,0,1-2.05,2.336l-.745-.051.147.733a1.954,1.954,0,0,1-1.53,2.3A1.884,1.884,0,0,1,506.7,45.538Z" transform="translate(-504.095 -35.371)" fill="#fff"/>
      </g>
      <g id="Group_1711-2" data-name="Group 1711" transform="translate(784.919 12.836)">
        <path id="Path_132-2" data-name="Path 132" d="M612.1,24.263a1.953,1.953,0,0,1-1.161-3.526l1.622-1.2-1.585-1.247a1.954,1.954,0,0,1,.049-3.108l1.628-1.2-1.589-1.253a1.954,1.954,0,1,1,2.422-3.068l3.6,2.838a1.952,1.952,0,0,1-.049,3.106l-1.626,1.2L617,18.055a1.954,1.954,0,0,1-.049,3.108l-3.688,2.719A1.935,1.935,0,0,1,612.1,24.263Z" transform="translate(-610.147 -9.241)" fill="#fff"/>
      </g>
      <g id="Group_1723-2" data-name="Group 1723" transform="translate(523.019 9.393)">
        <path id="Path_144-2" data-name="Path 144" d="M487.788,16.725a1.957,1.957,0,0,1-1.827-1.263l-.567-1.5-1.3.944a1.954,1.954,0,0,1-2.979-.883l-.571-1.5-1.3.948a1.955,1.955,0,0,1-2.3-3.16l3.368-2.455a1.956,1.956,0,0,1,2.978.885l.571,1.5,1.3-.946a1.952,1.952,0,0,1,2.979.887l1.476,3.9a1.955,1.955,0,0,1-1.827,2.646Z" transform="translate(-476.143 -7.479)" fill="#fff"/>
      </g>
      <g id="Group_1724-2" data-name="Group 1724" transform="translate(894.777 73.03)">
        <path id="Path_145-2" data-name="Path 145" d="M676.485,69.423a1.944,1.944,0,0,1-1.226-.432l-8.175-6.6a1.953,1.953,0,0,1,.084-3.106l6.442-4.648-6.182-4.986a1.955,1.955,0,0,1,.084-3.108l8.521-6.135a1.955,1.955,0,1,1,2.285,3.172l-6.44,4.638,6.18,4.984a1.956,1.956,0,0,1-.084,3.106l-6.444,4.648,6.184,4.99a1.954,1.954,0,0,1-1.229,3.475Z" transform="translate(-666.357 -40.04)" fill="#fff"/>
      </g>
      <g id="Group_1725-2" data-name="Group 1725" transform="translate(560.027 12.176)">
        <path id="Path_146-2" data-name="Path 146" d="M497.036,42.624a1.953,1.953,0,0,1-1.931-2.271l3.111-18.9a1.955,1.955,0,0,1,2.744-1.458l15.082,6.919,2.689-16.37a1.957,1.957,0,0,1,2.746-1.458l17.394,8a1.954,1.954,0,1,1-1.632,3.551L522.173,13.7l-2.689,16.368a1.953,1.953,0,0,1-2.742,1.46l-15.084-6.921-2.7,16.376A1.955,1.955,0,0,1,497.036,42.624Z" transform="translate(-495.079 -8.904)" fill="#fff"/>
      </g>
      <g id="Group_1728-2" data-name="Group 1728" transform="translate(789.753 58.634)">
        <path id="Path_149-2" data-name="Path 149" d="M640.037,72.419a1.945,1.945,0,0,1-.352-.031l-16.317-2.973a1.955,1.955,0,0,1-1.413-2.769L628.021,54l-13.8-2.509a1.952,1.952,0,0,1-1.411-2.769l7.18-14.942a1.954,1.954,0,1,1,3.522,1.694L617.447,48.1l13.792,2.509a1.957,1.957,0,0,1,1.413,2.767l-6.067,12.647,13.8,2.513a1.955,1.955,0,0,1-.348,3.878Z" transform="translate(-612.62 -32.674)" fill="#fff"/>
      </g>
      <g id="Group_1733-2" data-name="Group 1733" transform="translate(591.655 102.128)">
        <path id="Path_154-2" data-name="Path 154" d="M529.871,76.3a2.19,2.19,0,0,1-.225-.012,1.955,1.955,0,0,1-1.72-2.165l.794-6.909-6.874,1.065a1.955,1.955,0,0,1-2.242-2.154l.789-6.917-6.88,1.065a1.955,1.955,0,0,1-.6-3.864l9.41-1.454a1.955,1.955,0,0,1,2.242,2.152l-.789,6.917,6.878-1.065a1.955,1.955,0,0,1,2.24,2.154l-1.087,9.455A1.954,1.954,0,0,1,529.871,76.3Z" transform="translate(-511.261 -54.928)" fill="#fff"/>
      </g>
      <g id="Group_1734-2" data-name="Group 1734" transform="translate(479.118 9.201)">
        <path id="Path_155-2" data-name="Path 155" d="M455.637,23.411c-.059,0-.117,0-.176-.008a1.956,1.956,0,0,1-1.773-2.121l.655-7.347a1.955,1.955,0,0,1,2.629-1.657l4.511,1.677.426-4.792A1.957,1.957,0,0,1,464.538,7.5l6.909,2.576a1.955,1.955,0,0,1-1.366,3.663l-4.505-1.681-.426,4.792a1.954,1.954,0,0,1-2.627,1.659l-4.513-1.679-.428,4.794A1.956,1.956,0,0,1,455.637,23.411Z" transform="translate(-453.681 -7.382)" fill="#fff"/>
      </g>
      <g id="Group_1738-2" data-name="Group 1738" transform="translate(430.63 104.367)">
        <path id="Path_159-2" data-name="Path 159" d="M430.829,73.05a1.955,1.955,0,0,1-.883-3.7l2.6-1.313-1.956-2.16a1.952,1.952,0,0,1,.567-3.057l2.6-1.317L431.8,59.34a1.955,1.955,0,0,1,2.9-2.623l3.674,4.063a1.953,1.953,0,0,1-.567,3.055l-2.6,1.317,1.956,2.164a1.95,1.95,0,0,1-.567,3.055l-4.89,2.47A1.937,1.937,0,0,1,430.829,73.05Z" transform="translate(-428.871 -56.074)" fill="#fff"/>
      </g>
    </g>
    <g id="Group_2203" data-name="Group 2203" transform="translate(651.971 -5.475)">
      <g id="Group_1600-3" data-name="Group 1600" transform="translate(816.858 5.475)">
        <path id="Path_21-3" data-name="Path 21" d="M634.2,18.183a1.947,1.947,0,0,1-1.266-.467l-5.756-4.9a1.955,1.955,0,0,1,2.535-2.977l3.805,3.242,2.119-4.528a1.952,1.952,0,0,1,1.354-1.081,1.927,1.927,0,0,1,1.681.42l3.811,3.242L644.6,6.6a1.955,1.955,0,0,1,3.541,1.659l-3.209,6.85a1.954,1.954,0,0,1-3.035.661l-3.813-3.242-2.119,4.528a1.952,1.952,0,0,1-1.356,1.083A1.979,1.979,0,0,1,634.2,18.183Z" transform="translate(-626.489 -5.475)" fill="#fff"/>
      </g>
      <g id="Group_1603-3" data-name="Group 1603" transform="translate(662.341 10.322)">
        <path id="Path_24-3" data-name="Path 24" d="M563.665,57.844a1.946,1.946,0,0,1-1.288-.485L548.094,44.825a1.954,1.954,0,0,1,.213-3.1l13.718-9.059L549.669,21.832a1.953,1.953,0,0,1,.213-3.1L565.736,8.278a1.955,1.955,0,0,1,2.152,3.264l-13.716,9.041,12.356,10.835a1.952,1.952,0,0,1-.211,3.1L552.6,43.576l12.36,10.845a1.954,1.954,0,0,1-1.292,3.422Z" transform="translate(-547.429 -7.955)" fill="#fff"/>
      </g>
      <g id="Group_1611-3" data-name="Group 1611" transform="translate(433.782 57.989)">
        <path id="Path_32-3" data-name="Path 32" d="M436.773,54.044a1.95,1.95,0,0,1-1.622-.86l-4.333-6.412a1.955,1.955,0,0,1,.993-2.945l4.9-1.663-2.9-4.288a1.952,1.952,0,0,1,.991-2.945l7.327-2.482a1.955,1.955,0,0,1,1.255,3.7l-4.9,1.657,2.9,4.286a1.955,1.955,0,0,1-.991,2.945l-4.9,1.665L438.39,51a1.953,1.953,0,0,1-1.616,3.047Z" transform="translate(-430.484 -32.344)" fill="#fff"/>
      </g>
      <g id="Group_1612-3" data-name="Group 1612" transform="translate(608.149 49.688)">
        <path id="Path_33-3" data-name="Path 33" d="M521.656,59.01l-.061,0a1.953,1.953,0,0,1-1.894-2.013l.479-15.821a1.954,1.954,0,0,1,2.527-1.808l12.686,3.885.4-13.259a1.954,1.954,0,0,1,2.527-1.81l15.121,4.646a1.954,1.954,0,0,1-1.145,3.737l-12.672-3.893-.4,13.255a1.954,1.954,0,0,1-2.527,1.812l-12.686-3.887-.4,13.263A1.956,1.956,0,0,1,521.656,59.01Z" transform="translate(-519.701 -28.097)" fill="#fff"/>
      </g>
      <g id="Group_1614-3" data-name="Group 1614" transform="translate(860.105 19.078)">
        <path id="Path_35-3" data-name="Path 35" d="M655.051,28.491a1.958,1.958,0,0,1-1.1-.336l-4.147-2.82a1.955,1.955,0,0,1-.172-3.1l1.867-1.593-2.031-1.378a1.956,1.956,0,0,1-.17-3.1l3.815-3.252a1.954,1.954,0,1,1,2.537,2.973l-1.865,1.589,2.029,1.378a1.954,1.954,0,0,1,.17,3.1l-1.867,1.595,2.031,1.38a1.954,1.954,0,0,1-1.1,3.571Z" transform="translate(-648.617 -12.435)" fill="#fff"/>
      </g>
      <g id="Group_1618-3" data-name="Group 1618" transform="translate(894.397 10.897)">
        <path id="Path_39-3" data-name="Path 39" d="M680.861,35.5a1.984,1.984,0,0,1-.705-.131l-9.35-3.616a1.955,1.955,0,0,1-.868-2.982l4.432-6-6.958-2.689a1.954,1.954,0,0,1-.868-2.984L672.5,9.04a1.955,1.955,0,1,1,3.143,2.326l-4.433,5.994,6.958,2.687a1.955,1.955,0,0,1,.868,2.982l-4.433,6,6.962,2.691a1.955,1.955,0,0,1-.706,3.778Z" transform="translate(-666.162 -8.249)" fill="#fff"/>
      </g>
      <g id="Group_1622-3" data-name="Group 1622" transform="translate(820.894 36.245)">
        <path id="Path_43-3" data-name="Path 43" d="M636.253,49.941a1.955,1.955,0,0,1-1.5-3.2l5.062-6.108-7.233-3.262a1.956,1.956,0,0,1-.7-3.029l5.062-6.115-7.235-3.27a1.954,1.954,0,0,1,1.609-3.561l9.569,4.323a1.953,1.953,0,0,1,.7,3.027l-5.062,6.115,7.235,3.264a1.954,1.954,0,0,1,.7,3.029l-6.7,8.082A1.955,1.955,0,0,1,636.253,49.941Z" transform="translate(-628.554 -21.219)" fill="#fff"/>
      </g>
      <g id="Group_1627-3" data-name="Group 1627" transform="translate(929.697 96.076)">
        <path id="Path_48-3" data-name="Path 48" d="M692.273,68.109a1.933,1.933,0,0,1-.823-.182l-4.734-2.2a1.955,1.955,0,0,1-.669-3.035l1.718-2.029-2.412-1.122a1.953,1.953,0,0,1-.667-3.035l3.374-3.981a1.954,1.954,0,1,1,2.982,2.527l-1.716,2.025,2.408,1.12a1.955,1.955,0,0,1,.668,3.035l-1.718,2.029,2.414,1.124a1.954,1.954,0,0,1-.827,3.725Z" transform="translate(-684.224 -51.832)" fill="#fff"/>
      </g>
      <g id="Group_1635-3" data-name="Group 1635" transform="translate(709.568 10.228)">
        <path id="Path_56-3" data-name="Path 56" d="M582.374,15.181a1.951,1.951,0,0,1-1.636-.885l-.594-.9-.717.813a1.94,1.94,0,0,1-1.6.657,1.96,1.96,0,0,1-1.5-.879l-.6-.909-.719.815a1.954,1.954,0,0,1-2.93-2.588L574.5,8.566a2.021,2.021,0,0,1,1.6-.657,1.96,1.96,0,0,1,1.5.879l.6.907.717-.813a1.981,1.981,0,0,1,1.607-.657,1.947,1.947,0,0,1,1.493.879l2,3.051a1.955,1.955,0,0,1-1.632,3.025Z" transform="translate(-571.593 -7.907)" fill="#fff"/>
      </g>
      <g id="Group_1638-3" data-name="Group 1638" transform="translate(463.723 92.103)">
        <path id="Path_59-3" data-name="Path 59" d="M447.76,85.475a1.955,1.955,0,0,1-1.026-3.62l9.026-5.547-7.742-7.235a1.953,1.953,0,0,1,.309-3.092l9.027-5.56-7.741-7.241a1.955,1.955,0,1,1,2.67-2.855l9.614,8.992a1.954,1.954,0,0,1-.311,3.092l-9.027,5.558L460.3,75.2a1.953,1.953,0,0,1-.311,3.094l-11.209,6.889A1.948,1.948,0,0,1,447.76,85.475Z" transform="translate(-445.804 -49.799)" fill="#fff"/>
      </g>
      <g id="Group_1639-3" data-name="Group 1639" transform="translate(628.033 10.432)">
        <path id="Path_60-3" data-name="Path 60" d="M539.89,16.946a1.73,1.73,0,0,1-.283-.021,1.948,1.948,0,0,1-1.425-.983L537.1,14l-1.589,1.554a1.955,1.955,0,0,1-3.076-.451l-2.318-4.184a1.954,1.954,0,1,1,3.42-1.892l1.075,1.941L536.2,9.41a1.926,1.926,0,0,1,1.65-.536,1.957,1.957,0,0,1,1.427.985l1.079,1.945,1.591-1.554a1.955,1.955,0,1,1,2.732,2.8l-3.424,3.342A1.955,1.955,0,0,1,539.89,16.946Z" transform="translate(-529.874 -8.011)" fill="#fff"/>
      </g>
      <g id="Group_1646-3" data-name="Group 1646" transform="translate(957.234 101.788)">
        <path id="Path_67-3" data-name="Path 67" d="M700.271,68.579a1.955,1.955,0,0,1-1.016-3.625l1.321-.8-1.124-1.063A1.952,1.952,0,0,1,699.78,60l1.323-.805-1.126-1.065a1.954,1.954,0,1,1,2.685-2.84l2.986,2.824a1.953,1.953,0,0,1-.326,3.09L704,62.008l1.126,1.063a1.954,1.954,0,0,1-.328,3.092L701.283,68.3A1.95,1.95,0,0,1,700.271,68.579Z" transform="translate(-698.314 -54.755)" fill="#fff"/>
      </g>
      <g id="Group_1655-3" data-name="Group 1655" transform="translate(934.84 9.409)">
        <path id="Path_76-3" data-name="Path 76" d="M712.276,26.987a1.957,1.957,0,0,1-1.9-1.511l-1.825-7.826-7.067,3.835a1.952,1.952,0,0,1-2.834-1.272l-1.833-7.831-7.073,3.835a1.954,1.954,0,0,1-1.862-3.436L697.2,7.725A1.955,1.955,0,0,1,700.035,9l1.833,7.831,7.067-3.837a1.955,1.955,0,0,1,2.836,1.274l2.408,10.323a1.959,1.959,0,0,1-1.9,2.4Z" transform="translate(-686.855 -7.488)" fill="#fff"/>
      </g>
      <g id="Group_1656-3" data-name="Group 1656" transform="translate(720.579 77.953)">
        <path id="Path_77-3" data-name="Path 77" d="M590.662,62.506a1.95,1.95,0,0,1-1.464-.663l-11.482-13a1.954,1.954,0,1,1,2.93-2.588l9.784,11.084,8.1-12.375a1.954,1.954,0,0,1,1.5-.879,1.986,1.986,0,0,1,1.6.655l9.8,11.085,8.107-12.379a1.954,1.954,0,0,1,3.27,2.142L613.3,60.106a1.954,1.954,0,0,1-3.1.223l-9.8-11.084L592.3,61.62a1.954,1.954,0,0,1-1.5.879Q590.733,62.506,590.662,62.506Z" transform="translate(-577.227 -42.559)" fill="#fff"/>
      </g>
      <g id="Group_1661-3" data-name="Group 1661" transform="translate(739.949 9.967)">
        <path id="Path_82-3" data-name="Path 82" d="M589.093,49.4a1.956,1.956,0,0,1-.772-3.752l12.368-5.306-8.4-10.525a1.951,1.951,0,0,1,.756-3.014l12.373-5.322-8.4-10.53a1.954,1.954,0,1,1,3.055-2.437l9.995,12.534a1.954,1.954,0,0,1-.756,3.014l-12.373,5.32,8.4,10.527a1.955,1.955,0,0,1-.758,3.016l-14.723,6.317A1.922,1.922,0,0,1,589.093,49.4Z" transform="translate(-587.138 -7.773)" fill="#fff"/>
      </g>
      <g id="Group_1665-3" data-name="Group 1665" transform="translate(640.186 88.858)">
        <path id="Path_86-3" data-name="Path 86" d="M540.95,65.4a1.953,1.953,0,0,1-1.714-1.012l-2.9-5.273a1.954,1.954,0,0,1,1.255-2.844l3.362-.807-1.665-3.029a1.955,1.955,0,0,1,1.257-2.844l5.85-1.4a1.954,1.954,0,1,1,.911,3.8l-3.358.805,1.665,3.025a1.954,1.954,0,0,1-1.255,2.844L541,59.477l1.665,3.029a1.952,1.952,0,0,1-.77,2.654A1.926,1.926,0,0,1,540.95,65.4Z" transform="translate(-536.093 -48.139)" fill="#fff"/>
      </g>
      <g id="Group_1669-3" data-name="Group 1669" transform="translate(775.286 118.906)">
        <path id="Path_90-3" data-name="Path 90" d="M611.4,74.987a1.952,1.952,0,0,1-.557-.082l-4.227-1.259a1.955,1.955,0,1,1,1.116-3.747l1.771.528.039-1.847a1.952,1.952,0,0,1,2.509-1.831l1.779.528.039-1.853a1.955,1.955,0,0,1,1.954-1.911h.043a1.956,1.956,0,0,1,1.911,2l-.1,4.411a1.956,1.956,0,0,1-2.511,1.831l-1.777-.528-.039,1.849a1.956,1.956,0,0,1-1.954,1.913Z" transform="translate(-605.218 -63.513)" fill="#fff"/>
      </g>
      <g id="Group_1677-3" data-name="Group 1677" transform="translate(476.409 44.933)">
        <path id="Path_98-3" data-name="Path 98" d="M467.153,47.866a1.958,1.958,0,0,1-1.44-.631l-12.9-14.041a1.955,1.955,0,0,1,2.879-2.646L466.856,42.7l8.766-14a1.956,1.956,0,0,1,3.094-.285L489.9,40.578l8.773-14a1.954,1.954,0,0,1,3.311,2.078L491.855,44.823a1.956,1.956,0,0,1-3.094.285L477.574,32.954l-8.766,14a1.956,1.956,0,0,1-1.477.909C467.272,47.864,467.212,47.866,467.153,47.866Z" transform="translate(-452.295 -25.664)" fill="#fff"/>
      </g>
      <g id="Group_1681-3" data-name="Group 1681" transform="translate(922.497 53.579)">
        <path id="Path_102-3" data-name="Path 102" d="M724.091,50.555a1.95,1.95,0,0,1-1.659-.921L714.678,37.2,704.74,47.975a1.955,1.955,0,0,1-3.094-.291l-7.769-12.436-9.948,10.775a1.954,1.954,0,0,1-2.871-2.652l11.684-12.655a1.986,1.986,0,0,1,1.618-.622,1.964,1.964,0,0,1,1.476.911L703.6,43.441l9.94-10.775a1.955,1.955,0,0,1,3.094.291l9.11,14.607a1.956,1.956,0,0,1-1.657,2.99Z" transform="translate(-680.54 -30.088)" fill="#fff"/>
      </g>
      <g id="Group_1689-3" data-name="Group 1689" transform="translate(701.87 38.078)">
        <path id="Path_110-3" data-name="Path 110" d="M569.61,48.812a1.954,1.954,0,0,1-1.163-3.526l5.472-4.052-5.359-4.206a1.956,1.956,0,0,1,.043-3.108l5.478-4.061-5.361-4.212a1.954,1.954,0,1,1,2.414-3.074l7.376,5.795a1.956,1.956,0,0,1-.043,3.108l-5.478,4.059,5.363,4.208a1.954,1.954,0,0,1-.045,3.108l-7.536,5.578A1.949,1.949,0,0,1,569.61,48.812Z" transform="translate(-567.654 -22.156)" fill="#fff"/>
      </g>
      <g id="Group_1694-3" data-name="Group 1694" transform="translate(427.029 12.938)">
        <path id="Path_115-3" data-name="Path 115" d="M435.363,22.817a1.952,1.952,0,0,1-1.306-.5l-6.381-5.732a1.955,1.955,0,0,1,2.613-2.908l4.472,4.018,2.691-5.379a1.956,1.956,0,0,1,3.055-.58l4.48,4.02,2.7-5.382a1.954,1.954,0,1,1,3.495,1.749L447.336,19.8a1.956,1.956,0,0,1-3.053.579L439.8,16.358l-2.691,5.381a1.958,1.958,0,0,1-1.384,1.046A1.927,1.927,0,0,1,435.363,22.817Z" transform="translate(-427.029 -9.293)" fill="#fff"/>
      </g>
      <g id="Group_1695-3" data-name="Group 1695" transform="translate(846.963 66.831)">
        <path id="Path_116-3" data-name="Path 116" d="M647.268,70.487a1.954,1.954,0,0,1-1.906-1.524L641.941,53.75a1.947,1.947,0,0,1,.408-1.685,2,2,0,0,1,1.587-.7l13.018.6-2.863-12.712a1.954,1.954,0,0,1,.409-1.685,2.006,2.006,0,0,1,1.589-.7l15.569.723a1.955,1.955,0,0,1,1.861,2.044,1.978,1.978,0,0,1-2.042,1.863l-13.009-.606,2.863,12.71a1.955,1.955,0,0,1-2,2.382l-13.02-.6,2.861,12.715a1.954,1.954,0,0,1-1.478,2.336A1.917,1.917,0,0,1,647.268,70.487Z" transform="translate(-641.892 -36.869)" fill="#fff"/>
      </g>
      <g id="Group_1700-3" data-name="Group 1700" transform="translate(675.402 85.718)">
        <path id="Path_121-3" data-name="Path 121" d="M573.618,94.036a1.946,1.946,0,0,1-1.024-.291l-15.377-9.479a1.954,1.954,0,0,1-.307-3.092l11.326-10.583-13.194-8.127a1.954,1.954,0,0,1-.309-3.094l13.2-12.315a1.955,1.955,0,1,1,2.666,2.859L559.274,60.481l13.192,8.127a1.953,1.953,0,0,1,.309,3.092L561.448,82.282l13.2,8.134a1.955,1.955,0,0,1-1.028,3.62Z" transform="translate(-554.111 -46.532)" fill="#fff"/>
      </g>
      <g id="Group_1704-3" data-name="Group 1704" transform="translate(537.321 78.144)">
        <path id="Path_125-3" data-name="Path 125" d="M499.583,80.218a1.927,1.927,0,0,1-.971-.26,1.954,1.954,0,0,1-.721-2.668L504.1,66.464l-12.09-3.125a1.957,1.957,0,0,1-1.206-2.863l6.213-10.841L484.927,46.5a1.954,1.954,0,1,1,.977-3.784l14.574,3.772a1.955,1.955,0,0,1,1.206,2.865L495.473,60.2l12.092,3.127a1.955,1.955,0,0,1,1.206,2.865L501.28,79.236A1.949,1.949,0,0,1,499.583,80.218Z" transform="translate(-483.461 -42.657)" fill="#fff"/>
      </g>
      <g id="Group_1710-3" data-name="Group 1710" transform="translate(577.649 63.905)">
        <path id="Path_131-3" data-name="Path 131" d="M506.7,45.538a1.956,1.956,0,0,1-1.915-1.569l-.651-3.244a1.945,1.945,0,0,1,.448-1.673,1.975,1.975,0,0,1,1.6-.661l.745.051-.148-.731a1.965,1.965,0,0,1,.448-1.677,1.986,1.986,0,0,1,1.6-.659l3.3.229a1.954,1.954,0,1,1-.272,3.9l-.741-.051.147.729a1.955,1.955,0,0,1-2.05,2.336l-.745-.051.147.733a1.954,1.954,0,0,1-1.53,2.3A1.884,1.884,0,0,1,506.7,45.538Z" transform="translate(-504.095 -35.371)" fill="#fff"/>
      </g>
      <g id="Group_1711-3" data-name="Group 1711" transform="translate(784.919 12.836)">
        <path id="Path_132-3" data-name="Path 132" d="M612.1,24.263a1.953,1.953,0,0,1-1.161-3.526l1.622-1.2-1.585-1.247a1.954,1.954,0,0,1,.049-3.108l1.628-1.2-1.589-1.253a1.954,1.954,0,1,1,2.422-3.068l3.6,2.838a1.952,1.952,0,0,1-.049,3.106l-1.626,1.2L617,18.055a1.954,1.954,0,0,1-.049,3.108l-3.688,2.719A1.935,1.935,0,0,1,612.1,24.263Z" transform="translate(-610.147 -9.241)" fill="#fff"/>
      </g>
      <g id="Group_1723-3" data-name="Group 1723" transform="translate(523.019 9.393)">
        <path id="Path_144-3" data-name="Path 144" d="M487.788,16.725a1.957,1.957,0,0,1-1.827-1.263l-.567-1.5-1.3.944a1.954,1.954,0,0,1-2.979-.883l-.571-1.5-1.3.948a1.955,1.955,0,0,1-2.3-3.16l3.368-2.455a1.956,1.956,0,0,1,2.978.885l.571,1.5,1.3-.946a1.952,1.952,0,0,1,2.979.887l1.476,3.9a1.955,1.955,0,0,1-1.827,2.646Z" transform="translate(-476.143 -7.479)" fill="#fff"/>
      </g>
      <g id="Group_1724-3" data-name="Group 1724" transform="translate(894.777 73.03)">
        <path id="Path_145-3" data-name="Path 145" d="M676.485,69.423a1.944,1.944,0,0,1-1.226-.432l-8.175-6.6a1.953,1.953,0,0,1,.084-3.106l6.442-4.648-6.182-4.986a1.955,1.955,0,0,1,.084-3.108l8.521-6.135a1.955,1.955,0,1,1,2.285,3.172l-6.44,4.638,6.18,4.984a1.956,1.956,0,0,1-.084,3.106l-6.444,4.648,6.184,4.99a1.954,1.954,0,0,1-1.229,3.475Z" transform="translate(-666.357 -40.04)" fill="#fff"/>
      </g>
      <g id="Group_1725-3" data-name="Group 1725" transform="translate(560.027 12.176)">
        <path id="Path_146-3" data-name="Path 146" d="M497.036,42.624a1.953,1.953,0,0,1-1.931-2.271l3.111-18.9a1.955,1.955,0,0,1,2.744-1.458l15.082,6.919,2.689-16.37a1.957,1.957,0,0,1,2.746-1.458l17.394,8a1.954,1.954,0,1,1-1.632,3.551L522.173,13.7l-2.689,16.368a1.953,1.953,0,0,1-2.742,1.46l-15.084-6.921-2.7,16.376A1.955,1.955,0,0,1,497.036,42.624Z" transform="translate(-495.079 -8.904)" fill="#fff"/>
      </g>
      <g id="Group_1728-3" data-name="Group 1728" transform="translate(789.753 58.634)">
        <path id="Path_149-3" data-name="Path 149" d="M640.037,72.419a1.945,1.945,0,0,1-.352-.031l-16.317-2.973a1.955,1.955,0,0,1-1.413-2.769L628.021,54l-13.8-2.509a1.952,1.952,0,0,1-1.411-2.769l7.18-14.942a1.954,1.954,0,1,1,3.522,1.694L617.447,48.1l13.792,2.509a1.957,1.957,0,0,1,1.413,2.767l-6.067,12.647,13.8,2.513a1.955,1.955,0,0,1-.348,3.878Z" transform="translate(-612.62 -32.674)" fill="#fff"/>
      </g>
      <g id="Group_1733-3" data-name="Group 1733" transform="translate(591.655 102.128)">
        <path id="Path_154-3" data-name="Path 154" d="M529.871,76.3a2.19,2.19,0,0,1-.225-.012,1.955,1.955,0,0,1-1.72-2.165l.794-6.909-6.874,1.065a1.955,1.955,0,0,1-2.242-2.154l.789-6.917-6.88,1.065a1.955,1.955,0,0,1-.6-3.864l9.41-1.454a1.955,1.955,0,0,1,2.242,2.152l-.789,6.917,6.878-1.065a1.955,1.955,0,0,1,2.24,2.154l-1.087,9.455A1.954,1.954,0,0,1,529.871,76.3Z" transform="translate(-511.261 -54.928)" fill="#fff"/>
      </g>
      <g id="Group_1734-3" data-name="Group 1734" transform="translate(479.118 9.201)">
        <path id="Path_155-3" data-name="Path 155" d="M455.637,23.411c-.059,0-.117,0-.176-.008a1.956,1.956,0,0,1-1.773-2.121l.655-7.347a1.955,1.955,0,0,1,2.629-1.657l4.511,1.677.426-4.792A1.957,1.957,0,0,1,464.538,7.5l6.909,2.576a1.955,1.955,0,0,1-1.366,3.663l-4.505-1.681-.426,4.792a1.954,1.954,0,0,1-2.627,1.659l-4.513-1.679-.428,4.794A1.956,1.956,0,0,1,455.637,23.411Z" transform="translate(-453.681 -7.382)" fill="#fff"/>
      </g>
      <g id="Group_1738-3" data-name="Group 1738" transform="translate(430.63 104.367)">
        <path id="Path_159-3" data-name="Path 159" d="M430.829,73.05a1.955,1.955,0,0,1-.883-3.7l2.6-1.313-1.956-2.16a1.952,1.952,0,0,1,.567-3.057l2.6-1.317L431.8,59.34a1.955,1.955,0,0,1,2.9-2.623l3.674,4.063a1.953,1.953,0,0,1-.567,3.055l-2.6,1.317,1.956,2.164a1.95,1.95,0,0,1-.567,3.055l-4.89,2.47A1.937,1.937,0,0,1,430.829,73.05Z" transform="translate(-428.871 -56.074)" fill="#fff"/>
      </g>
    </g>
    <g id="Group_2204" data-name="Group 2204" transform="translate(1192.971 -5.475)">
      <g id="Group_1603-4" data-name="Group 1603" transform="translate(662.341 10.322)">
        <path id="Path_24-4" data-name="Path 24" d="M563.665,57.844a1.946,1.946,0,0,1-1.288-.485L548.094,44.825a1.954,1.954,0,0,1,.213-3.1l13.718-9.059L549.669,21.832a1.953,1.953,0,0,1,.213-3.1L565.736,8.278a1.955,1.955,0,0,1,2.152,3.264l-13.716,9.041,12.356,10.835a1.952,1.952,0,0,1-.211,3.1L552.6,43.576l12.36,10.845a1.954,1.954,0,0,1-1.292,3.422Z" transform="translate(-547.429 -7.955)" fill="#fff"/>
      </g>
      <g id="Group_1611-4" data-name="Group 1611" transform="translate(433.782 57.989)">
        <path id="Path_32-4" data-name="Path 32" d="M436.773,54.044a1.95,1.95,0,0,1-1.622-.86l-4.333-6.412a1.955,1.955,0,0,1,.993-2.945l4.9-1.663-2.9-4.288a1.952,1.952,0,0,1,.991-2.945l7.327-2.482a1.955,1.955,0,0,1,1.255,3.7l-4.9,1.657,2.9,4.286a1.955,1.955,0,0,1-.991,2.945l-4.9,1.665L438.39,51a1.953,1.953,0,0,1-1.616,3.047Z" transform="translate(-430.484 -32.344)" fill="#fff"/>
      </g>
      <g id="Group_1612-4" data-name="Group 1612" transform="translate(608.149 49.688)">
        <path id="Path_33-4" data-name="Path 33" d="M521.656,59.01l-.061,0a1.953,1.953,0,0,1-1.894-2.013l.479-15.821a1.954,1.954,0,0,1,2.527-1.808l12.686,3.885.4-13.259a1.954,1.954,0,0,1,2.527-1.81l15.121,4.646a1.954,1.954,0,0,1-1.145,3.737l-12.672-3.893-.4,13.255a1.954,1.954,0,0,1-2.527,1.812l-12.686-3.887-.4,13.263A1.956,1.956,0,0,1,521.656,59.01Z" transform="translate(-519.701 -28.097)" fill="#fff"/>
      </g>
      <g id="Group_1635-4" data-name="Group 1635" transform="translate(709.568 10.228)">
        <path id="Path_56-4" data-name="Path 56" d="M582.374,15.181a1.951,1.951,0,0,1-1.636-.885l-.594-.9-.717.813a1.94,1.94,0,0,1-1.6.657,1.96,1.96,0,0,1-1.5-.879l-.6-.909-.719.815a1.954,1.954,0,0,1-2.93-2.588L574.5,8.566a2.021,2.021,0,0,1,1.6-.657,1.96,1.96,0,0,1,1.5.879l.6.907.717-.813a1.981,1.981,0,0,1,1.607-.657,1.947,1.947,0,0,1,1.493.879l2,3.051a1.955,1.955,0,0,1-1.632,3.025Z" transform="translate(-571.593 -7.907)" fill="#fff"/>
      </g>
      <g id="Group_1638-4" data-name="Group 1638" transform="translate(463.723 92.103)">
        <path id="Path_59-4" data-name="Path 59" d="M447.76,85.475a1.955,1.955,0,0,1-1.026-3.62l9.026-5.547-7.742-7.235a1.953,1.953,0,0,1,.309-3.092l9.027-5.56-7.741-7.241a1.955,1.955,0,1,1,2.67-2.855l9.614,8.992a1.954,1.954,0,0,1-.311,3.092l-9.027,5.558L460.3,75.2a1.953,1.953,0,0,1-.311,3.094l-11.209,6.889A1.948,1.948,0,0,1,447.76,85.475Z" transform="translate(-445.804 -49.799)" fill="#fff"/>
      </g>
      <g id="Group_1639-4" data-name="Group 1639" transform="translate(628.033 10.432)">
        <path id="Path_60-4" data-name="Path 60" d="M539.89,16.946a1.73,1.73,0,0,1-.283-.021,1.948,1.948,0,0,1-1.425-.983L537.1,14l-1.589,1.554a1.955,1.955,0,0,1-3.076-.451l-2.318-4.184a1.954,1.954,0,1,1,3.42-1.892l1.075,1.941L536.2,9.41a1.926,1.926,0,0,1,1.65-.536,1.957,1.957,0,0,1,1.427.985l1.079,1.945,1.591-1.554a1.955,1.955,0,1,1,2.732,2.8l-3.424,3.342A1.955,1.955,0,0,1,539.89,16.946Z" transform="translate(-529.874 -8.011)" fill="#fff"/>
      </g>
      <g id="Group_1665-4" data-name="Group 1665" transform="translate(640.186 88.858)">
        <path id="Path_86-4" data-name="Path 86" d="M540.95,65.4a1.953,1.953,0,0,1-1.714-1.012l-2.9-5.273a1.954,1.954,0,0,1,1.255-2.844l3.362-.807-1.665-3.029a1.955,1.955,0,0,1,1.257-2.844l5.85-1.4a1.954,1.954,0,1,1,.911,3.8l-3.358.805,1.665,3.025a1.954,1.954,0,0,1-1.255,2.844L541,59.477l1.665,3.029a1.952,1.952,0,0,1-.77,2.654A1.926,1.926,0,0,1,540.95,65.4Z" transform="translate(-536.093 -48.139)" fill="#fff"/>
      </g>
      <g id="Group_1677-4" data-name="Group 1677" transform="translate(476.409 44.933)">
        <path id="Path_98-4" data-name="Path 98" d="M467.153,47.866a1.958,1.958,0,0,1-1.44-.631l-12.9-14.041a1.955,1.955,0,0,1,2.879-2.646L466.856,42.7l8.766-14a1.956,1.956,0,0,1,3.094-.285L489.9,40.578l8.773-14a1.954,1.954,0,0,1,3.311,2.078L491.855,44.823a1.956,1.956,0,0,1-3.094.285L477.574,32.954l-8.766,14a1.956,1.956,0,0,1-1.477.909C467.272,47.864,467.212,47.866,467.153,47.866Z" transform="translate(-452.295 -25.664)" fill="#fff"/>
      </g>
      <g id="Group_1689-4" data-name="Group 1689" transform="translate(701.87 38.078)">
        <path id="Path_110-4" data-name="Path 110" d="M569.61,48.812a1.954,1.954,0,0,1-1.163-3.526l5.472-4.052-5.359-4.206a1.956,1.956,0,0,1,.043-3.108l5.478-4.061-5.361-4.212a1.954,1.954,0,1,1,2.414-3.074l7.376,5.795a1.956,1.956,0,0,1-.043,3.108l-5.478,4.059,5.363,4.208a1.954,1.954,0,0,1-.045,3.108l-7.536,5.578A1.949,1.949,0,0,1,569.61,48.812Z" transform="translate(-567.654 -22.156)" fill="#fff"/>
      </g>
      <g id="Group_1694-4" data-name="Group 1694" transform="translate(427.029 12.938)">
        <path id="Path_115-4" data-name="Path 115" d="M435.363,22.817a1.952,1.952,0,0,1-1.306-.5l-6.381-5.732a1.955,1.955,0,0,1,2.613-2.908l4.472,4.018,2.691-5.379a1.956,1.956,0,0,1,3.055-.58l4.48,4.02,2.7-5.382a1.954,1.954,0,1,1,3.495,1.749L447.336,19.8a1.956,1.956,0,0,1-3.053.579L439.8,16.358l-2.691,5.381a1.958,1.958,0,0,1-1.384,1.046A1.927,1.927,0,0,1,435.363,22.817Z" transform="translate(-427.029 -9.293)" fill="#fff"/>
      </g>
      <g id="Group_1700-4" data-name="Group 1700" transform="translate(675.402 85.718)">
        <path id="Path_121-4" data-name="Path 121" d="M573.618,94.036a1.946,1.946,0,0,1-1.024-.291l-15.377-9.479a1.954,1.954,0,0,1-.307-3.092l11.326-10.583-13.194-8.127a1.954,1.954,0,0,1-.309-3.094l13.2-12.315a1.955,1.955,0,1,1,2.666,2.859L559.274,60.481l13.192,8.127a1.953,1.953,0,0,1,.309,3.092L561.448,82.282l13.2,8.134a1.955,1.955,0,0,1-1.028,3.62Z" transform="translate(-554.111 -46.532)" fill="#fff"/>
      </g>
      <g id="Group_1704-4" data-name="Group 1704" transform="translate(537.321 78.144)">
        <path id="Path_125-4" data-name="Path 125" d="M499.583,80.218a1.927,1.927,0,0,1-.971-.26,1.954,1.954,0,0,1-.721-2.668L504.1,66.464l-12.09-3.125a1.957,1.957,0,0,1-1.206-2.863l6.213-10.841L484.927,46.5a1.954,1.954,0,1,1,.977-3.784l14.574,3.772a1.955,1.955,0,0,1,1.206,2.865L495.473,60.2l12.092,3.127a1.955,1.955,0,0,1,1.206,2.865L501.28,79.236A1.949,1.949,0,0,1,499.583,80.218Z" transform="translate(-483.461 -42.657)" fill="#fff"/>
      </g>
      <g id="Group_1710-4" data-name="Group 1710" transform="translate(577.649 63.905)">
        <path id="Path_131-4" data-name="Path 131" d="M506.7,45.538a1.956,1.956,0,0,1-1.915-1.569l-.651-3.244a1.945,1.945,0,0,1,.448-1.673,1.975,1.975,0,0,1,1.6-.661l.745.051-.148-.731a1.965,1.965,0,0,1,.448-1.677,1.986,1.986,0,0,1,1.6-.659l3.3.229a1.954,1.954,0,1,1-.272,3.9l-.741-.051.147.729a1.955,1.955,0,0,1-2.05,2.336l-.745-.051.147.733a1.954,1.954,0,0,1-1.53,2.3A1.884,1.884,0,0,1,506.7,45.538Z" transform="translate(-504.095 -35.371)" fill="#fff"/>
      </g>
      <g id="Group_1723-4" data-name="Group 1723" transform="translate(523.019 9.393)">
        <path id="Path_144-4" data-name="Path 144" d="M487.788,16.725a1.957,1.957,0,0,1-1.827-1.263l-.567-1.5-1.3.944a1.954,1.954,0,0,1-2.979-.883l-.571-1.5-1.3.948a1.955,1.955,0,0,1-2.3-3.16l3.368-2.455a1.956,1.956,0,0,1,2.978.885l.571,1.5,1.3-.946a1.952,1.952,0,0,1,2.979.887l1.476,3.9a1.955,1.955,0,0,1-1.827,2.646Z" transform="translate(-476.143 -7.479)" fill="#fff"/>
      </g>
      <g id="Group_1725-4" data-name="Group 1725" transform="translate(560.027 12.176)">
        <path id="Path_146-4" data-name="Path 146" d="M497.036,42.624a1.953,1.953,0,0,1-1.931-2.271l3.111-18.9a1.955,1.955,0,0,1,2.744-1.458l15.082,6.919,2.689-16.37a1.957,1.957,0,0,1,2.746-1.458l17.394,8a1.954,1.954,0,1,1-1.632,3.551L522.173,13.7l-2.689,16.368a1.953,1.953,0,0,1-2.742,1.46l-15.084-6.921-2.7,16.376A1.955,1.955,0,0,1,497.036,42.624Z" transform="translate(-495.079 -8.904)" fill="#fff"/>
      </g>
      <g id="Group_1733-4" data-name="Group 1733" transform="translate(591.655 102.128)">
        <path id="Path_154-4" data-name="Path 154" d="M529.871,76.3a2.19,2.19,0,0,1-.225-.012,1.955,1.955,0,0,1-1.72-2.165l.794-6.909-6.874,1.065a1.955,1.955,0,0,1-2.242-2.154l.789-6.917-6.88,1.065a1.955,1.955,0,0,1-.6-3.864l9.41-1.454a1.955,1.955,0,0,1,2.242,2.152l-.789,6.917,6.878-1.065a1.955,1.955,0,0,1,2.24,2.154l-1.087,9.455A1.954,1.954,0,0,1,529.871,76.3Z" transform="translate(-511.261 -54.928)" fill="#fff"/>
      </g>
      <g id="Group_1734-4" data-name="Group 1734" transform="translate(479.118 9.201)">
        <path id="Path_155-4" data-name="Path 155" d="M455.637,23.411c-.059,0-.117,0-.176-.008a1.956,1.956,0,0,1-1.773-2.121l.655-7.347a1.955,1.955,0,0,1,2.629-1.657l4.511,1.677.426-4.792A1.957,1.957,0,0,1,464.538,7.5l6.909,2.576a1.955,1.955,0,0,1-1.366,3.663l-4.505-1.681-.426,4.792a1.954,1.954,0,0,1-2.627,1.659l-4.513-1.679-.428,4.794A1.956,1.956,0,0,1,455.637,23.411Z" transform="translate(-453.681 -7.382)" fill="#fff"/>
      </g>
      <g id="Group_1738-4" data-name="Group 1738" transform="translate(430.63 104.367)">
        <path id="Path_159-4" data-name="Path 159" d="M430.829,73.05a1.955,1.955,0,0,1-.883-3.7l2.6-1.313-1.956-2.16a1.952,1.952,0,0,1,.567-3.057l2.6-1.317L431.8,59.34a1.955,1.955,0,0,1,2.9-2.623l3.674,4.063a1.953,1.953,0,0,1-.567,3.055l-2.6,1.317,1.956,2.164a1.95,1.95,0,0,1-.567,3.055l-4.89,2.47A1.937,1.937,0,0,1,430.829,73.05Z" transform="translate(-428.871 -56.074)" fill="#fff"/>
      </g>
    </g>
  </g>
</svg>
