<svg xmlns="http://www.w3.org/2000/svg" width="41.038" height="41.051" viewBox="0 0 41.038 41.051">
  <g id="hand" transform="translate(-0.501)">
    <path id="Path_422" data-name="Path 422" d="M220.093,331.563a.8.8,0,1,0-1.134,0A.8.8,0,0,0,220.093,331.563Zm0,0" transform="translate(-200.727 -303.72)" fill="#be2623"/>
    <path id="Path_423" data-name="Path 423" d="M188.449,8.817A8.817,8.817,0,1,0,197.266,0,8.827,8.827,0,0,0,188.449,8.817Zm16.031,0A7.214,7.214,0,1,1,197.266,1.6,7.222,7.222,0,0,1,204.48,8.817Zm0,0" transform="translate(-172.879)" fill="#be2623"/>
    <path id="Path_424" data-name="Path 424" d="M9.734,236.109a.8.8,0,0,0,1.131.007l3.886-3.828a2.422,2.422,0,0,0,.571-2.487l.836-.806a2.39,2.39,0,0,1,1.669-.674H28.482a7.177,7.177,0,0,0,5.032-2.044c.056-.054-.423.51,7.27-8.684A3.206,3.206,0,0,0,35.9,213.43l-4.73,4.861a3.221,3.221,0,0,0-2.492-1.193H19.745a10.341,10.341,0,0,0-4.014-.8,9.917,9.917,0,0,0-9.039,5.125,2.394,2.394,0,0,0-2.144.664L.735,225.91a.8.8,0,0,0,0,1.131Zm6-18.21a8.75,8.75,0,0,1,3.529.734.8.8,0,0,0,.321.067h9.1a1.6,1.6,0,1,1,0,3.206h-6.54a.8.8,0,1,0,0,1.6h6.54a3.2,3.2,0,0,0,3.178-3.625c4.575-4.7,5.221-5.364,5.248-5.4a1.6,1.6,0,1,1,2.448,2.071l-7.189,8.595a5.581,5.581,0,0,1-3.885,1.563H17.827a3.985,3.985,0,0,0-2.782,1.124l-.681.657-6.28-6.279A8.276,8.276,0,0,1,15.73,217.9ZM5.683,223.219a.8.8,0,0,1,.993-.113c.139.085-.26-.278,6.943,6.914a.8.8,0,0,1,0,1.13l-3.313,3.264-7.876-7.936Zm0,0" transform="translate(0 -195.296)" fill="#be2623"/>
    <path id="Path_425" data-name="Path 425" d="M267.441,40.79v.939a2.4,2.4,0,0,0,.8,4.672.8.8,0,0,1,0,1.6A1.45,1.45,0,0,1,267.2,47.4a.8.8,0,0,0-1.227,1.032,3.325,3.325,0,0,0,1.466,1.044v.936a.8.8,0,1,0,1.6,0v-.939a2.4,2.4,0,0,0-.8-4.672.8.8,0,0,1,0-1.6,1.287,1.287,0,0,1,.867.419.8.8,0,0,0,1.115-1.152,3.1,3.1,0,0,0-1.18-.738V40.79a.8.8,0,1,0-1.6,0Zm0,0" transform="translate(-244.016 -36.782)" fill="#be2623"/>
  </g>
</svg>
