<svg xmlns="http://www.w3.org/2000/svg" width="23.256" height="18.605" viewBox="0 0 23.256 18.605">
  <path id="Icon_awesome-eye-slash" data-name="Icon awesome-eye-slash" d="M11.628,14.535A5.213,5.213,0,0,1,6.435,9.7L2.624,6.752a12.111,12.111,0,0,0-1.334,2.02,1.176,1.176,0,0,0,0,1.061,11.655,11.655,0,0,0,10.339,6.446,11.287,11.287,0,0,0,2.83-.38L12.573,14.44a5.237,5.237,0,0,1-.945.095Zm11.4,2.111-4.017-3.1a12.037,12.037,0,0,0,2.952-3.709,1.175,1.175,0,0,0,0-1.061A11.655,11.655,0,0,0,11.628,2.325,11.2,11.2,0,0,0,6.275,3.7L1.652.122a.581.581,0,0,0-.816.1l-.713.918a.581.581,0,0,0,.1.816L21.6,18.482a.581.581,0,0,0,.816-.1l.714-.918a.581.581,0,0,0-.1-.816Zm-6.676-5.16-1.428-1.1a3.443,3.443,0,0,0-4.219-4.431,1.731,1.731,0,0,1,.338,1.025,1.7,1.7,0,0,1-.056.363L8.316,5.273a5.171,5.171,0,0,1,3.312-1.2A5.23,5.23,0,0,1,16.86,9.3a5.108,5.108,0,0,1-.505,2.184Z" transform="translate(0 0)"/>
</svg>
