<svg xmlns="http://www.w3.org/2000/svg" width="18.07" height="18" viewBox="0 0 18.07 18">
  <g id="import" transform="translate(0 -0.117)">
    <path id="Path_448" data-name="Path 448" d="M14.7,16.464h-3v1.78h3c.892,0,1.585.455,1.585.848v7.894c0,.392-.692.848-1.585.848H3.365c-.892,0-1.584-.456-1.584-.848V19.093c0-.392.692-.848,1.584-.848h3v-1.78h-3C1.478,16.465,0,17.619,0,19.093v7.894c0,1.474,1.478,2.628,3.365,2.628H14.705c1.886,0,3.365-1.154,3.365-2.628V19.093C18.069,17.618,16.591,16.464,14.7,16.464Z" transform="translate(0 -11.497)"/>
    <path id="Path_449" data-name="Path 449" d="M24.79,8.688a.887.887,0,0,0-.629.261l-1.114,1.114V1.007a.89.89,0,1,0-1.78,0v9.116L20.091,8.948a.89.89,0,0,0-1.259,1.258l2.657,2.657a.887.887,0,0,0,.629.26h.013a.886.886,0,0,0,.629-.26l2.657-2.657a.89.89,0,0,0-.629-1.519Z" transform="translate(-13.062)"/>
  </g>
</svg>
