<svg xmlns="http://www.w3.org/2000/svg" width="12.363" height="12.363" viewBox="0 0 12.363 12.363">
  <path id="Path_453" data-name="Path 453" d="M6.181,0a6.182,6.182,0,1,0,6.182,6.181A6.182,6.182,0,0,0,6.181,0ZM7.468,9.58q-.477.188-.761.287a2.009,2.009,0,0,1-.66.1,1.316,1.316,0,0,1-.9-.282.91.91,0,0,1-.32-.715,2.6,2.6,0,0,1,.024-.345c.016-.117.042-.249.077-.4l.4-1.407c.035-.135.065-.263.089-.383a1.7,1.7,0,0,0,.036-.331.51.51,0,0,0-.111-.375.63.63,0,0,0-.425-.105,1.117,1.117,0,0,0-.317.047c-.107.033-.2.063-.277.092l.105-.433q.391-.159.748-.273a2.211,2.211,0,0,1,.675-.114,1.292,1.292,0,0,1,.885.277.921.921,0,0,1,.311.72q0,.092-.021.323a2.161,2.161,0,0,1-.08.424l-.4,1.4c-.032.113-.061.241-.087.385a2.037,2.037,0,0,0-.038.328.471.471,0,0,0,.125.381.7.7,0,0,0,.433.1,1.255,1.255,0,0,0,.328-.051,1.863,1.863,0,0,0,.265-.089ZM7.4,3.888a.945.945,0,0,1-.667.257.955.955,0,0,1-.67-.257.822.822,0,0,1-.279-.624.83.83,0,0,1,.279-.626.948.948,0,0,1,.67-.26.938.938,0,0,1,.667.26.843.843,0,0,1,0,1.25Z" fill="#030104"/>
</svg>
