<svg xmlns="http://www.w3.org/2000/svg" width="28.214" height="32.244" viewBox="0 0 28.214 32.244">
  <path id="invoices" d="M42.427,11.017a7.053,7.053,0,1,0,7.053-7.053A7.061,7.061,0,0,0,42.427,11.017Zm13.032,0a5.979,5.979,0,1,1-5.979-5.979A5.985,5.985,0,0,1,55.459,11.017ZM49.481,7.389a.537.537,0,0,1,.537.537v.227a1.615,1.615,0,0,1,1.075,1.52.537.537,0,1,1-1.075,0,.537.537,0,0,0-1.075,0v.217a.535.535,0,0,0,.377.513l.641.2a1.605,1.605,0,0,1,1.131,1.539v.217a1.615,1.615,0,0,1-1.276,1.577v.17a.537.537,0,1,1-1.075,0v-.314a1.613,1.613,0,0,1-.873-1.432.537.537,0,0,1,1.075,0,.537.537,0,1,0,1.075,0v-.217a.535.535,0,0,0-.377-.513L49,11.43a1.605,1.605,0,0,1-1.131-1.539V9.673a1.615,1.615,0,0,1,1.075-1.52V7.927A.537.537,0,0,1,49.481,7.389ZM58.214,21.63v6.852a3.766,3.766,0,0,1-3.762,3.762H33.762A3.766,3.766,0,0,1,30,28.482V2.15A2.152,2.152,0,0,1,32.15,0H49.615a2.152,2.152,0,0,1,2.15,2.15.537.537,0,0,1-1.075,0,1.076,1.076,0,0,0-1.075-1.075H32.15A1.076,1.076,0,0,0,31.075,2.15V28.482a2.69,2.69,0,0,0,2.687,2.687H51.823a3.75,3.75,0,0,1-1.133-2.687v-8.4a.537.537,0,1,1,1.075,0v8.4a2.687,2.687,0,0,0,5.374,0V21.63a1.076,1.076,0,0,0-1.075-1.075H53.78a.537.537,0,0,1,0-1.075h2.284A2.152,2.152,0,0,1,58.214,21.63ZM34.7,14.443a.537.537,0,0,1,.537-.537h4.568a.537.537,0,0,1,0,1.075H35.24A.537.537,0,0,1,34.7,14.443Zm0-6.046a.537.537,0,0,1,.537-.537h4.568a.537.537,0,0,1,0,1.075H35.24A.537.537,0,0,1,34.7,8.4Zm12.36,12.092a.537.537,0,0,1-.537.537H35.24a.537.537,0,1,1,0-1.075H46.525A.537.537,0,0,1,47.063,20.488Zm0,5.643a.537.537,0,0,1-.537.537H35.24a.537.537,0,1,1,0-1.075H46.525A.537.537,0,0,1,47.063,26.131Z" transform="translate(-30)" fill="#be2623"/>
</svg>
