<svg xmlns="http://www.w3.org/2000/svg" width="162.34" height="119.784" viewBox="0 0 162.34 119.784">
  <g id="check_6_" data-name="check (6)" transform="translate(0 -67.108)">
    <path id="Path_479" data-name="Path 479" d="M137.335,67.108,63.824,140.619a5.074,5.074,0,0,1-7.175,0L25,108.975l-25,25,47.734,47.735a17.681,17.681,0,0,0,12.5,5.179h0a17.682,17.682,0,0,0,12.5-5.179l89.6-89.6Z" fill="#a5eb78"/>
    <g id="Group_2710" data-name="Group 2710" transform="translate(50.016 83.843)" opacity="0.1">
      <path id="Path_480" data-name="Path 480" d="M261.8,119.888,167.207,214.48a19.355,19.355,0,0,1-9.464,5.2,17.678,17.678,0,0,0,10.221,3.259h0a17.682,17.682,0,0,0,12.5-5.179l89.6-89.6Z" transform="translate(-157.743 -119.889)"/>
    </g>
  </g>
</svg>
