<svg xmlns="http://www.w3.org/2000/svg" width="24.597" height="24.598" viewBox="0 0 24.597 24.598">
  <g id="marketing-icon" transform="translate(-1.001 -0.999)" opacity="0.5">
    <path id="Path_137" data-name="Path 137" d="M43.777,32.554A2.777,2.777,0,1,0,41,29.777,2.78,2.78,0,0,0,43.777,32.554Zm0-4.761a1.984,1.984,0,1,1-1.984,1.984A1.986,1.986,0,0,1,43.777,27.793Z" transform="translate(-24.13 -15.686)"/>
    <path id="Path_138" data-name="Path 138" d="M46.19,33.38A1.19,1.19,0,1,0,45,32.19,1.192,1.192,0,0,0,46.19,33.38Zm0-1.587a.4.4,0,1,1-.4.4A.4.4,0,0,1,46.19,31.793Z" transform="translate(-26.543 -18.099)"/>
    <path id="Path_139" data-name="Path 139" d="M15.941,12.06a2.777,2.777,0,1,0-3.154,0A4.367,4.367,0,0,0,10,16.125v1.19h8.728v-1.19A4.367,4.367,0,0,0,15.941,12.06ZM12.38,9.777a1.984,1.984,0,1,1,1.984,1.984A1.986,1.986,0,0,1,12.38,9.777Zm5.554,6.744h-1.19v-2.38h-.793v2.38H12.777v-2.38h-.793v2.38h-1.19v-.4a3.571,3.571,0,0,1,7.141,0Z" transform="translate(-5.429 -3.62)"/>
    <path id="Path_140" data-name="Path 140" d="M22.587,18.446l1.768-1.768-.508-.847.959-.24v-3l-.959-.239.508-.847L22.233,9.384l-.847.508-.239-.959h-3l-.239.959-.847-.508-.223.223c.018-.224.031-.448.031-.673A7.935,7.935,0,1,0,3.939,15.1a2.685,2.685,0,0,1,.256.251,1.179,1.179,0,0,0-.505,1.917,1.185,1.185,0,0,0,.881,1.984h.42a3.575,3.575,0,0,0,3.547,3.174h.793a3.575,3.575,0,0,0,3.547-3.174h.42a1.185,1.185,0,0,0,.881-1.984,1.179,1.179,0,0,0-.512-1.919,2.414,2.414,0,0,1,.214-.209,8.016,8.016,0,0,0,.608-.547v1l.959.239-.508.847,1.768,1.768A5.933,5.933,0,0,0,13.7,23.613V25.6H25.6V23.613a5.932,5.932,0,0,0-3.012-5.167ZM9.332,21.629H8.539a2.779,2.779,0,0,1-2.745-2.38h6.284A2.779,2.779,0,0,1,9.332,21.629ZM13.3,18.456H4.571a.4.4,0,0,1,0-.793H13.3a.4.4,0,0,1,0,.793Zm0-1.587H4.571a.4.4,0,1,1,0-.793H13.3a.4.4,0,1,1,0,.793Zm.088-2.352a3.263,3.263,0,0,0-.689.765H5.159a3.535,3.535,0,0,0-.72-.8,7.143,7.143,0,1,1,11.45-3.925l-.949.949.508.847-.958.24v.82A7.189,7.189,0,0,1,13.387,14.517Zm2.868.7-.972-.243V13.211l.97-.242.2-.485-.514-.856,1.245-1.245.856.514.485-.2.242-.97h1.761l.242.97.485.2.856-.514,1.245,1.245-.514.856.2.485.97.242v1.761l-.97.242-.2.484.514.857-1.06,1.06-1.1-.3-.426.174-.242.97H18.767l-.242-.97-.426-.174-1.1.3-1.06-1.06.514-.857Zm3.768,6.668-.376.376-.376-.376.329-2.634h.093ZM24.8,24.8h-1.19V21.629h-.793V24.8H16.473V21.629H15.68V24.8H14.49v-1.19a5.143,5.143,0,0,1,3.527-4.886l.131.522H18.8l-.365,2.92,1.211,1.211,1.211-1.211-.365-2.92h.654l.13-.522A5.143,5.143,0,0,1,24.8,23.613Z" transform="translate(0 0)"/>
    <path id="Path_141" data-name="Path 141" d="M49.744,17.38a1.19,1.19,0,1,0-1.117-1.587H43v.793h5.627A1.189,1.189,0,0,0,49.744,17.38Zm0-1.587a.4.4,0,1,1-.4.4A.4.4,0,0,1,49.744,15.793Z" transform="translate(-25.336 -8.446)"/>
    <path id="Path_142" data-name="Path 142" d="M44,9h.793v.793H44Z" transform="translate(-25.94 -4.827)"/>
    <path id="Path_143" data-name="Path 143" d="M40,9h.793v.793H40Z" transform="translate(-23.527 -4.827)"/>
    <path id="Path_144" data-name="Path 144" d="M51.174,9.38a1.19,1.19,0,1,0-1.117-1.587H48v.793h2.057A1.189,1.189,0,0,0,51.174,9.38Zm0-1.587a.4.4,0,1,1-.4.4A.4.4,0,0,1,51.174,7.793Z" transform="translate(-28.353 -3.62)"/>
    <path id="Path_145" data-name="Path 145" d="M5.848,22.2l-.791.067a6.421,6.421,0,0,0,.127.836l.775-.172A5.574,5.574,0,0,1,5.848,22.2Z" transform="translate(-2.447 -12.788)"/>
    <path id="Path_146" data-name="Path 146" d="M5.978,26.1a6.3,6.3,0,0,0,.344.773l.7-.371a5.441,5.441,0,0,1-.3-.675Z" transform="translate(-3.002 -14.98)"/>
    <path id="Path_147" data-name="Path 147" d="M5.894,18.261l-.781-.142a6.378,6.378,0,0,0-.1.84L5.811,19A5.535,5.535,0,0,1,5.894,18.261Z" transform="translate(-2.423 -10.328)"/>
    <path id="Path_148" data-name="Path 148" d="M34.494,15.852a6.333,6.333,0,0,0-.977-3.386l-.671.424a5.563,5.563,0,0,1,.214,5.554l.7.371A6.367,6.367,0,0,0,34.494,15.852Z" transform="translate(-19.211 -6.918)"/>
    <path id="Path_149" data-name="Path 149" d="M29.877,8.2l-.476.635a5.6,5.6,0,0,1,.807.741l.591-.529A6.4,6.4,0,0,0,29.877,8.2Z" transform="translate(-17.133 -4.344)"/>
  </g>
</svg>
