<svg id="meetings-icon" xmlns="http://www.w3.org/2000/svg" width="17.496" height="17.496" viewBox="0 0 17.496 17.496">
  <g id="Group_2447" data-name="Group 2447" transform="translate(4.374)">
    <path id="Path_347" data-name="Path 347" d="M10.374,7.29H10.36a.367.367,0,0,1-.278-.146L9.1,5.832h-2A1.1,1.1,0,0,1,6,4.739V1.094A1.1,1.1,0,0,1,7.094,0h6.561a1.1,1.1,0,0,1,1.094,1.094V4.739a1.1,1.1,0,0,1-1.094,1.094H11.815L10.648,7.165A.363.363,0,0,1,10.374,7.29ZM7.094.729a.365.365,0,0,0-.365.365V4.739a.365.365,0,0,0,.365.365H9.281a.364.364,0,0,1,.292.146l.824,1.1.98-1.12A.365.365,0,0,1,11.65,5.1h2a.365.365,0,0,0,.365-.365V1.094a.365.365,0,0,0-.365-.365Z" transform="translate(-6)"/>
  </g>
  <g id="Group_2448" data-name="Group 2448" transform="translate(13.64 0.729)">
    <path id="Path_348" data-name="Path 348" d="M19.65,8.29h-.015a.364.364,0,0,1-.278-.147l-.576-.773a.365.365,0,1,1,.585-.436l.306.411.978-1.118a.366.366,0,0,1,.275-.125h.547a.365.365,0,0,0,.365-.365V2.094a.365.365,0,0,0-.365-.365H20.015a.365.365,0,0,1,0-.729h1.458a1.1,1.1,0,0,1,1.094,1.094V5.739a1.1,1.1,0,0,1-1.094,1.094h-.381L19.925,8.165a.363.363,0,0,1-.274.125Z" transform="translate(-18.71 -1)"/>
  </g>
  <g id="Group_2449" data-name="Group 2449" transform="translate(0 0.729)">
    <path id="Path_349" data-name="Path 349" d="M2.916,8.29a.363.363,0,0,1-.274-.125L1.475,6.832H1.094A1.1,1.1,0,0,1,0,5.739V2.094A1.1,1.1,0,0,1,1.094,1H2.552a.365.365,0,0,1,0,.729H1.094a.365.365,0,0,0-.365.365V5.739a.365.365,0,0,0,.365.365H1.64a.363.363,0,0,1,.274.125l.978,1.118L3.2,6.935a.365.365,0,1,1,.585.436l-.576.773a.363.363,0,0,1-.277.147H2.916Z" transform="translate(0 -1)"/>
  </g>
  <g id="Group_2450" data-name="Group 2450" transform="translate(13.122 9.477)">
    <path id="Path_350" data-name="Path 350" d="M19.458,15.916a1.458,1.458,0,1,1,1.458-1.458A1.459,1.459,0,0,1,19.458,15.916Zm0-2.187a.729.729,0,1,0,.729.729A.73.73,0,0,0,19.458,13.729Z" transform="translate(-18 -13)"/>
  </g>
  <g id="Group_2451" data-name="Group 2451" transform="translate(13.122 13.122)">
    <path id="Path_351" data-name="Path 351" d="M22.01,20.916a.365.365,0,0,1-.365-.365v-.729a1.1,1.1,0,0,0-1.094-1.094H18.365a.365.365,0,0,1,0-.729h2.187a1.825,1.825,0,0,1,1.823,1.823v.729A.365.365,0,0,1,22.01,20.916Z" transform="translate(-18 -18)"/>
  </g>
  <g id="Group_2452" data-name="Group 2452" transform="translate(1.458 9.477)">
    <path id="Path_352" data-name="Path 352" d="M3.458,15.916a1.458,1.458,0,1,1,1.458-1.458A1.459,1.459,0,0,1,3.458,15.916Zm0-2.187a.729.729,0,1,0,.729.729A.73.73,0,0,0,3.458,13.729Z" transform="translate(-2 -13)"/>
  </g>
  <g id="Group_2453" data-name="Group 2453" transform="translate(0 13.122)">
    <path id="Path_353" data-name="Path 353" d="M.365,20.916A.365.365,0,0,1,0,20.552v-.729A1.825,1.825,0,0,1,1.823,18H4.01a.365.365,0,0,1,0,.729H1.823A1.1,1.1,0,0,0,.729,19.823v.729A.365.365,0,0,1,.365,20.916Z" transform="translate(0 -18)"/>
  </g>
  <g id="Group_2454" data-name="Group 2454" transform="translate(6.561 8.384)">
    <path id="Path_354" data-name="Path 354" d="M11.187,15.874a2.187,2.187,0,1,1,2.187-2.187A2.19,2.19,0,0,1,11.187,15.874Zm0-3.645a1.458,1.458,0,1,0,1.458,1.458A1.459,1.459,0,0,0,11.187,12.229Z" transform="translate(-9 -11.5)"/>
  </g>
  <g id="Group_2455" data-name="Group 2455" transform="translate(4.739 13.851)">
    <path id="Path_355" data-name="Path 355" d="M14.155,22.645a.365.365,0,0,1-.365-.365V20.823A1.1,1.1,0,0,0,12.7,19.729H8.323a1.1,1.1,0,0,0-1.094,1.094v1.458a.365.365,0,0,1-.729,0V20.823A1.825,1.825,0,0,1,8.323,19H12.7a1.825,1.825,0,0,1,1.823,1.823v1.458A.365.365,0,0,1,14.155,22.645Z" transform="translate(-6.5 -19)"/>
  </g>
</svg>
