<svg xmlns="http://www.w3.org/2000/svg" width="21.837" height="32.857" viewBox="0 0 21.837 32.857">
  <g id="money_2_" data-name="money (2)" transform="translate(-85.864)">
    <path id="Path_387" data-name="Path 387" d="M85.864,0,91.64,19.316H87.224l9.559,13.541,9.559-13.541h-4.416L107.7,0Zm16.762,21.241-5.843,8.278-5.843-8.278h3.285L88.449,1.925h16.667L99.34,21.241Z" fill="#be2623"/>
    <path id="Path_388" data-name="Path 388" d="M214.118,64.9c-1.065-.256-1.187-.358-1.187-.989a.963.963,0,1,1,1.925,0h1.925a2.892,2.892,0,0,0-1.925-2.722V60H212.93v1.192a2.892,2.892,0,0,0-1.925,2.722c0,2.222,1.667,2.622,2.663,2.861,1.065.256,1.187.358,1.187.989a.963.963,0,1,1-1.925,0h-1.925a2.892,2.892,0,0,0,1.925,2.722v1.128h1.925V70.487a2.892,2.892,0,0,0,1.925-2.722C216.781,65.543,215.114,65.143,214.118,64.9Z" transform="translate(-117.11 -56.15)" fill="#be2623"/>
  </g>
</svg>
