<svg xmlns="http://www.w3.org/2000/svg" width="47.928" height="30.432" viewBox="0 0 47.928 30.432">
  <g id="group_3_" data-name="group (3)" transform="translate(0 -92.25)">
    <g id="Group_2650" data-name="Group 2650" transform="translate(0 92.25)">
      <path id="Path_384" data-name="Path 384" d="M41.451,105.64a5.472,5.472,0,1,0-6.278,0,9.481,9.481,0,0,0-3.234,1.9,12.268,12.268,0,0,0-4.438-2.418,6.932,6.932,0,1,0-7.169,0,12.37,12.37,0,0,0-4.391,2.39,9.558,9.558,0,0,0-3.2-1.859,5.472,5.472,0,1,0-6.278,0A9.6,9.6,0,0,0,0,114.725v.626a.041.041,0,0,0,.038.038h11.6a12.755,12.755,0,0,0-.1,1.6v.645a5.043,5.043,0,0,0,5.045,5.045h14.7a5.043,5.043,0,0,0,5.045-5.045v-.645a12.754,12.754,0,0,0-.1-1.6H47.89a.041.041,0,0,0,.038-.038v-.626A9.642,9.642,0,0,0,41.451,105.64Zm-7.093-4.486a3.954,3.954,0,1,1,4.03,3.954h-.152A3.949,3.949,0,0,1,34.358,101.155ZM18.483,99.182a5.415,5.415,0,1,1,5.728,5.405h-.626A5.423,5.423,0,0,1,18.483,99.182ZM5.624,101.155a3.954,3.954,0,1,1,4.03,3.954H9.5A3.955,3.955,0,0,1,5.624,101.155ZM11.9,113.862H1.536a8.1,8.1,0,0,1,7.985-7.236h.114a8.018,8.018,0,0,1,5.168,1.925A12.451,12.451,0,0,0,11.9,113.862Zm22.883,3.774a3.533,3.533,0,0,1-3.528,3.528h-14.7a3.533,3.533,0,0,1-3.528-3.528v-.645a10.893,10.893,0,0,1,10.555-10.877c.1.009.218.009.322.009s.218,0,.322-.009a10.893,10.893,0,0,1,10.555,10.877Zm1.129-3.774a12.419,12.419,0,0,0-2.873-5.273,8.057,8.057,0,0,1,5.216-1.963h.114a8.1,8.1,0,0,1,7.985,7.236Z" transform="translate(0 -92.25)" fill="#be2623"/>
    </g>
  </g>
</svg>
