<svg xmlns="http://www.w3.org/2000/svg" width="222.696" height="145.919" viewBox="0 0 222.696 145.919">
  <g id="No_data-cuate" data-name="No data-cuate" transform="translate(-65.62 -55.73)">
    <g id="freepik--background-complete--inject-97" transform="translate(65.62 55.73)">
      <path id="Path_538" data-name="Path 538" d="M590.8,118.694l-3.483,16.867-2.242-2.187-3.814,2.722-2.915-3.621-6.536,4.753-5.586-9.341-6.23,3.65-2.471-3.406-7.911,4.458-2.38-5.1,5.546-26.86,29.731,6.139Z" transform="translate(-371.969 -84.291)" fill="#ebebeb"/>
      <path id="Path_539" data-name="Path 539" d="M640.633,117.5l8.29,11.925L638.61,127.3Z" transform="translate(-430.096 -95.022)" fill="#dbdbdb"/>
      <path id="Path_540" data-name="Path 540" d="M576.414,191.778l-5.106,24.746-40.048-8.268,5.069-24.545,2.38,5.095,7.915-4.458,2.467,3.406,6.234-3.646,5.582,9.341,6.539-4.753,2.911,3.617,3.817-2.718Z" transform="translate(-361.811 -137.137)" fill="#ebebeb"/>
      <path id="Path_541" data-name="Path 541" d="M420.824,107.47,380.012,110,376.77,57.608l30.306-1.878L418.2,65.064Z" transform="translate(-263.541 -55.73)" fill="#ebebeb"/>
      <path id="Path_542" data-name="Path 542" d="M460.05,55.73l11.125,9.334-10.51.651Z" transform="translate(-316.515 -55.73)" fill="#dbdbdb"/>
      <path id="Path_543" data-name="Path 543" d="M419.789,112.932l-.16-1.183c-.411-2.449.258-5.189,2.387-8.053,1.921-2.547,2.962-4.367,2.846-6.434-.131-2.329-1.678-3.8-4.556-3.683a8.119,8.119,0,0,0-4.531,1.674L414.52,92.44a11.915,11.915,0,0,1,6.423-2.183c5.251-.291,7.806,2.817,8.006,6.285.175,3.1-1.434,5.437-3.479,8.162-1.878,2.486-2.493,4.534-2.227,6.852l.113,1.186Zm-.648,6.445a2.7,2.7,0,0,1,2.576-3.028,2.859,2.859,0,1,1-2.591,3.028Z" transform="translate(-287.553 -77.68)" fill="#dbdbdb"/>
      <path id="Path_544" data-name="Path 544" d="M124.957,124.86l-4.1-1.86-.571,1.255a1.092,1.092,0,0,1-.935.626,5.263,5.263,0,0,0-.673.065,1.092,1.092,0,0,1-1.037-.429l-.8-1.124-3.665,2.627.8,1.124a1.092,1.092,0,0,1,.073,1.117,6.652,6.652,0,0,0-.28.615,1.092,1.092,0,0,1-.892.688l-1.372.135.44,4.487,1.379-.138a1.092,1.092,0,0,1,1.008.5c.058.095.12.186.186.277s.131.178.2.266a1.07,1.07,0,0,1,.153,1.11l-.575,1.266,4.108,1.863.571-1.263a1.092,1.092,0,0,1,.939-.622,5.89,5.89,0,0,0,.666-.066,1.092,1.092,0,0,1,1.037.429l.8,1.124,3.668-2.627-.8-1.124a1.059,1.059,0,0,1-.073-1.117,6.534,6.534,0,0,0,.273-.611,1.07,1.07,0,0,1,.892-.688l1.379-.138-.444-4.487-1.379.135a1.07,1.07,0,0,1-1-.5c-.062-.095-.124-.186-.189-.277s-.131-.182-.2-.266a1.092,1.092,0,0,1-.153-1.117Zm-2.329,4.152a3.694,3.694,0,1,1-5.153-.852A3.694,3.694,0,0,1,122.628,129.012Z" transform="translate(-94.804 -98.52)" fill="#ebebeb"/>
      <path id="Path_545" data-name="Path 545" d="M651.141,291.71l-2.737,1.579.484.837a.727.727,0,0,1-.025.79c-.084.131-.164.266-.237.408a.728.728,0,0,1-.666.415H647V298.9h.968a.728.728,0,0,1,.666.415c.073.142.153.277.237.408a.728.728,0,0,1,.026.79l-.484.837,2.737,1.579.488-.841a.746.746,0,0,1,.7-.364h.466a.75.75,0,0,1,.7.364l.488.844,2.733-1.579-.484-.841a.746.746,0,0,1,.029-.786c.084-.131.164-.269.237-.408a.728.728,0,0,1,.666-.415h.968v-3.162h-.975a.728.728,0,0,1-.666-.415c-.073-.138-.153-.277-.237-.408a.746.746,0,0,1-.029-.786l.484-.841-2.733-1.579-.488.83a.746.746,0,0,1-.7.364h-.466a.757.757,0,0,1-.7-.364Zm1.416,3.02a2.581,2.581,0,1,1-1.831.755,2.591,2.591,0,0,1,1.831-.755Z" transform="translate(-435.432 -205.836)" fill="#ebebeb"/>
      <path id="Path_546" data-name="Path 546" d="M165,90.556,162.5,92.477l.579.768a.728.728,0,0,1,.076.782,3.815,3.815,0,0,0-.182.437.746.746,0,0,1-.608.5l-.961.124.408,3.133.961-.124a.75.75,0,0,1,.728.328,4.074,4.074,0,0,0,.284.364.728.728,0,0,1,.131.775l-.364.9,2.911,1.212.364-.9a.746.746,0,0,1,.644-.455l.233-.025.229-.036a.75.75,0,0,1,.728.273l.593.775,2.507-1.921-.586-.768a.75.75,0,0,1-.076-.786,4.034,4.034,0,0,0,.182-.433.746.746,0,0,1,.608-.5l.961-.124-.408-3.133-.961.124a.75.75,0,0,1-.728-.324,3.243,3.243,0,0,0-.287-.364.753.753,0,0,1-.109-.761l.364-.9L167.8,90.21l-.364.9a.753.753,0,0,1-.644.455l-.233.022-.215.007a.75.75,0,0,1-.728-.273Zm1.794,2.813a2.587,2.587,0,1,1-1.723.991,2.587,2.587,0,0,1,1.723-.991Z" transform="translate(-126.545 -77.663)" fill="#ebebeb"/>
      <path id="Path_547" data-name="Path 547" d="M107.766,239.93a100.3,100.3,0,0,0-.146-10.553,134.928,134.928,0,0,0-3.308-21.529c-.924-3.981-2.06-7.9-3.246-11.809-.036-.12-.226-.087-.193.036,3.665,13.792,6.67,28.021,6.463,42.359-.058,4-.524,7.951-.9,11.94,0,.106.164.149.189.04A60.451,60.451,0,0,0,107.766,239.93Z" transform="translate(-88.042 -144.932)" fill="#ebebeb"/>
      <path id="Path_548" data-name="Path 548" d="M93.039,196.24s-5.546,14.083-4.305,17.38a6.346,6.346,0,0,0,3.8,4s-3.4,4.847-1.023,9.392,7.642,4.33,8.006,9.483C99.509,236.524,99.8,214.977,93.039,196.24Z" transform="translate(-80.207 -145.108)" fill="#ebebeb"/>
      <path id="Path_549" data-name="Path 549" d="M105.375,232.814a.1.1,0,0,0,0-.073A128.937,128.937,0,0,0,100,204.411c0-.025-.055-.018-.047,0q1.649,6.186,2.911,12.424a6.139,6.139,0,0,0-2.649-1.477s-.029.022,0,.029a7.042,7.042,0,0,1,2.737,1.82c.16.819.32,1.634.469,2.453a11.359,11.359,0,0,0-4.68-2.729.022.022,0,0,0,0,.04,11.261,11.261,0,0,1,4.793,3.213q.633,3.5,1.114,7.034a6.707,6.707,0,0,0-3.308-1.9c-.04,0-.062.047-.022.058a6.972,6.972,0,0,1,3.333,2.162h.022q.164,1.237.313,2.486a8.5,8.5,0,0,0-2.318-1.4c-.022,0-.036.025,0,.033a7.965,7.965,0,0,1,2.325,1.539h.029c.091.79.182,1.579.262,2.369a11.281,11.281,0,0,0-4.705-3.362.029.029,0,0,0,0,.058,12.256,12.256,0,0,1,4.636,3.57.109.109,0,0,0,.116.036c.12,1.212.229,2.424.317,3.639a.015.015,0,0,0,.029,0Q105.531,234.681,105.375,232.814Z" transform="translate(-86.677 -150.295)" fill="#fff"/>
      <path id="Path_550" data-name="Path 550" d="M98.885,228.891a6.947,6.947,0,0,0-3.333-1.041.022.022,0,0,0,0,.044,13.158,13.158,0,0,1,3.3,1.092C98.892,229,98.925,228.92,98.885,228.891Z" transform="translate(-84.646 -165.215)" fill="#fff"/>
      <path id="Path_551" data-name="Path 551" d="M102.183,270.185a6.936,6.936,0,0,0-2.5-.855c-.029,0-.033.04,0,.047a9.48,9.48,0,0,1,2.475.866C102.187,270.262,102.216,270.2,102.183,270.185Z" transform="translate(-87.27 -191.6)" fill="#fff"/>
      <path id="Path_552" data-name="Path 552" d="M134.923,244.623a37.74,37.74,0,0,0-6.423,5.611,23,23,0,0,0-4.5,7.642,57.108,57.108,0,0,0-3.355,18.268,44.514,44.514,0,0,0,.986,10.273.1.1,0,0,0,.193-.036,57.715,57.715,0,0,1,.1-17.959c.953-5.822,2.449-12.162,6.154-16.9a46.678,46.678,0,0,1,7.016-6.7C135.225,244.707,135.058,244.529,134.923,244.623Z" transform="translate(-100.614 -175.867)" fill="#ebebeb"/>
      <path id="Path_553" data-name="Path 553" d="M122.9,271.464a34.57,34.57,0,0,1,4.68-5.983c2.777-2.777,5.113-4.749,5.477-6.583s-2.78-3.188-2.78-3.188,3.839.691,4.891-.921,1.558-10.95,1.558-10.95-6.987,4.989-10.244,11.983S122.9,271.464,122.9,271.464Z" transform="translate(-102.055 -175.386)" fill="#ebebeb"/>
      <path id="Path_554" data-name="Path 554" d="M134.258,250.358c-2.94,2.886-5.9,5.964-7.642,9.76a37.42,37.42,0,0,0-1.547,4.021h0c-.087.277-.178.553-.262.83a.069.069,0,0,0,0,.044,79.428,79.428,0,0,0-1.987,8.628c0,.018.025.025.029,0,.3-1.456.633-2.911,1-4.392a.1.1,0,0,0,.044,0,6.237,6.237,0,0,1,1.82-.466c.04,0,.036-.076,0-.073a6.832,6.832,0,0,0-1.82.331c.338-1.321.706-2.642,1.121-3.941a19.411,19.411,0,0,1,4.145-.542v-.022a15.647,15.647,0,0,0-4.076.346c.073-.222.149-.444.222-.666a21.5,21.5,0,0,1,2.758-.469v-.029a13.467,13.467,0,0,0-2.7.328c.364-1.124.79-2.234,1.245-3.312a20.016,20.016,0,0,1,1.321-2.547,16.562,16.562,0,0,1,2.238-.4v-.036a6.067,6.067,0,0,0-2.092.207c.364-.593.753-1.175,1.168-1.739h0a11.766,11.766,0,0,1,4.76-.364.026.026,0,0,0,0-.047,9.992,9.992,0,0,0-4.556.127c.164-.218.335-.437.506-.651a10.345,10.345,0,0,1,2.911-.462v-.033a7.674,7.674,0,0,0-2.729.244c1.3-1.608,2.726-3.122,4.141-4.618C134.378,250.329,134.327,250.289,134.258,250.358Z" transform="translate(-102.005 -179.51)" fill="#fff"/>
      <path id="Path_555" data-name="Path 555" d="M151.5,267.793a6.131,6.131,0,0,0-1.39-.047c-.055,0-.051.095,0,.1.459,0,.921-.022,1.379,0a.029.029,0,0,0,.011-.051Z" transform="translate(-119.339 -190.58)" fill="#fff"/>
      <path id="Path_556" data-name="Path 556" d="M136.444,292.8a6.257,6.257,0,0,0-2.154.429v.033c.728-.171,1.43-.24,2.151-.364a.055.055,0,0,0,0-.1Z" transform="translate(-109.301 -206.529)" fill="#fff"/>
      <path id="Path_557" data-name="Path 557" d="M134.44,284.2a4.823,4.823,0,0,0-.913.08.029.029,0,0,0,0,.055,4.507,4.507,0,0,0,.913-.04.047.047,0,1,0,0-.095Z" transform="translate(-108.803 -201.058)" fill="#fff"/>
      <path id="Path_558" data-name="Path 558" d="M66.339,271.878a31.715,31.715,0,0,1,6.5,3.06,19.407,19.407,0,0,1,5.411,5.138,48.107,48.107,0,0,1,6.936,14.007,37.308,37.308,0,0,1,1.572,8.545.084.084,0,0,1-.164,0,48.476,48.476,0,0,0-4.229-14.509c-2.122-4.494-4.8-9.276-8.887-12.253a39.349,39.349,0,0,0-7.227-3.8C66.117,272.02,66.208,271.835,66.339,271.878Z" transform="translate(-65.979 -193.217)" fill="#ebebeb"/>
      <path id="Path_559" data-name="Path 559" d="M83.193,290.616a29.215,29.215,0,0,0-5.171-3.759c-2.889-1.6-5.237-2.66-5.953-4.061s1.514-3.221,1.514-3.221-2.948,1.456-4.17.382-3.792-8.5-3.792-8.5,6.809,2.42,11.055,7.329A39.75,39.75,0,0,1,83.193,290.616Z" transform="translate(-65.62 -192.955)" fill="#ebebeb"/>
      <path id="Path_560" data-name="Path 560" d="M88.167,291.972C84.764,285.582,80.219,279.8,74,276h0a31.394,31.394,0,0,1,4.556,3.566,7.234,7.234,0,0,0-3.661.771.022.022,0,0,0,0,.04,10.009,10.009,0,0,1,3.766-.637.092.092,0,0,0,.044,0c.222.207.437.422.655.637a11.453,11.453,0,0,0-1.958.258v.029a9.822,9.822,0,0,1,2.063-.171,42.56,42.56,0,0,1,3.213,3.639,3.217,3.217,0,0,0-1.368.1.025.025,0,1,0,0,.051,7.247,7.247,0,0,1,1.456-.018c.186.237.364.473.557.728a13.053,13.053,0,0,0-4.13.4c-.022,0,0,.036,0,.033a16.615,16.615,0,0,1,4.269-.328c.175.229.338.466.509.7a8.936,8.936,0,0,0-2.46.284.025.025,0,0,0,0,.047,9.49,9.49,0,0,1,2.547-.2c.728,1.008,1.434,2.042,2.107,3.082a2.315,2.315,0,0,0-1.092.065v.029a4.824,4.824,0,0,1,1.168.058q.91,1.412,1.754,2.857C88.083,292.117,88.214,292.055,88.167,291.972Z" transform="translate(-70.95 -195.842)" fill="#fff"/>
      <path id="Path_561" data-name="Path 561" d="M94.92,305.3a5.221,5.221,0,0,0-1.98.244s0,.033,0,.029a14.851,14.851,0,0,1,1.969-.2C94.956,305.367,94.967,305.3,94.92,305.3Z" transform="translate(-82.998 -214.471)" fill="#fff"/>
      <path id="Path_562" data-name="Path 562" d="M80.427,283.9a3.344,3.344,0,0,0-.913.051c-.033,0-.022.058,0,.055.3-.033.6-.022.9-.029a.04.04,0,0,0,.018-.076Z" transform="translate(-74.445 -200.861)" fill="#fff"/>
      <path id="Path_563" data-name="Path 563" d="M111.178,346.928H95.81L98,330.876l.56-4.116h9.865l.56,4.116Z" transform="translate(-84.824 -228.131)" fill="#dbdbdb"/>
      <path id="Path_564" data-name="Path 564" d="M112.816,330.876H101.83l.56-4.116h9.865Z" transform="translate(-88.653 -228.131)" fill="#c7c7c7"/>
      <rect id="Rectangle_330" data-name="Rectangle 330" width="12.686" height="3.486" transform="translate(12.325 97.203)" fill="#dbdbdb"/>
    </g>
    <g id="freepik--Floor--inject-97" transform="translate(66.835 174.345)">
      <path id="Path_565" data-name="Path 565" d="M68.96,381.862l27.66-.087,27.66-.033,55.321-.062,55.321.062,27.66.033,27.66.087-27.66.091-27.66.029-55.321.062-55.321-.062-27.66-.033Z" transform="translate(-68.96 -381.68)" fill="#263238"/>
    </g>
    <g id="freepik--Shadow--inject-97" transform="translate(73.859 178.781)">
      <ellipse id="Ellipse_33" data-name="Ellipse 33" cx="104.346" cy="11.434" rx="104.346" ry="11.434" transform="translate(0)" fill="#ebebeb"/>
    </g>
    <g id="freepik--Character--inject-97" transform="translate(82.664 66.939)">
      <path id="Path_566" data-name="Path 566" d="M257.84,377.822c-.848.288-25.16.364-26.092-.211-.364-.218-.571-3.759-.728-8.046-.033-.924-.058-1.881-.08-2.849L229,353.746l16.256-.106,1.532,12.973-.062,2.853s9.323,4.13,10.277,4.88S258.687,377.534,257.84,377.822Z" transform="translate(-186.589 -256.438)" fill="#eb9481"/>
      <path id="Path_567" data-name="Path 567" d="M261.255,400.5c-.848.287-25.16.364-26.092-.211-.429-.269-.662-5.44-.793-10.9l15.815-.1-.062,2.853s9.323,4.13,10.277,4.88S262.1,400.211,261.255,400.5Z" transform="translate(-190.005 -279.115)" fill="#fff"/>
      <path id="Path_568" data-name="Path 568" d="M261.37,405.485c-.848.287-25.16.364-26.092-.211-.364-.218-.571-3.759-.728-8.046l15.673-.1s9.323,4.13,10.277,4.88S262.218,405.2,261.37,405.485Z" transform="translate(-190.12 -284.102)" fill="#a6a6a6"/>
      <path id="Path_569" data-name="Path 569" d="M264.307,417.345c-4.076-.087-20.524-.047-24.56.178-.033,0-.033.022,0,.026,4.039.171,20.488,0,24.56-.138C264.394,417.407,264.394,417.345,264.307,417.345Z" transform="translate(-193.41 -296.933)" fill="#263238"/>
      <path id="Path_570" data-name="Path 570" d="M295.757,408.149a3.274,3.274,0,0,0-2.434,1,3.151,3.151,0,0,0-.9,2.183c0,.025.044.025.047,0a3.785,3.785,0,0,1,3.275-3.13.03.03,0,1,0,.015-.058Z" transform="translate(-226.931 -291.11)" fill="#263238"/>
      <path id="Path_571" data-name="Path 571" d="M274.063,398.229a5.677,5.677,0,0,0-4.531,1.9c-.036.051.036.105.084.08a22.641,22.641,0,0,1,4.476-1.783.1.1,0,0,0-.029-.2Z" transform="translate(-212.366 -284.801)" fill="#263238"/>
      <path id="Path_572" data-name="Path 572" d="M277.54,399.56a5.738,5.738,0,0,0-4.531,1.9c-.04.055.033.109.084.084a22.417,22.417,0,0,1,4.472-1.787.1.1,0,0,0-.025-.2Z" transform="translate(-214.576 -285.648)" fill="#263238"/>
      <path id="Path_573" data-name="Path 573" d="M281,400.9a5.736,5.736,0,0,0-4.531,1.9c-.036.051.036.106.084.08a22.657,22.657,0,0,1,4.476-1.783.1.1,0,0,0-.029-.2Z" transform="translate(-216.78 -286.5)" fill="#263238"/>
      <path id="Path_574" data-name="Path 574" d="M284.471,402.239a5.668,5.668,0,0,0-4.531,1.9c-.04.051.036.106.084.08a22.561,22.561,0,0,1,4.476-1.783.1.1,0,0,0-.029-.2Z" transform="translate(-218.985 -287.352)" fill="#263238"/>
      <path id="Path_575" data-name="Path 575" d="M240.225,407.26a1.424,1.424,0,0,0,0,2.846A1.424,1.424,0,0,0,240.225,407.26Z" transform="translate(-192.861 -290.545)" fill="#263238"/>
      <path id="Path_576" data-name="Path 576" d="M280.118,385.755c-.826-.684-1.867,0-2.373.7a8.58,8.58,0,0,0-1.456,4.178.047.047,0,0,0,.051.047.2.2,0,0,0,.295.127,14.2,14.2,0,0,0,3.374-2.664C280.508,387.484,280.915,386.392,280.118,385.755Zm-1.987,3.472c-.56.411-1.139.793-1.685,1.226.291-.815.542-1.638.913-2.424a9.122,9.122,0,0,1,.59-1.092c.364-.542,1.95-1.911,2.118-.138C280.162,387.772,278.8,388.74,278.131,389.227Z" transform="translate(-216.67 -276.687)" fill="#263238"/>
      <path id="Path_577" data-name="Path 577" d="M262.076,396.424a14.3,14.3,0,0,0,4.28-.418.2.2,0,0,0,.12-.3.044.044,0,0,0,0-.069,8.551,8.551,0,0,0-3.952-1.991c-.859-.164-2.074.073-2.183,1.139C260.209,395.791,261.246,396.293,262.076,396.424Zm-.99-.924c-1.092-1.4.994-1.517,1.619-1.372a9.31,9.31,0,0,1,1.194.386,25.335,25.335,0,0,1,2.333,1.11c-.691.069-1.372.193-2.06.287C263.35,396.02,261.7,396.268,261.086,395.5Z" transform="translate(-206.518 -281.857)" fill="#263238"/>
      <path id="Path_578" data-name="Path 578" d="M163.32,189.2S182.2,221.311,182.7,223.567c.775,3.464,4.884,37.675,4.884,37.675l19.651-.364s-3.384-30.164-6.59-40.1c-2.307-7.158-18.967-30.9-18.967-30.9Z" transform="translate(-144.811 -151.839)" fill="#37474f"/>
      <path id="Path_579" data-name="Path 579" d="M250.086,377.869c-2.82-.022-12.817-.135-16.572.215-.029,0-.025.051,0,.055,1.292.186,13.748-.1,16.569-.193a.04.04,0,1,0,0-.076Z" transform="translate(-189.448 -271.828)" fill="#263238"/>
      <path id="Path_580" data-name="Path 580" d="M172.052,197.272c1.237,1.94,2.547,3.839,3.806,5.764s2.526,3.85,3.774,5.772q3.734,5.822,7.278,11.721a35.887,35.887,0,0,1,2.948,5.746,35.209,35.209,0,0,1,1.656,6.165c.386,2.107.64,4.236.877,6.365q.364,3.4.761,6.794.775,6.954,1.554,13.908c.062.568.124,1.135.182,1.707a.077.077,0,0,1-.153,0c-.579-4.6-1.059-9.225-1.583-13.828q-.393-3.446-.782-6.889c-.244-2.136-.477-4.276-.808-6.4a41.852,41.852,0,0,0-1.383-6.186,29.711,29.711,0,0,0-2.715-6c-2.274-3.927-4.683-7.784-7.093-11.645s-4.884-7.755-7.424-11.569c-.313-.469-.63-.939-.957-1.4C171.964,197.268,172.03,197.235,172.052,197.272Z" transform="translate(-150.322 -156.963)" fill="#263238"/>
      <path id="Path_581" data-name="Path 581" d="M137.153,370.446c-.9-.055-24.018-9.422-24.658-10.309a.306.306,0,0,1-.036-.171c0-.8,1.6-3.577,2.944-7.231.084-.233.68-1.317,1.507-2.777,2.3-4,6.3-10.888,6.3-10.888l15.113,6L131.087,355.9l-1.124,2.62s7.093,7.333,7.689,8.37S138.044,370.5,137.153,370.446Z" transform="translate(-112.457 -247.17)" fill="#eb9481"/>
      <path id="Path_582" data-name="Path 582" d="M137.153,389.478c-.9-.055-24.018-9.421-24.658-10.309a.306.306,0,0,1-.036-.171c0-.8,1.6-3.577,2.944-7.231.084-.233.68-1.317,1.507-2.777l14.192,5.943-1.124,2.62s7.093,7.333,7.689,8.37S138.044,389.529,137.153,389.478Z" transform="translate(-112.457 -266.202)" fill="#fff"/>
      <path id="Path_583" data-name="Path 583" d="M137.155,394.331c-.9-.055-24.018-9.422-24.658-10.309-.247-.338.786-3.494,2.911-7.4l14.556,5.79s7.092,7.325,7.693,8.37S138.047,394.382,137.155,394.331Z" transform="translate(-112.46 -271.056)" fill="#a6a6a6"/>
      <path id="Path_584" data-name="Path 584" d="M140.464,406.637c-3.745-1.608-19.007-7.744-22.831-9.047-.033,0-.04,0,0,.022,3.679,1.674,18.989,7.686,22.817,9.1C140.522,406.728,140.544,406.669,140.464,406.637Z" transform="translate(-115.732 -284.395)" fill="#263238"/>
      <path id="Path_585" data-name="Path 585" d="M171.127,411.236a3.275,3.275,0,0,0-2.635,0,3.166,3.166,0,0,0-1.652,1.681c0,.022.033.04.044.018a3.788,3.788,0,0,1,4.225-1.67A.025.025,0,0,0,171.127,411.236Z" transform="translate(-147.05 -292.899)" fill="#263238"/>
      <path id="Path_586" data-name="Path 586" d="M155.563,394.258a5.67,5.67,0,0,0-4.913.065c-.055.033,0,.109.047.106a22.692,22.692,0,0,1,4.818.025.1.1,0,0,0,.047-.2Z" transform="translate(-136.737 -281.94)" fill="#263238"/>
      <path id="Path_587" data-name="Path 587" d="M158.273,396.8a5.671,5.671,0,0,0-4.913.066c-.055.033,0,.109.047.105a22.455,22.455,0,0,1,4.818.026.1.1,0,0,0,.047-.2Z" transform="translate(-138.461 -283.555)" fill="#263238"/>
      <path id="Path_588" data-name="Path 588" d="M160.99,399.338a5.669,5.669,0,0,0-4.913.066c-.058.033,0,.109.044.105a22.448,22.448,0,0,1,4.818.026.1.1,0,0,0,.051-.2Z" transform="translate(-140.188 -285.171)" fill="#263238"/>
      <path id="Path_589" data-name="Path 589" d="M163.7,401.877a5.682,5.682,0,0,0-4.913.062c-.058.036,0,.113.044.109a22.451,22.451,0,0,1,4.818.026.1.1,0,0,0,.051-.2Z" transform="translate(-141.912 -286.786)" fill="#263238"/>
      <path id="Path_590" data-name="Path 590" d="M120.93,388.578a1.424,1.424,0,0,0-1.048,2.646A1.424,1.424,0,0,0,120.93,388.578Z" transform="translate(-116.628 -278.592)" fill="#263238"/>
      <path id="Path_591" data-name="Path 591" d="M163.737,384.745c-.513-.942-1.725-.71-2.464-.24a8.558,8.558,0,0,0-2.911,3.322.044.044,0,0,0,.029.062c0,.12.08.262.222.233a14.266,14.266,0,0,0,4.127-1.208C163.449,386.491,164.221,385.636,163.737,384.745Zm-3.148,2.471c-.673.171-1.35.309-2.016.506a25.47,25.47,0,0,1,1.75-1.9,9.229,9.229,0,0,1,.964-.8c.528-.364,2.522-1.037,2.012.67C163.02,386.63,161.393,387.012,160.589,387.215Z" transform="translate(-141.654 -275.81)" fill="#263238"/>
      <path id="Path_592" data-name="Path 592" d="M145.337,386.82a14.407,14.407,0,0,0,4.123,1.219c.142.033.237-.109.226-.233a.04.04,0,0,0,.029-.062,8.56,8.56,0,0,0-2.911-3.33c-.728-.473-1.947-.71-2.464.229S144.613,386.395,145.337,386.82Zm-.568-1.23c-.506-1.707,1.485-1.03,2.012-.662a8.859,8.859,0,0,1,.961.8,25.49,25.49,0,0,1,1.747,1.907c-.666-.2-1.343-.338-2.016-.51C146.658,386.911,145.046,386.547,144.769,385.59Z" transform="translate(-132.632 -275.75)" fill="#263238"/>
      <path id="Path_593" data-name="Path 593" d="M137.308,248.376l-16.918-6.831s20.976-30.841,21.128-33.137c.138-2.031-9.076-19.724-9.436-24.88a15.39,15.39,0,0,1,5.233-12.547l17.449,7.42a15.254,15.254,0,0,1-4.731,4.585s8.948,20.452,8.439,26.74S137.308,248.376,137.308,248.376Z" transform="translate(-117.503 -140.249)" fill="#37474f"/>
      <path id="Path_594" data-name="Path 594" d="M143.538,364.541c-2.445-1.052-1.729-.786-4.189-1.82-1.2-.5-9.1-3.788-10.313-4.061-.025,0-.044.036-.018.051,1.052.644,9.014,3.792,10.226,4.272,2.478.975,1.776.67,4.265,1.616a.036.036,0,1,0,.029-.058Z" transform="translate(-122.984 -259.631)" fill="#263238"/>
      <path id="Path_595" data-name="Path 595" d="M200.357,202.935a32.935,32.935,0,0,0-5.313,1.725.056.056,0,0,0,.036.106c1.783-.52,3.6-1.008,5.349-1.623C200.565,203.095,200.5,202.906,200.357,202.935Z" transform="translate(-164.966 -160.573)" fill="#263238"/>
      <path id="Path_596" data-name="Path 596" d="M202.817,200.835a7.888,7.888,0,0,0-.448.935,2.151,2.151,0,0,0-.229.782c0,.055.073.065.106.033a2.735,2.735,0,0,0,.437-.728c.149-.288.3-.571.444-.866A.173.173,0,0,0,202.817,200.835Z" transform="translate(-169.504 -159.18)" fill="#263238"/>
      <path id="Path_597" data-name="Path 597" d="M203.673,193.572c.109-.269.215-.535.328-.8s.255-.546.364-.83c0-.044.087,0,.069.033-.109.269-.178.553-.262.83s-.178.553-.269.83a13.461,13.461,0,0,1-.6,1.521,1.928,1.928,0,0,0,.837-.146,1.5,1.5,0,0,0,.593-.728c.153-.3.295-.6.451-.9a6.026,6.026,0,0,0,.484-1.015c0-.044.087,0,.069.033a11.812,11.812,0,0,1-.928,2.151c-.164.266-.291.546-.589.648a2.468,2.468,0,0,1-.993.069c-.044,0-.095,0-.08-.066Q203.369,194.371,203.673,193.572Z" transform="translate(-170.142 -153.569)" fill="#263238"/>
      <path id="Path_598" data-name="Path 598" d="M202.446,205.766c.622,1.314,1.168,2.624,1.747,3.934s1.092,2.576,1.612,3.879c1.041,2.627,1.972,5.306,2.791,8.006.4,1.339.779,2.689,1.114,4.05a29.1,29.1,0,0,1,.808,4.134,10.917,10.917,0,0,1-.364,4.149,24.268,24.268,0,0,1-1.539,3.868c-.382.786-.509.68-.328.284a18.965,18.965,0,0,0,1.787-7.416,21.408,21.408,0,0,0-.633-4.072q-.477-2.063-1.074-4.094c-.775-2.671-1.7-5.288-2.642-7.9-.531-1.456-1.092-2.911-1.638-4.367s-1.092-2.795-1.7-4.4C202.366,205.752,202.428,205.726,202.446,205.766Z" transform="translate(-169.657 -162.364)" fill="#263238"/>
      <path id="Path_599" data-name="Path 599" d="M167.188,187.5c.3-.113.728.073,1.034.124a8.832,8.832,0,0,0,1.2.12,8.654,8.654,0,0,0,1.19-.04,2.547,2.547,0,0,0,1.139-.3,5.8,5.8,0,0,0,1.456-1.539,8.957,8.957,0,0,0,1.132-1.987c0-.044.076,0,.062.029-.127.4-.222.812-.364,1.208a7.337,7.337,0,0,1-.56,1.074,4.589,4.589,0,0,1-1.507,1.71,4.483,4.483,0,0,1-2.387.331,9.325,9.325,0,0,1-1.35-.178c-.32-.069-.859-.12-1.063-.4a.1.1,0,0,1,.022-.149Z" transform="translate(-147.241 -148.442)" fill="#263238"/>
      <path id="Path_600" data-name="Path 600" d="M133.64,240.879q4.17-6.317,8.188-12.737t7.926-12.937a17.989,17.989,0,0,0,1.74-3.221,5.62,5.62,0,0,0-.2-3.683,62.451,62.451,0,0,0-2.6-6.55c-.975-2.151-2.027-4.265-3.06-6.387a65.688,65.688,0,0,1-2.911-6.43,11.134,11.134,0,0,1-.455-6.5,18.841,18.841,0,0,1,3.068-5.95c.335-.48.68-.957,1.019-1.456.025-.036.08,0,.055.044a25.377,25.377,0,0,0-3.606,6.143,10.608,10.608,0,0,0-.7,3.439,11.133,11.133,0,0,0,.55,3.519,46.335,46.335,0,0,0,2.773,6.387c1.008,2.082,2.085,4.236,3.079,6.379a68.285,68.285,0,0,1,2.729,6.62,9.18,9.18,0,0,1,.7,3.122,6.792,6.792,0,0,1-1.168,3.224q-3.821,6.468-7.813,12.809c-2.657,4.236-5.389,8.472-8.155,12.664l-1.048,1.583C133.691,241.032,133.6,240.955,133.64,240.879Z" transform="translate(-125.925 -142.818)" fill="#263238"/>
      <path id="Path_601" data-name="Path 601" d="M216.753,132.658c1.576,3.457,9.534,8.221,13.261,8.734a78.32,78.32,0,0,0,13.614.069c3.275-.5.771-9.327-1.161-9.1-5.313.619-9.825,1.31-11.245,1.31-1.732,0-11.1-3.006-12.231-3.432C216.225,129.212,215.861,130.7,216.753,132.658Z" transform="translate(-178.524 -114.122)" fill="#eb9481"/>
      <path id="Path_602" data-name="Path 602" d="M215.707,133.014c1.994,2.951,8.621,7.777,8.621,7.777l.921-2.038,3.046-6.74s-6.088-1.91-10.095-2.784a8.784,8.784,0,0,0-1.434-.2C214.208,128.887,213.986,130.466,215.707,133.014Z" transform="translate(-177.427 -113.557)" fill="#ffc727"/>
      <path id="Path_603" data-name="Path 603" d="M215.707,133.025c1.994,2.951,8.621,7.777,8.621,7.777l.921-2.038c-2.471-2.871-6.288-7.22-8.483-9.72C214.208,128.9,213.986,130.478,215.707,133.025Z" transform="translate(-177.427 -113.568)" fill="#263238"/>
      <path id="Path_604" data-name="Path 604" d="M238.052,144.8c.506-1.241,2.755-6.237,3.315-7.278.036-.073.095-.066.062,0A73.41,73.41,0,0,1,238.1,144.8C238.088,144.841,238.03,144.827,238.052,144.8Z" transform="translate(-192.344 -118.932)" fill="#263238"/>
      <path id="Path_605" data-name="Path 605" d="M285.49,135.93c3.231-.422,7.231-1.146,10.619.291a1.82,1.82,0,0,1,.906.775c1.528.619,1.7,1.525,1.7,1.525A3.028,3.028,0,0,1,300,140.486s1.79.728,1.517,1.9c-.3,1.3-2.751,0-4.534.106-4.094.255-9.825,1.758-11.008,1.947Z" transform="translate(-222.522 -117.597)" fill="#eb9481"/>
      <path id="Path_606" data-name="Path 606" d="M304.7,146.967a18.849,18.849,0,0,1,7.453.782.033.033,0,0,0,.022-.062,13.934,13.934,0,0,0-7.475-.757C304.645,146.923,304.645,146.97,304.7,146.967Z" transform="translate(-234.716 -124.82)" fill="#263238"/>
      <path id="Path_607" data-name="Path 607" d="M303.278,140.489a19.025,19.025,0,0,1,6.7,1.263v-.022a12.522,12.522,0,0,0-6.707-1.3C303.205,140.438,303.2,140.486,303.278,140.489Z" transform="translate(-233.8 -120.788)" fill="#263238"/>
      <path id="Path_608" data-name="Path 608" d="M302.585,136.847a19.555,19.555,0,0,1,5.255,1.026v-.022a11.991,11.991,0,0,0-5.266-1.092C302.5,136.789,302.508,136.847,302.585,136.847Z" transform="translate(-233.358 -118.482)" fill="#263238"/>
      <path id="Path_609" data-name="Path 609" d="M292.925,156.64c-.52.244-.393.517.6.746s5.124.3,4.978,1.739-5.972,1.259-7.6.75a27.321,27.321,0,0,1-4.076-1.907C287.984,157.775,290.691,157.044,292.925,156.64Z" transform="translate(-223.375 -131.128)" fill="#eb9481"/>
      <path id="Path_610" data-name="Path 610" d="M227.262,152.57c-.025.622-.084,1.256-.171,1.885a.076.076,0,0,1,.025-.069c.12-.328.24-.662.386-.979h.033a5.25,5.25,0,0,1-.313,1.012c-.066.156-.127.309-.2.462-.044.28-.095.557-.149.833-.109.52-.6,2.733-.728,3.108-.022.076-.116.058-.109-.029.025-.408.437-2.711.52-3.235a28.275,28.275,0,0,1,.651-3C227.229,152.537,227.266,152.552,227.262,152.57Z" transform="translate(-184.706 -128.524)" fill="#263238"/>
      <path id="Path_611" data-name="Path 611" d="M182.437,151.943c-.972.5-2.223,1.274-7.864.164-.364-.073-.706-.16-1.063-.266-5.288-1.587-11.645-7.806-11.991-8.246,0,0,8.4-13.621,19.149-17.9,1.328-.528,3.526.491,4.731,1.761.433.455,1.376,3.8,1.015,6.507S183.405,151.445,182.437,151.943Z" transform="translate(-143.666 -111.351)" fill="#ffc727"/>
      <path id="Path_612" data-name="Path 612" d="M216.485,148.32a4.127,4.127,0,0,1-.237,1.7A3.948,3.948,0,0,1,216.485,148.32Z" transform="translate(-178.47 -125.835)" fill="#fff"/>
      <path id="Path_613" data-name="Path 613" d="M206.413,173.81a3.756,3.756,0,0,1-.029.859,3.564,3.564,0,0,1-.207.837,3.585,3.585,0,0,1,.029-.862A3.773,3.773,0,0,1,206.413,173.81Z" transform="translate(-172.063 -142.049)" fill="#fff"/>
      <path id="Path_614" data-name="Path 614" d="M189.3,154.54a4.13,4.13,0,0,1-.237,1.7A3.977,3.977,0,0,1,189.3,154.54Z" transform="translate(-161.181 -129.792)" fill="#fff"/>
      <path id="Path_615" data-name="Path 615" d="M223.073,172.51a3.776,3.776,0,0,1-.029.862,3.565,3.565,0,0,1-.207.837,3.586,3.586,0,0,1,.029-.862A3.753,3.753,0,0,1,223.073,172.51Z" transform="translate(-182.66 -141.222)" fill="#fff"/>
      <path id="Path_616" data-name="Path 616" d="M201.54,151.216a3.758,3.758,0,0,1,.859.025,3.579,3.579,0,0,1,.837.211A4.1,4.1,0,0,1,201.54,151.216Z" transform="translate(-169.122 -127.669)" fill="#fff"/>
      <path id="Path_617" data-name="Path 617" d="M182.12,169.632a4.125,4.125,0,0,1,1.7.237A3.95,3.95,0,0,1,182.12,169.632Z" transform="translate(-156.769 -139.385)" fill="#fff"/>
      <path id="Path_618" data-name="Path 618" d="M205,189.562a4.1,4.1,0,0,1,1.7.237A3.971,3.971,0,0,1,205,189.562Z" transform="translate(-171.323 -152.062)" fill="#fff"/>
      <path id="Path_619" data-name="Path 619" d="M176.13,182.322a4.126,4.126,0,0,1,1.7.237A3.971,3.971,0,0,1,176.13,182.322Z" transform="translate(-152.959 -147.457)" fill="#fff"/>
      <path id="Path_620" data-name="Path 620" d="M216.77,130.382a4.127,4.127,0,0,1,1.7.237A4.128,4.128,0,0,1,216.77,130.382Z" transform="translate(-178.81 -114.419)" fill="#fff"/>
      <path id="Path_621" data-name="Path 621" d="M208.754,136.78a3.548,3.548,0,0,1-.626.59,3.867,3.867,0,0,1-.728.444,3.7,3.7,0,0,1,.619-.59A3.837,3.837,0,0,1,208.754,136.78Z" transform="translate(-172.85 -118.495)" fill="#fff"/>
      <path id="Path_622" data-name="Path 622" d="M177.957,154.91a3.678,3.678,0,0,1-.63.586,3.43,3.43,0,0,1-.728.444,3.831,3.831,0,0,1,.63-.586A3.524,3.524,0,0,1,177.957,154.91Z" transform="translate(-153.258 -130.027)" fill="#fff"/>
      <path id="Path_623" data-name="Path 623" d="M216.407,163.09a3.7,3.7,0,0,1-.63.59,3.522,3.522,0,0,1-.728.444,3.7,3.7,0,0,1,.63-.59A3.754,3.754,0,0,1,216.407,163.09Z" transform="translate(-177.716 -135.23)" fill="#fff"/>
      <path id="Path_624" data-name="Path 624" d="M191.507,178.77a3.7,3.7,0,0,1-.63.59,3.59,3.59,0,0,1-.728.444,3.7,3.7,0,0,1,.63-.59A3.755,3.755,0,0,1,191.507,178.77Z" transform="translate(-161.877 -145.204)" fill="#fff"/>
      <path id="Path_625" data-name="Path 625" d="M225.947,141.67a3.7,3.7,0,0,1-.63.59,3.866,3.866,0,0,1-.728.444,3.7,3.7,0,0,1,.63-.59A3.588,3.588,0,0,1,225.947,141.67Z" transform="translate(-183.784 -121.605)" fill="#fff"/>
      <path id="Path_626" data-name="Path 626" d="M225.994,157.467a3.7,3.7,0,0,1-.59-.63,3.5,3.5,0,0,1-.444-.728,3.55,3.55,0,0,1,.59.626A3.982,3.982,0,0,1,225.994,157.467Z" transform="translate(-184.02 -130.79)" fill="#fff"/>
      <path id="Path_627" data-name="Path 627" d="M170.493,169.987a3.7,3.7,0,0,1-.589-.63,3.753,3.753,0,0,1-.444-.728,3.7,3.7,0,0,1,.59.63A3.589,3.589,0,0,1,170.493,169.987Z" transform="translate(-148.716 -138.754)" fill="#fff"/>
      <path id="Path_628" data-name="Path 628" d="M219.244,184.884a3.55,3.55,0,0,1-.59-.626,3.867,3.867,0,0,1-.444-.728,3.7,3.7,0,0,1,.59.63A3.656,3.656,0,0,1,219.244,184.884Z" transform="translate(-179.726 -148.232)" fill="#fff"/>
      <path id="Path_629" data-name="Path 629" d="M194.813,142.434a3.681,3.681,0,0,1-.59-.626,3.979,3.979,0,0,1-.444-.728,3.547,3.547,0,0,1,.59.626A3.984,3.984,0,0,1,194.813,142.434Z" transform="translate(-164.186 -121.23)" fill="#fff"/>
      <path id="Path_630" data-name="Path 630" d="M195.243,193.357a3.7,3.7,0,0,1-.59-.63,3.834,3.834,0,0,1-.444-.728,3.548,3.548,0,0,1,.59.626A3.8,3.8,0,0,1,195.243,193.357Z" transform="translate(-164.46 -153.62)" fill="#fff"/>
      <path id="Path_631" data-name="Path 631" d="M199.4,163.317a3.831,3.831,0,0,1-.586-.63,3.431,3.431,0,0,1-.444-.728,3.678,3.678,0,0,1,.586.63A3.522,3.522,0,0,1,199.4,163.317Z" transform="translate(-167.106 -134.512)" fill="#fff"/>
      <path id="Path_632" data-name="Path 632" d="M216.794,123.234c-1.372-.255-2.66-3.09-2.824-5,0-.131.64-1.168,1.372-2.467.444-.79.913-1.681,1.288-2.526.076-.171.524.408.524.408l.975.728,3.221,2.471a14.678,14.678,0,0,0-1.94,3.01,1.819,1.819,0,0,0-.116.364.445.445,0,0,0,0,.062C219.094,121.007,218.115,123.478,216.794,123.234Z" transform="translate(-177.029 -103.504)" fill="#eb9481"/>
      <path id="Path_633" data-name="Path 633" d="M223.583,121.118a.455.455,0,0,0,0,.062,3.6,3.6,0,0,1-.557-.215c-3.526-1.652-1.972-6.376-1.972-6.376l1.383.684,3.221,2.471a14.681,14.681,0,0,0-1.94,3.01A1.82,1.82,0,0,0,223.583,121.118Z" transform="translate(-181.318 -104.38)" fill="#263238"/>
      <path id="Path_634" data-name="Path 634" d="M244.42,95.58a3.677,3.677,0,0,1,1.619,2.842,7.582,7.582,0,0,1-.881,3.665C245.006,102.152,244.42,95.58,244.42,95.58Z" transform="translate(-196.398 -92.288)" fill="#263238"/>
      <path id="Path_635" data-name="Path 635" d="M221.259,93.786c-.968,1.911-.917,7.933.291,9.483,1.754,2.249,5.131,3.024,7.173.8,1.976-2.154,1.772-10,.364-11.463A5.1,5.1,0,0,0,221.259,93.786Z" transform="translate(-181.236 -89.547)" fill="#eb9481"/>
      <path id="Path_636" data-name="Path 636" d="M222.87,124h0" transform="translate(-182.69 -110.365)" fill="none" stroke="#f5a79e" stroke-linecap="round" stroke-linejoin="round" stroke-width="0"/>
      <path id="Path_637" data-name="Path 637" d="M235.828,111.43s-.033.022-.029.036c.022.411-.022.884-.389,1.03v.022C235.865,112.445,235.916,111.816,235.828,111.43Z" transform="translate(-190.667 -102.37)" fill="#263238"/>
      <path id="Path_638" data-name="Path 638" d="M234.631,110.279c-.662-.036-.684,1.288-.069,1.321S235.184,110.308,234.631,110.279Z" transform="translate(-189.844 -101.637)" fill="#263238"/>
      <path id="Path_639" data-name="Path 639" d="M242.673,111.39a.033.033,0,0,1,.033.036c-.022.411.026.884.4,1.026v.022C242.644,112.405,242.589,111.776,242.673,111.39Z" transform="translate(-195.266 -102.344)" fill="#263238"/>
      <path id="Path_640" data-name="Path 640" d="M243.065,110.228c.659-.04.691,1.285.08,1.321S242.512,110.261,243.065,110.228Z" transform="translate(-195.283 -101.605)" fill="#263238"/>
      <path id="Path_641" data-name="Path 641" d="M233.753,105.882a5.32,5.32,0,0,0,.513-.175.873.873,0,0,0,.495-.277.28.28,0,0,0-.04-.338.7.7,0,0,0-.7-.084,1.03,1.03,0,0,0-.6.433.3.3,0,0,0,.328.44Z" transform="translate(-189.381 -98.248)" fill="#263238"/>
      <path id="Path_642" data-name="Path 642" d="M243.115,107.547a5.322,5.322,0,0,1-.524-.146.873.873,0,0,1-.506-.251.273.273,0,0,1,.022-.338.688.688,0,0,1,.691-.12,1.019,1.019,0,0,1,.619.4.3.3,0,0,1-.3.455Z" transform="translate(-194.882 -99.327)" fill="#263238"/>
      <path id="Path_643" data-name="Path 643" d="M233.895,122.085c.1.1.193.229.342.244a1.092,1.092,0,0,0,.444-.095s.025,0,0,.022a.549.549,0,0,1-.524.215.44.44,0,0,1-.32-.364.031.031,0,1,1,.058-.022Z" transform="translate(-189.665 -109.134)" fill="#263238"/>
      <path id="Path_644" data-name="Path 644" d="M237.451,110.368s.018.611,0,.9a6,6,0,0,0-1.678.058c-.131.029-.116-.076.033-.146a2.46,2.46,0,0,1,1.427-.189c.029-.076-.047-.946,0-.942a2.429,2.429,0,0,1,.633.218c0-1.281-.2-2.547-.186-3.828a.038.038,0,0,1,.076,0,20.612,20.612,0,0,1,.364,4.112C238.124,110.707,237.56,110.426,237.451,110.368Z" transform="translate(-190.841 -99.172)" fill="#263238"/>
      <path id="Path_645" data-name="Path 645" d="M236.061,119.161a1.819,1.819,0,0,1-.764.913c-.549.222-.728-.277-.175-.728A1.776,1.776,0,0,1,236.061,119.161Z" transform="translate(-190.269 -107.284)" fill="#263238"/>
      <path id="Path_646" data-name="Path 646" d="M235.48,120.5a.727.727,0,0,1-.193.113c-.506.2-.706-.2-.3-.608C235.265,120.032,235.582,120.134,235.48,120.5Z" transform="translate(-190.26 -107.827)" fill="#ff99ba"/>
      <path id="Path_647" data-name="Path 647" d="M219.89,95.92c.666.2,1.43-1.8,1.648-2.547.189-.677.408-2.828.44-2.977s2.911,1.9,4.578,1.416a4.05,4.05,0,0,0,2.824-2.7c.025-.7-2.06-2.485-3.861-2.576s-4.243,2.183-4.243,2.183a8.365,8.365,0,0,0,.8-1.07,1.98,1.98,0,0,0-1.408,1.215s.233-1.044.146-1.063-.993.873-.79,1.55a3.545,3.545,0,0,0-1.143,1.9C218.787,92.245,219.107,95.68,219.89,95.92Z" transform="translate(-180.143 -86.533)" fill="#263238"/>
      <path id="Path_648" data-name="Path 648" d="M232.057,96.941a5.534,5.534,0,0,1-1.583.568,3.759,3.759,0,0,1-1.82-.291,5.591,5.591,0,0,1-1.587-.939c-.418-.342-.793-.761-1.241-1.066-.113-.08-.24.084-.171.186A6.012,6.012,0,0,0,228.7,97.64a3.468,3.468,0,0,0,3.355-.684S232.064,96.941,232.057,96.941Z" transform="translate(-184.45 -92.04)" fill="#263238"/>
      <path id="Path_649" data-name="Path 649" d="M219.325,108.7s-1.033-2.1-1.965-1.758-.364,3.239.593,3.77a1.037,1.037,0,0,0,1.456-.342Z" transform="translate(-178.883 -99.494)" fill="#eb9481"/>
      <path id="Path_650" data-name="Path 650" d="M218.683,109.28s-.022,0,0,.029a2.6,2.6,0,0,1,1.092,1.82.571.571,0,0,0-.822-.284c-.022,0,0,.04,0,.04a.637.637,0,0,1,.659.327,3.072,3.072,0,0,1,.247.611c.022.069.142.051.131-.025h0A2.318,2.318,0,0,0,218.683,109.28Z" transform="translate(-180.021 -101.002)" fill="#263238"/>
      <path id="Path_651" data-name="Path 651" d="M204.7,134.969c-.728,4.123,3.741,18.013,6.6,20.608,4.261,3.857,12.14,6.394,15,7.22,1.245.364,4.687-8.4,3.428-8.974-2.7-1.226-11.074-3.846-11.871-4.5s-5.6-7.595-7.74-11.59C207.257,132.352,205.062,132.884,204.7,134.969Z" transform="translate(-171.083 -116.4)" fill="#eb9481"/>
      <path id="Path_652" data-name="Path 652" d="M259.065,187.25s3.719.95,6.117,1.681A15.493,15.493,0,0,1,269.6,191c1.266,1.124,5.844,6.627,4.534,7.766-1.186,1.034-4.52-4.2-4.52-4.2s3.828,4.978,2.183,5.957-4.654-5.43-4.654-5.43,3.817,5.2,1.951,5.943c-1.412.557-4.44-5.095-4.44-5.095s3.253,4.494,1.82,5.131c-1.579.706-4.7-4.338-4.7-4.338a8.823,8.823,0,0,1-7.689-1.092C253.738,195.405,259.065,187.25,259.065,187.25Z" transform="translate(-202.539 -150.598)" fill="#eb9481"/>
      <path id="Path_653" data-name="Path 653" d="M293.407,202.379c.473.568.953,1.143,1.372,1.75s.815,1.234,1.175,1.878a12.6,12.6,0,0,1,1.165,2.642,27.082,27.082,0,0,0-2.511-4.411c-.418-.608-.808-1.237-1.223-1.845C293.374,202.379,293.4,202.365,293.407,202.379Z" transform="translate(-227.542 -160.218)" fill="#263238"/>
      <path id="Path_654" data-name="Path 654" d="M287.3,206.432a15.571,15.571,0,0,1,3.151,4.618c.029.066,0,.062-.047,0-.509-.79-2.576-3.846-3.122-4.607C287.273,206.432,287.291,206.421,287.3,206.432Z" transform="translate(-223.661 -162.797)" fill="#263238"/>
      <path id="Path_655" data-name="Path 655" d="M281.394,208.976a11.4,11.4,0,0,1,2.336,3.639c.025.066-.026.055-.065,0-.753-1.226-1.336-2.183-2.311-3.606C281.339,208.976,281.372,208.944,281.394,208.976Z" transform="translate(-219.889 -164.41)" fill="#263238"/>
      <path id="Path_656" data-name="Path 656" d="M207.659,133.592c-3.322-4.7-5.309-2.959-4.643,2.143a82.321,82.321,0,0,0,2.3,10.455l8.37-4.061S209.774,136.6,207.659,133.592Z" transform="translate(-169.98 -114.721)" fill="#ffc727"/>
      <path id="Path_657" data-name="Path 657" d="M221.541,143.47a4,4,0,0,1,.291,1.689,3.762,3.762,0,0,1-.233-.83A3.555,3.555,0,0,1,221.541,143.47Z" transform="translate(-181.842 -122.75)" fill="#fff"/>
      <path id="Path_658" data-name="Path 658" d="M207.92,150.8a4,4,0,0,1,1.685-.291,3.734,3.734,0,0,1-.826.233A3.566,3.566,0,0,1,207.92,150.8Z" transform="translate(-173.181 -127.228)" fill="#fff"/>
      <path id="Path_659" data-name="Path 659" d="M206.786,131.24a4.06,4.06,0,0,1-.986,1.4A4.061,4.061,0,0,1,206.786,131.24Z" transform="translate(-171.832 -114.971)" fill="#fff"/>
      <path id="Path_660" data-name="Path 660" d="M226.276,157.35a3.8,3.8,0,0,1-.418.753,3.679,3.679,0,0,1-.568.648A4.061,4.061,0,0,1,226.276,157.35Z" transform="translate(-184.23 -131.579)" fill="#fff"/>
      <path id="Path_661" data-name="Path 661" d="M209.551,163.456a4.062,4.062,0,0,1-1.4-.986A4.06,4.06,0,0,1,209.551,163.456Z" transform="translate(-173.327 -134.836)" fill="#fff"/>
      <path id="Path_662" data-name="Path 662" d="M218.955,142.28c.448.615.91,1.215,1.368,1.82q-.175-.458-.306-.928h.022c.091.24.2.477.284.728l.131.364a.664.664,0,0,1,.029.076c.364.469.728.939,1.063,1.419.411.575.808,1.157,1.208,1.739s.8,1.306,1.237,1.892c.04.051-.728.364-.811.4s-.127-.029-.047-.055.691-.4.7-.408c-.4-.59-.862-1.132-1.281-1.7s-.833-1.143-1.237-1.721c-.819-1.179-1.568-2.4-2.384-3.584Z" transform="translate(-180.184 -121.993)" fill="#263238"/>
      <path id="Path_663" data-name="Path 663" d="M203.672,150.653a7.837,7.837,0,0,1,.364.746l.138.317c-.193-.906-.364-1.82-.564-2.726h0c.386,1.456.775,2.944,1.132,4.421.338,1.412.75,2.838.946,4.28a4.75,4.75,0,0,1,.786-.266,3.882,3.882,0,0,1-.866.418,45.423,45.423,0,0,1-1.092-4.454c-.091-.408-.175-.815-.262-1.223-.095-.247-.207-.484-.32-.728s-.215-.517-.317-.775C203.639,150.649,203.665,150.635,203.672,150.653Z" transform="translate(-170.439 -126.261)" fill="#263238"/>
      <path id="Path_664" data-name="Path 664" d="M209.865,162.766c1.165-.655,6.03-3.173,7.118-3.639.076-.033.116,0,.04.051a73.332,73.332,0,0,1-7.133,3.639C209.861,162.824,209.832,162.784,209.865,162.766Z" transform="translate(-174.408 -132.701)" fill="#263238"/>
    </g>
    <g id="freepik--Folder--inject-97" transform="translate(124.413 92.335)">
      <path id="Path_665" data-name="Path 665" d="M382.515,273.122H271.64L287.67,182.2H398.545Z" transform="translate(-255.461 -172.782)" fill="#ffc727"/>
      <path id="Path_666" data-name="Path 666" d="M353.638,156.32H317.353l-1.663,9.418h38.832Z" transform="translate(-283.481 -156.32)" fill="#ffc727"/>
      <g id="Group_2947" data-name="Group 2947" transform="translate(16.179 0)" opacity="0.1">
        <path id="Path_667" data-name="Path 667" d="M382.515,273.122H271.64L287.67,182.2H398.545Z" transform="translate(-271.64 -172.782)"/>
        <path id="Path_668" data-name="Path 668" d="M353.638,156.32H317.353l-1.663,9.418h38.832Z" transform="translate(-299.66 -156.32)"/>
      </g>
      <path id="Path_669" data-name="Path 669" d="M309.182,161.346a6.977,6.977,0,0,1,0-3.166,6.975,6.975,0,0,1,0,3.166Z" transform="translate(-279.225 -157.503)" fill="#263238"/>
      <path id="Path_670" data-name="Path 670" d="M297.867,164.657a6.183,6.183,0,0,1-.95-1.281,6.311,6.311,0,0,1-.637-1.456,6.036,6.036,0,0,1,.95,1.277A6.413,6.413,0,0,1,297.867,164.657Z" transform="translate(-271.134 -159.882)" fill="#263238"/>
      <path id="Path_671" data-name="Path 671" d="M289.45,173.323a6.98,6.98,0,0,1-2.74-1.583,6.244,6.244,0,0,1,1.456.633A6.4,6.4,0,0,1,289.45,173.323Z" transform="translate(-265.047 -166.129)" fill="#263238"/>
      <path id="Path_672" data-name="Path 672" d="M286.466,184.732a6.977,6.977,0,0,1-3.166,0A6.976,6.976,0,0,1,286.466,184.732Z" transform="translate(-262.878 -174.277)" fill="#263238"/>
      <path id="Path_673" data-name="Path 673" d="M289.817,193.91a6.422,6.422,0,0,1-1.281.95,6.243,6.243,0,0,1-1.456.633,6.187,6.187,0,0,1,1.281-.95A6.113,6.113,0,0,1,289.817,193.91Z" transform="translate(-265.282 -180.231)" fill="#263238"/>
      <path id="Path_674" data-name="Path 674" d="M298.473,200.3a6.961,6.961,0,0,1-1.583,2.744,6.123,6.123,0,0,1,.637-1.456A6.3,6.3,0,0,1,298.473,200.3Z" transform="translate(-271.522 -184.295)" fill="#263238"/>
      <path id="Path_675" data-name="Path 675" d="M309.88,202.51a6.345,6.345,0,0,1,.182,1.583,6.188,6.188,0,0,1-.182,1.583,6.03,6.03,0,0,1-.182-1.583A6.349,6.349,0,0,1,309.88,202.51Z" transform="translate(-279.669 -185.701)" fill="#263238"/>
      <path id="Path_676" data-name="Path 676" d="M319.06,199.987a6.187,6.187,0,0,1,.95,1.281,6.11,6.11,0,0,1,.633,1.456,6.961,6.961,0,0,1-1.583-2.744Z" transform="translate(-285.624 -184.092)" fill="#263238"/>
      <path id="Path_677" data-name="Path 677" d="M325.45,193.3a6.116,6.116,0,0,1,1.456.633,6.186,6.186,0,0,1,1.281.95,6.116,6.116,0,0,1-1.456-.633,6.186,6.186,0,0,1-1.281-.95Z" transform="translate(-289.689 -179.843)" fill="#263238"/>
      <path id="Path_678" data-name="Path 678" d="M327.66,184.022a6.993,6.993,0,0,1,3.17,0A7,7,0,0,1,327.66,184.022Z" transform="translate(-291.095 -173.825)" fill="#263238"/>
      <path id="Path_679" data-name="Path 679" d="M325.087,172.713a6.3,6.3,0,0,1,1.281-.946,5.984,5.984,0,0,1,1.456-.637,6.962,6.962,0,0,1-2.744,1.583Z" transform="translate(-289.454 -165.741)" fill="#263238"/>
      <path id="Path_680" data-name="Path 680" d="M318.45,164.307a6.4,6.4,0,0,1,.633-1.456,6.188,6.188,0,0,1,.95-1.281,6.112,6.112,0,0,1-.633,1.456A6.185,6.185,0,0,1,318.45,164.307Z" transform="translate(-285.236 -159.66)" fill="#263238"/>
      <path id="Path_681" data-name="Path 681" d="M354.07,278.891H242.959L227.18,191.27H338.295Z" transform="translate(-227.18 -178.551)" fill="#ffc727"/>
      <circle id="Ellipse_34" data-name="Ellipse 34" cx="4.618" cy="4.618" r="4.618" transform="translate(33.887 57.046)" fill="#263238"/>
      <circle id="Ellipse_35" data-name="Ellipse 35" cx="4.618" cy="4.618" r="4.618" transform="translate(70.394 57.046)" fill="#263238"/>
      <path id="Path_682" data-name="Path 682" d="M376.661,329.95l-.255-.484c-.022-.044-2.409-4.454-7.209-4.454a5.707,5.707,0,0,0-5.488,4.33l-.131.528-1.059-.255.127-.531c0-.051,1.3-5.164,6.55-5.164,5.459,0,8.068,4.833,8.177,5.04l.255.48Z" transform="translate(-313.269 -262.929)" fill="#263238"/>
    </g>
    <g id="freepik--Fly--inject-97" transform="translate(243.89 65.94)">
      <path id="Path_683" data-name="Path 683" d="M555.576,323.871l-.077-.364c.237-.051.469-.106.7-.167l.091.364C556.046,323.766,555.817,323.82,555.576,323.871Z" transform="translate(-555.5 -236.165)" fill="#263238"/>
      <path id="Path_684" data-name="Path 684" d="M559.75,180.482l-.116-.342c.455-.156.91-.327,1.35-.513l.142.335C560.678,180.151,560.216,180.326,559.75,180.482Zm2.711-1.161L562.3,179a14.394,14.394,0,0,0,1.255-.728l.189.309A9.313,9.313,0,0,1,562.461,179.321Zm2.5-1.539-.215-.295c.393-.288.771-.59,1.128-.9l.24.273c-.382.331-.746.64-1.157.935Zm2.22-1.936-.266-.251c.335-.364.651-.728.943-1.092l.287.222c-.3.4-.626.775-.957,1.135Zm1.8-2.329-.309-.193a10.61,10.61,0,0,0,.669-1.266l.335.149a12.274,12.274,0,0,1-.7,1.325Zm1.2-2.7-.364-.1a9.54,9.54,0,0,0,.295-1.394l.364.047a9.347,9.347,0,0,1-.3,1.463Zm.4-2.911h-.364V167.8c0-.44-.026-.888-.069-1.328l.364-.036a13.2,13.2,0,0,1,.073,1.365Zm-.655-2.849a14.219,14.219,0,0,0-.364-1.39l.364-.109a12.21,12.21,0,0,1,.364,1.423Zm-.862-2.74c-.175-.429-.364-.87-.6-1.314l.328-.164c.222.451.426.9.6,1.339Zm-1.274-2.595c-.226-.4-.473-.815-.728-1.245l.309-.193c.266.433.517.855.728,1.259Zm-1.521-2.471c-.266-.4-.535-.8-.811-1.208l.3-.2c.277.4.546.808.812,1.215Zm-1.637-2.409c-.273-.4-.55-.8-.819-1.2l.3-.2c.269.4.542.8.815,1.2Zm-1.627-2.424c-.266-.408-.524-.822-.779-1.237l.309-.189c.255.415.513.822.775,1.23Zm-1.518-2.5c-.247-.44-.477-.877-.684-1.3l.327-.164c.2.415.433.844.673,1.281Zm-1.292-2.62c-.193-.455-.364-.917-.524-1.368l.364-.116c.153.44.324.9.513,1.343Zm-.946-2.777c-.12-.473-.226-.957-.306-1.456l.364-.058c.08.466.178.939.3,1.4Zm-.488-2.911c-.036-.448-.054-.9-.054-1.35v-.12h.364v.116a10.632,10.632,0,0,0,.055,1.321Zm.364-2.911-.364-.036c0-.1.018-.2.029-.306.044-.389.1-.779.164-1.15l.364.062c-.062.364-.117.746-.16,1.128a.754.754,0,0,1-.015.313Zm.506-2.831-.364-.1c.135-.48.291-.95.466-1.4l.339.131a13.322,13.322,0,0,0-.422,1.376Zm18.133-2.122a4.555,4.555,0,0,1-.622-.058c-.284-.04-.568-.087-.848-.142l.073-.364c.269.051.55.1.826.138.2.025.4.044.59.055Zm1.5-.113-.076-.364a4.2,4.2,0,0,0,1.3-.5l.189.309a4.53,4.53,0,0,1-1.39.568Zm-18.581-.433-.324-.171a12.885,12.885,0,0,1,.768-1.259l.3.207a11.87,11.87,0,0,0-.724,1.234Zm14.192-.022a14,14,0,0,1-1.383-.52l.149-.335a12.4,12.4,0,0,0,1.343.506Zm6.914-1.135-.3-.2a2.547,2.547,0,0,0,.444-1.27l.364.025a2.912,2.912,0,0,1-.495,1.459Zm-9.607-.055a13.372,13.372,0,0,1-1.234-.812l.215-.291a12.845,12.845,0,0,0,1.2.786Zm-9.862-1.135-.269-.244a12.3,12.3,0,0,1,1.052-1.037l.24.273a12.156,12.156,0,0,0-1.012,1.019Zm7.493-.615a13.472,13.472,0,0,1-1.03-1.059l.273-.24a13.4,13.4,0,0,0,1,1.03Zm11.845-.986a3.554,3.554,0,0,0-.848-1.092l.24-.273a3.931,3.931,0,0,1,.935,1.2Zm-17.184-.287-.207-.3a14.026,14.026,0,0,1,1.263-.768l.171.32a13.76,13.76,0,0,0-1.215.757Zm3.4-.946c-.138-.2-.273-.4-.4-.6l-.473.186-.138-.335.419-.167c-.066-.109-.131-.218-.193-.327l.317-.178c.073.127.146.255.222.364q.306-.109.622-.207l.105.364c-.178.055-.364.113-.531.175a4.409,4.409,0,0,0,.364.52Zm11.765-.626a7.751,7.751,0,0,0-1.092-.444l-.24-.076.105-.364.248.08a7.862,7.862,0,0,1,1.135.462Zm-9.891-.651-.077-.364c.469-.106.957-.193,1.456-.262l.055.364c-.48.076-.957.167-1.423.273Zm7.169-.2c-.455-.08-.935-.142-1.427-.186l.029-.364c.506.044,1,.106,1.456.189Zm-4.312-.211-.026-.364c.433-.025.866-.04,1.3-.04h.178v.364h-.175c-.411.011-.841.022-1.263.051Zm-6.15-.87c-.2-.444-.364-.906-.528-1.376l.364-.113c.153.459.324.91.513,1.343Zm-.921-2.795c-.109-.469-.2-.957-.269-1.456l.364-.051c.069.48.156.957.262,1.419Zm-.408-2.911c-.018-.328-.029-.662-.029-1v-.473h.364v.466c0,.328,0,.659.025.975Zm.433-2.911-.364-.036c.051-.48.12-.972.2-1.456l.364.062a13.814,13.814,0,0,0-.215,1.437Zm.5-2.842-.364-.087c.117-.469.251-.943.4-1.416l.364.113c-.164.477-.3.939-.411,1.4Zm.873-2.755-.338-.131c.178-.455.364-.91.586-1.35l.328.16a14.278,14.278,0,0,0-.586,1.343Zm1.252-2.595-.317-.186c.247-.418.513-.837.79-1.237l.3.207c-.284.4-.542.808-.782,1.223Zm1.641-2.369-.284-.229c.306-.364.633-.75.972-1.092l.262.251a13.367,13.367,0,0,0-.961,1.077Zm1.98-2.1-.244-.269c.364-.324.728-.644,1.117-.953l.226.287c-.389.309-.761.626-1.11.943Zm2.26-1.8-.207-.3c.4-.273.812-.542,1.234-.8l.186.309c-.422.258-.815.524-1.223.8Zm2.471-1.5-.171-.32c.43-.229.874-.448,1.317-.651l.153.331c-.462.207-.888.426-1.31.648Zm2.631-1.208-.135-.342c.459-.178.921-.364,1.379-.5l.116.364c-.462.138-.921.306-1.372.484Z" transform="translate(-557.548 -93.362)" fill="#263238"/>
      <path id="Path_685" data-name="Path 685" d="M622.481,97.691l-.091-.364c.451-.116.728-.167.728-.167l.066.364S622.921,97.578,622.481,97.691Z" transform="translate(-598.048 -92.293)" fill="#263238"/>
      <path id="Path_686" data-name="Path 686" d="M629.679,89.275c-.928-2.875-7.143-1.841-5.932,1.918S630.607,92.154,629.679,89.275Z" transform="translate(-598.812 -86.228)" fill="#263238"/>
      <path id="Path_687" data-name="Path 687" d="M614.728,85.683c.047-1.263,1.8-2.234,4.283-1.787a13.842,13.842,0,0,1,4.815,2.122,14.066,14.066,0,0,1-4.956,1.758C616.362,88.049,614.681,86.942,614.728,85.683Z" transform="translate(-593.174 -83.786)" fill="#ebebeb"/>
      <path id="Path_688" data-name="Path 688" d="M626.245,89.4c-1.288,0-2.573-.036-3.857-.076s-2.573-.106-3.857-.207c1.288,0,2.576.033,3.861.073S624.964,89.3,626.245,89.4Z" transform="translate(-595.593 -87.179)" fill="#263238"/>
      <path id="Path_689" data-name="Path 689" d="M621.58,85.91a10.832,10.832,0,0,1,2.056,1.285,9.7,9.7,0,0,1-1.063-.582A10.4,10.4,0,0,1,621.58,85.91Z" transform="translate(-597.533 -85.137)" fill="#263238"/>
      <path id="Path_690" data-name="Path 690" d="M627.129,89.57A11.821,11.821,0,0,1,625,90.946a11.816,11.816,0,0,1,2.14-1.376Z" transform="translate(-599.709 -87.465)" fill="#263238"/>
      <path id="Path_691" data-name="Path 691" d="M631.88,87.62a2.634,2.634,0,0,1,.939.757,2.494,2.494,0,0,1-.513-.324A2.667,2.667,0,0,1,631.88,87.62Z" transform="translate(-604.085 -86.225)" fill="#263238"/>
      <path id="Path_692" data-name="Path 692" d="M620.7,99.773c.775,1,2.766.757,4.516-1.055A14.008,14.008,0,0,0,627.9,94.18a14.02,14.02,0,0,0-5.055,1.456C620.655,96.873,619.923,98.772,620.7,99.773Z" transform="translate(-596.782 -90.397)" fill="#ebebeb"/>
      <path id="Path_693" data-name="Path 693" d="M630.352,94.18c-1.048.728-2.067,1.536-3.09,2.318s-2.023,1.59-3,2.424c1.048-.728,2.067-1.532,3.086-2.314S629.358,95.017,630.352,94.18Z" transform="translate(-599.238 -90.397)" fill="#263238"/>
      <path id="Path_694" data-name="Path 694" d="M628.58,104.082a10.373,10.373,0,0,0,.521-1.092,9.741,9.741,0,0,0,.393-1.15,10.12,10.12,0,0,0-.52,1.092A10.366,10.366,0,0,0,628.58,104.082Z" transform="translate(-601.986 -95.27)" fill="#263238"/>
      <path id="Path_695" data-name="Path 695" d="M629.547,99.61a12.031,12.031,0,0,0-2.547.135,10.62,10.62,0,0,0,1.274,0A11.319,11.319,0,0,0,629.547,99.61Z" transform="translate(-600.981 -93.841)" fill="#263238"/>
      <path id="Path_696" data-name="Path 696" d="M635.93,98.588a2.6,2.6,0,0,0,.226-.568,2.713,2.713,0,0,0,.095-.6A2.71,2.71,0,0,0,635.93,98.588Z" transform="translate(-606.661 -92.458)" fill="#263238"/>
      <path id="Path_697" data-name="Path 697" d="M637.822,88.437a1.092,1.092,0,1,1,.7-1.372A1.092,1.092,0,0,1,637.822,88.437Z" transform="translate(-606.956 -85.389)" fill="#455a64"/>
      <path id="Path_698" data-name="Path 698" d="M639.664,94.146a1.092,1.092,0,1,1,.7-1.376A1.092,1.092,0,0,1,639.664,94.146Z" transform="translate(-608.128 -89.02)" fill="#455a64"/>
    </g>
    <g id="freepik--speech-bubble--inject-97" transform="translate(136.138 60.029)">
      <path id="Path_699" data-name="Path 699" d="M279.891,77.833a9.069,9.069,0,0,1-15.153,5.739l-4.538.666,2.271-3.923a9.069,9.069,0,1,1,17.42-2.482Z" transform="translate(-259.909 -67.725)" fill="#fff"/>
      <path id="Path_700" data-name="Path 700" d="M279.382,77.651a9.1,9.1,0,0,1-1.82,4.6A8.045,8.045,0,0,1,275.783,84a8.828,8.828,0,0,1-2.183,1.219,8.926,8.926,0,0,1-2.442.582,9.1,9.1,0,0,1-1.259.025,8.07,8.07,0,0,1-1.255-.131,9.156,9.156,0,0,1-4.487-2.216l.106.033-4.531.7-.331.051.167-.291,2.256-3.93V80.2a9.163,9.163,0,0,1,.56-8.082,9.115,9.115,0,0,1,14.309-1.972A9.1,9.1,0,0,1,279.382,77.651Zm0,0A8.97,8.97,0,0,0,269.1,67.825a8.872,8.872,0,0,0-3.745,1.477,9.349,9.349,0,0,0-2.715,2.962,8.959,8.959,0,0,0-1.154,3.836,9.049,9.049,0,0,0,.64,3.981l.033.08-.044.076-2.285,3.916-.16-.24,4.542-.637h.062l.044.04a8.938,8.938,0,0,0,4.345,2.223,7.724,7.724,0,0,0,1.23.149,8.828,8.828,0,0,0,1.241,0,9.1,9.1,0,0,0,2.424-.535,8.529,8.529,0,0,0,2.183-1.179,8.292,8.292,0,0,0,1.783-1.736A9.1,9.1,0,0,0,279.382,77.651Z" transform="translate(-259.4 -67.542)" fill="#263238"/>
      <path id="Path_701" data-name="Path 701" d="M277.337,87.971a.881.881,0,0,1,.888-.932.932.932,0,0,1,0,1.863.881.881,0,0,1-.888-.932Zm.364-2.151-.211-7.22h1.456l-.211,7.22Z" transform="translate(-270.809 -74.576)" fill="#ffc727"/>
      <path id="Path_702" data-name="Path 702" d="M286.847,87.971a.881.881,0,0,1,.884-.932.932.932,0,1,1,0,1.863.881.881,0,0,1-.884-.932Zm.364-2.151-.2-7.22h1.456l-.211,7.22Z" transform="translate(-276.858 -74.576)" fill="#ffc727"/>
      <path id="Path_703" data-name="Path 703" d="M296.347,87.971a.881.881,0,0,1,.888-.932.932.932,0,0,1,0,1.863.881.881,0,0,1-.888-.932Zm.364-2.151L296.5,78.6h1.456l-.207,7.22Z" transform="translate(-282.901 -74.576)" fill="#ffc727"/>
    </g>
  </g>
</svg>
