<svg xmlns="http://www.w3.org/2000/svg" width="44.658" height="47.848" viewBox="0 0 44.658 47.848">
  <g id="Outline" transform="translate(-15.999 -15.999)">
    <path id="Path_417" data-name="Path 417" d="M215.589,208v1.595h-.8a2.791,2.791,0,1,0,0,5.582h3.19a1.2,1.2,0,1,1,0,2.392H212.8v1.595h2.791v1.595h1.595v-1.595h.8a2.791,2.791,0,1,0,0-5.582h-3.19a1.2,1.2,0,0,1,0-2.392h5.183v-1.595h-2.791V208Z" transform="translate(-176.463 -172.861)" fill="#be2623"/>
    <path id="Path_418" data-name="Path 418" d="M81.456,123.114H74.279l-.8-1.063v-9.944A10.715,10.715,0,0,0,65.7,101.8l1.368-4.785A.8.8,0,0,0,66.3,96H61.52v1.595h3.728l-1.139,3.987H61.52v1.595h3.109a9.123,9.123,0,0,1,7.258,8.93v10.209a.8.8,0,0,0,.082.349,11.677,11.677,0,0,0-10.934.449H55.14a3.194,3.194,0,0,0-3.08,4.025l-3.175-1.454a1.6,1.6,0,0,1,.194-.338l1.914-2.552a.8.8,0,0,0,.16-.478v-8.772H49.558v8.506L47.8,124.39a3.19,3.19,0,0,0-.367.631l-2.627-1.2A3.4,3.4,0,0,0,40.4,125.3a3.7,3.7,0,0,0-.409,1.789,3.387,3.387,0,0,0,1.881,3.045l9.3,4.649a10.423,10.423,0,0,0,4.636,1.094H81.456a.8.8,0,0,0,.8-.8V123.911A.8.8,0,0,0,81.456,123.114Zm-9.57,11.164H55.8a8.822,8.822,0,0,1-3.923-.926l-9.3-4.649a1.8,1.8,0,0,1-1-1.618,2.2,2.2,0,0,1,.218-1.033,1.8,1.8,0,0,1,2.344-.785l9.068,4.154a.8.8,0,0,0,.332.073h8.772V127.9H55.14a1.595,1.595,0,1,1,0-3.19h6.114a.8.8,0,0,0,.41-.114l.075-.045a10.086,10.086,0,0,1,9.7-.372l.452.226Zm8.772,0H73.482v-9.57h7.177Z" transform="translate(-21.596 -72.026)" fill="#be2623"/>
    <circle id="Ellipse_732" data-name="Ellipse 732" cx="1.5" cy="1.5" r="1.5" transform="translate(53.335 57.359)" fill="#be2623"/>
    <path id="Path_419" data-name="Path 419" d="M21.6,37.8a.8.8,0,0,0,1.021.59L25.4,37.5l1.967,2.159a.8.8,0,0,0,1.179,0L30.518,37.5l2.783.886a.8.8,0,0,0,1.021-.59l.624-2.854,2.854-.624a.8.8,0,0,0,.59-1.021L37.5,30.518l2.159-1.967a.8.8,0,0,0,0-1.179L37.5,25.4l.886-2.783A.8.8,0,0,0,37.8,21.6l-2.854-.624-.624-2.853a.8.8,0,0,0-1.021-.59l-2.783.886L28.551,16.26a.8.8,0,0,0-1.179,0L25.4,18.419l-2.783-.886a.8.8,0,0,0-1.021.59l-.624,2.853-2.853.624a.8.8,0,0,0-.59,1.021L18.42,25.4l-2.16,1.967a.8.8,0,0,0,0,1.179l2.159,1.967L17.533,33.3a.8.8,0,0,0,.59,1.021l2.854.624Zm-1.729-8.116-1.89-1.722,1.89-1.722a.8.8,0,0,0,.223-.831l-.776-2.437,2.5-.546a.8.8,0,0,0,.609-.609l.546-2.5,2.437.776a.8.8,0,0,0,.832-.223l1.722-1.89,1.722,1.89a.8.8,0,0,0,.832.223l2.437-.776.546,2.5a.8.8,0,0,0,.609.609l2.5.546-.776,2.437a.8.8,0,0,0,.223.831l1.89,1.722-1.89,1.722a.8.8,0,0,0-.223.831l.776,2.437-2.5.546a.8.8,0,0,0-.609.609l-.546,2.5-2.437-.776a.8.8,0,0,0-.832.223l-1.722,1.89-1.722-1.89a.8.8,0,0,0-.832-.223l-2.437.776-.546-2.5a.8.8,0,0,0-.609-.609l-2.5-.546.776-2.437A.8.8,0,0,0,19.871,29.684Z" fill="#be2623"/>
    <rect id="Rectangle_273" data-name="Rectangle 273" width="11.278" height="1.595" transform="translate(23.41 31.385) rotate(-45)" fill="#be2623"/>
    <path id="Path_420" data-name="Path 420" d="M82.392,84.785A2.392,2.392,0,1,0,80,82.392,2.392,2.392,0,0,0,82.392,84.785Zm0-3.19a.8.8,0,1,1-.8.8A.8.8,0,0,1,82.392,81.595Z" transform="translate(-57.621 -57.621)" fill="#be2623"/>
    <path id="Path_421" data-name="Path 421" d="M152,138.392A2.392,2.392,0,1,0,154.392,136,2.392,2.392,0,0,0,152,138.392Zm3.19,0a.8.8,0,1,1-.8-.8A.8.8,0,0,1,155.19,138.392Z" transform="translate(-122.444 -108.039)" fill="#be2623"/>
  </g>
</svg>
