<svg id="XMLID_1418_" xmlns="http://www.w3.org/2000/svg" width="17.969" height="17.969" viewBox="0 0 17.969 17.969">
  <path id="XMLID_1755_" d="M17.627,6.954,15.489,4.826V.351A.351.351,0,0,0,15.138,0H2.831A.351.351,0,0,0,2.48.351V4.819L.1,7.192A.351.351,0,0,0,0,7.44V17.618a.351.351,0,0,0,.351.351H7.405a.351.351,0,0,0,0-.7H1.267l5.572-5.561h4.29L16.7,17.267H10.564a.351.351,0,0,0,0,.7h7.054a.351.351,0,0,0,.351-.351V7.777a1.155,1.155,0,0,0-.342-.823Zm-.36,9.886-4.28-4.272,4.28-4.28Zm-.146-9.4L15.489,9.073V5.817ZM.7,8.288l4.28,4.28L.7,16.84Zm1.778.786L.848,7.441,2.48,5.811ZM11.275,11H6.694a.351.351,0,0,0-.248.1l-.968.966-2.3-2.3V.7h11.6V9.751c0,.008,0,.015,0,.023l-2.3,2.3-.968-.966a.351.351,0,0,0-.248-.1Z" transform="translate(0)"/>
  <path id="XMLID_1989_" d="M246.351,53.041a.351.351,0,0,0,.351-.351V51.454a.351.351,0,1,0-.7,0V52.69A.351.351,0,0,0,246.351,53.041Z" transform="translate(-237.367 -49.31)"/>
  <path id="XMLID_2067_" d="M246.351,227.214a.351.351,0,0,0-.351.351V228.8a.351.351,0,0,0,.7,0v-1.236A.351.351,0,0,0,246.351,227.214Z" transform="translate(-237.367 -219.24)"/>
  <path id="XMLID_2068_" d="M316.795,156.77a.351.351,0,0,0,0,.7h1.236a.351.351,0,0,0,0-.7Z" transform="translate(-305.338 -151.268)"/>
  <path id="XMLID_2370_" d="M141.92,157.472a.351.351,0,0,0,0-.7h-1.236a.351.351,0,0,0,0,.7Z" transform="translate(-135.408 -151.268)"/>
  <path id="XMLID_2406_" d="M291.392,90.7a.35.35,0,0,0,.248-.1l.79-.79a.351.351,0,0,0-.5-.5l-.79.79a.351.351,0,0,0,.248.6Z" transform="translate(-280.827 -86.076)"/>
  <path id="XMLID_2407_" d="M179.33,201.915l-.79.79a.351.351,0,1,0,.5.5l.79-.79a.351.351,0,0,0-.5-.5Z" transform="translate(-172.175 -194.73)"/>
  <path id="XMLID_2412_" d="M291.64,201.915a.351.351,0,1,0-.5.5l.79.79a.351.351,0,0,0,.5-.5Z" transform="translate(-280.827 -194.73)"/>
  <path id="XMLID_2413_" d="M179.035,89.309a.351.351,0,0,0-.5.5l.79.79a.351.351,0,0,0,.5-.5Z" transform="translate(-172.174 -86.076)"/>
  <path id="XMLID_2414_" d="M149.8,60.922a.351.351,0,1,0-.248-.1A.353.353,0,0,0,149.8,60.922Z" transform="translate(-144.205 -58.107)"/>
  <path id="XMLID_2549_" d="M342.9,60.922a.351.351,0,1,0-.248-.1A.354.354,0,0,0,342.9,60.922Z" transform="translate(-330.528 -58.107)"/>
  <path id="XMLID_2573_" d="M149.8,253.32a.351.351,0,1,0,.248.1A.352.352,0,0,0,149.8,253.32Z" transform="translate(-144.205 -244.43)"/>
  <path id="XMLID_2574_" d="M343.149,253.919a.351.351,0,1,0-.248.1A.354.354,0,0,0,343.149,253.919Z" transform="translate(-330.528 -244.43)"/>
  <path id="XMLID_2577_" d="M224.74,127.667a1.137,1.137,0,1,0,1.137,1.137A1.138,1.138,0,0,0,224.74,127.667Zm0,1.572a.435.435,0,1,1,.435-.435A.436.436,0,0,1,224.74,129.239Z" transform="translate(-215.756 -123.186)"/>
  <path id="XMLID_2578_" d="M246.351,492a.351.351,0,1,0,.248.1A.354.354,0,0,0,246.351,492Z" transform="translate(-237.367 -474.733)"/>
</svg>
