<svg xmlns="http://www.w3.org/2000/svg" width="14.5" height="14.5" viewBox="0 0 14.5 14.5">
  <path id="Icon_ionic-ios-person" data-name="Icon ionic-ios-person" d="M18.993,18.634c-.272-1.2-1.824-1.786-2.36-1.975a17.6,17.6,0,0,0-1.967-.378,2,2,0,0,1-.91-.419A7.953,7.953,0,0,1,13.695,14a5.6,5.6,0,0,0,.43-.819,10.569,10.569,0,0,0,.317-1.431s.31,0,.419-.544a5.35,5.35,0,0,0,.279-1.265c-.023-.434-.261-.423-.261-.423a6.621,6.621,0,0,0,.257-1.937A3.111,3.111,0,0,0,11.754,4.5,3.1,3.1,0,0,0,8.367,7.581,6.906,6.906,0,0,0,8.62,9.518s-.238-.011-.261.423a5.35,5.35,0,0,0,.279,1.265c.106.544.419.544.419.544a10.569,10.569,0,0,0,.317,1.431,5.6,5.6,0,0,0,.43.819,7.953,7.953,0,0,1-.06,1.862,2,2,0,0,1-.91.419,17.6,17.6,0,0,0-1.967.378c-.536.189-2.088.774-2.36,1.975a.3.3,0,0,0,.3.366H18.7A.3.3,0,0,0,18.993,18.634Z" transform="translate(-4.5 -4.5)"/>
</svg>
