<svg xmlns="http://www.w3.org/2000/svg" width="30" height="30" viewBox="0 0 30 30">
  <g id="phone-icon" transform="translate(-1175 -15)">
    <rect id="Rectangle_3" data-name="Rectangle 3" width="30" height="30" rx="3" transform="translate(1175 15)" fill="#0d3745"/>
    <path id="Icon_feather-phone" data-name="Icon feather-phone" d="M16.093,12.7v1.95a1.3,1.3,0,0,1-1.417,1.3,12.861,12.861,0,0,1-5.608-2,12.673,12.673,0,0,1-3.9-3.9,12.861,12.861,0,0,1-2-5.634A1.3,1.3,0,0,1,4.466,3h1.95a1.3,1.3,0,0,1,1.3,1.118,8.344,8.344,0,0,0,.455,1.826,1.3,1.3,0,0,1-.292,1.371l-.825.825a10.4,10.4,0,0,0,3.9,3.9l.825-.825a1.3,1.3,0,0,1,1.371-.292,8.344,8.344,0,0,0,1.826.455A1.3,1.3,0,0,1,16.093,12.7Z" transform="translate(1180.282 20.279)" fill="none" stroke="#fff" stroke-linecap="round" stroke-linejoin="round" stroke-width="0.7"/>
  </g>
</svg>
