<svg xmlns="http://www.w3.org/2000/svg" width="14.18" height="14.18" viewBox="0 0 14.18 14.18">
  <path id="Icon_awesome-question-circle" data-name="Icon awesome-question-circle" d="M14.742,7.652A7.09,7.09,0,1,1,7.652.563,7.09,7.09,0,0,1,14.742,7.652Zm-6.9-4.746A3.7,3.7,0,0,0,4.511,4.729a.344.344,0,0,0,.078.465l.992.752a.343.343,0,0,0,.476-.061c.511-.648.861-1.023,1.638-1.023C8.279,4.862,9,5.238,9,5.8c0,.428-.353.648-.93.971-.673.377-1.562.846-1.562,2.02V8.91a.343.343,0,0,0,.343.343h1.6A.343.343,0,0,0,8.8,8.91V8.872c0-.814,2.378-.848,2.378-3.049A3.262,3.262,0,0,0,7.843,2.907ZM7.652,10a1.315,1.315,0,1,0,1.315,1.315A1.317,1.317,0,0,0,7.652,10Z" transform="translate(-0.563 -0.563)"/>
</svg>
