<svg xmlns="http://www.w3.org/2000/svg" width="22.195" height="22.195" viewBox="0 0 22.195 22.195">
  <g id="referal-zoom-in" transform="translate(0 0)">
    <g id="Group_2693" data-name="Group 2693" transform="translate(0 0)">
      <g id="Group_2692" data-name="Group 2692" transform="translate(0 0)">
        <path id="Path_473" data-name="Path 473" d="M21.941,20.714l-6.262-6.262a8.845,8.845,0,1,0-1.226,1.226l6.262,6.262a.867.867,0,0,0,1.226-1.226Zm-8.071-6.845a7.111,7.111,0,1,1,0-10.057A7.119,7.119,0,0,1,13.869,13.869Z" transform="translate(0 0)" fill="#fff"/>
      </g>
    </g>
    <g id="Group_2695" data-name="Group 2695" transform="translate(3.728 3.728)">
      <g id="Group_2694" data-name="Group 2694">
        <path id="Path_474" data-name="Path 474" d="M95.364,90.251H91.985V86.872a.867.867,0,1,0-1.734,0v3.379H86.872a.867.867,0,1,0,0,1.734h3.379v3.379a.867.867,0,1,0,1.734,0V91.985h3.379a.867.867,0,1,0,0-1.734Z" transform="translate(-86.005 -86.005)" fill="#fff"/>
      </g>
    </g>
  </g>
</svg>
