<svg xmlns="http://www.w3.org/2000/svg" width="21.375" height="24" viewBox="0 0 21.375 24">
  <g id="sales-icon" transform="translate(-27.988)">
    <g id="Group_4" data-name="Group 4" transform="translate(28.74 9.376)">
      <g id="Group_3" data-name="Group 3" transform="translate(0)">
        <path id="Path_56" data-name="Path 56" d="M44.366,199.908h0a.184.184,0,0,0-.184.186.187.187,0,1,0,.187-.186Z" transform="translate(-44.179 -199.908)" fill="#f46a6a"/>
      </g>
    </g>
    <g id="Group_6" data-name="Group 6" transform="translate(29.482 9.376)">
      <g id="Group_5" data-name="Group 5">
        <path id="Path_57" data-name="Path 57" d="M60.358,199.908h0a.184.184,0,0,0-.184.186.187.187,0,1,0,.187-.186Z" transform="translate(-60.171 -199.908)" fill="#f46a6a"/>
      </g>
    </g>
    <g id="Group_8" data-name="Group 8" transform="translate(30.225 9.376)">
      <g id="Group_7" data-name="Group 7">
        <path id="Path_58" data-name="Path 58" d="M76.351,199.908h0a.184.184,0,0,0-.184.186.187.187,0,1,0,.187-.186Z" transform="translate(-76.164 -199.908)" fill="#f46a6a"/>
      </g>
    </g>
    <g id="Group_10" data-name="Group 10" transform="translate(27.988 9.004)">
      <g id="Group_9" data-name="Group 9" transform="translate(0)">
        <path id="Path_59" data-name="Path 59" d="M47.315,191.912H28.551a.561.561,0,0,0-.563.557v.371a.187.187,0,0,0,.188.186H47.69a.187.187,0,0,0,.188-.186v-.371A.561.561,0,0,0,47.315,191.912Zm.188.743H28.363v-.186a.187.187,0,0,1,.188-.186H47.315a.189.189,0,0,1,.188.186Z" transform="translate(-27.988 -191.912)" fill="#f46a6a"/>
      </g>
    </g>
    <g id="Group_12" data-name="Group 12" transform="translate(47.506 9.788)">
      <g id="Group_11" data-name="Group 11">
        <path id="Path_60" data-name="Path 60" d="M443.982,207.9a.186.186,0,0,0-.186.186V214.4a.186.186,0,0,0,.371,0v-6.312A.186.186,0,0,0,443.982,207.9Z" transform="translate(-443.796 -207.905)" fill="#f46a6a"/>
      </g>
    </g>
    <g id="Group_14" data-name="Group 14" transform="translate(27.988 9.891)">
      <g id="Group_13" data-name="Group 13" transform="translate(0)">
        <path id="Path_61" data-name="Path 61" d="M28.174,207.9a.186.186,0,0,0-.186.186v11.881a.186.186,0,0,0,.371,0V208.091A.186.186,0,0,0,28.174,207.9Z" transform="translate(-27.988 -207.905)" fill="#f46a6a"/>
      </g>
    </g>
    <g id="Group_16" data-name="Group 16" transform="translate(27.988 21.772)">
      <g id="Group_15" data-name="Group 15" transform="translate(0)">
        <path id="Path_62" data-name="Path 62" d="M42.282,463.787H28.174a.186.186,0,0,0,0,.371H42.282a.186.186,0,1,0,0-.371Z" transform="translate(-27.988 -463.787)" fill="#f46a6a"/>
      </g>
    </g>
    <g id="Group_18" data-name="Group 18" transform="translate(32.875 17.323)">
      <g id="Group_17" data-name="Group 17" transform="translate(0)">
        <path id="Path_63" data-name="Path 63" d="M136,371.008l-1.856-2.97a.193.193,0,0,0-.315,0l-1.856,2.97a.186.186,0,1,0,.315.2l1.7-2.718,1.7,2.718a.186.186,0,1,0,.315-.2Z" transform="translate(-131.939 -367.956)" fill="#f46a6a"/>
      </g>
    </g>
    <g id="Group_20" data-name="Group 20" transform="translate(30.958 18.431)">
      <g id="Group_19" data-name="Group 19" transform="translate(0)">
        <path id="Path_64" data-name="Path 64" d="M94.5,393.195l-.9-1.294a.185.185,0,0,0-.152-.079h0a.185.185,0,0,0-.152.079l-1.3,1.856a.186.186,0,1,0,.3.213l1.152-1.639.751,1.077a.186.186,0,1,0,.3-.212Z" transform="translate(-91.958 -391.821)" fill="#f46a6a"/>
      </g>
    </g>
    <g id="Group_22" data-name="Group 22" transform="translate(29.473 11.268)">
      <g id="Group_21" data-name="Group 21">
        <path id="Path_65" data-name="Path 65" d="M76.7,239.89H60.161a.187.187,0,0,0-.188.186v2.97a.187.187,0,0,0,.188.186H76.7a.187.187,0,0,0,.188-.186v-2.97A.187.187,0,0,0,76.7,239.89Zm-.188,2.97H60.349v-2.6H76.517Z" transform="translate(-59.973 -239.89)" fill="#f46a6a"/>
      </g>
    </g>
    <g id="Group_24" data-name="Group 24" transform="translate(29.473 15.461)">
      <g id="Group_23" data-name="Group 23">
        <path id="Path_66" data-name="Path 66" d="M67.584,327.85H60.159a.186.186,0,0,0-.186.186v4.827a.186.186,0,0,0,.186.186h7.426a.186.186,0,0,0,.186-.186v-4.827A.186.186,0,0,0,67.584,327.85Zm-.186,4.827H60.344v-4.455H67.4Z" transform="translate(-59.973 -327.85)" fill="#f46a6a"/>
      </g>
    </g>
    <g id="Group_26" data-name="Group 26" transform="translate(30.216 16.136)">
      <g id="Group_25" data-name="Group 25" transform="translate(0)">
        <path id="Path_67" data-name="Path 67" d="M76.708,343.843a.743.743,0,1,0,.743.743A.743.743,0,0,0,76.708,343.843Zm0,1.114a.371.371,0,1,1,.371-.371A.372.372,0,0,1,76.708,344.957Z" transform="translate(-75.965 -343.843)" fill="#f46a6a"/>
      </g>
    </g>
    <g id="Group_28" data-name="Group 28" transform="translate(38.596 16.128)">
      <g id="Group_27" data-name="Group 27" transform="translate(0)">
        <path id="Path_68" data-name="Path 68" d="M259.5,343.843h-7.426a.186.186,0,0,0,0,.371H259.5a.186.186,0,1,0,0-.371Z" transform="translate(-251.885 -343.843)" fill="#f46a6a"/>
      </g>
    </g>
    <g id="Group_30" data-name="Group 30" transform="translate(38.519 17.253)">
      <g id="Group_29" data-name="Group 29" transform="translate(0)">
        <path id="Path_69" data-name="Path 69" d="M256.526,367.832h-4.455a.186.186,0,0,0,0,.371h4.455a.186.186,0,0,0,0-.371Z" transform="translate(-251.885 -367.832)" fill="#f46a6a"/>
      </g>
    </g>
    <g id="Group_32" data-name="Group 32" transform="translate(38.513 18.378)">
      <g id="Group_31" data-name="Group 31" transform="translate(0)">
        <path id="Path_70" data-name="Path 70" d="M255.783,391.821h-3.713a.186.186,0,1,0,0,.371h3.713a.186.186,0,1,0,0-.371Z" transform="translate(-251.885 -391.821)" fill="#f46a6a"/>
      </g>
    </g>
    <g id="Group_34" data-name="Group 34" transform="translate(38.51 19.545)">
      <g id="Group_33" data-name="Group 33" transform="translate(0)">
        <path id="Path_71" data-name="Path 71" d="M255.412,415.81h-3.342a.186.186,0,1,0,0,.371h3.342a.186.186,0,1,0,0-.371Z" transform="translate(-251.885 -415.81)" fill="#f46a6a"/>
      </g>
    </g>
    <g id="Group_36" data-name="Group 36" transform="translate(31.416 12.377)">
      <g id="Group_35" data-name="Group 35" transform="translate(0)">
        <path id="Path_72" data-name="Path 72" d="M112.763,263.879H100.14a.186.186,0,1,0,0,.371h12.624a.186.186,0,1,0,0-.371Z" transform="translate(-99.954 -263.879)" fill="#f46a6a"/>
      </g>
    </g>
    <g id="Group_38" data-name="Group 38" transform="translate(33.651 13.127)">
      <g id="Group_37" data-name="Group 37" transform="translate(0)">
        <path id="Path_73" data-name="Path 73" d="M156.287,279.872h-8.168a.186.186,0,1,0,0,.371h8.168a.186.186,0,0,0,0-.371Z" transform="translate(-147.933 -279.872)" fill="#f46a6a"/>
      </g>
    </g>
    <g id="Group_40" data-name="Group 40" transform="translate(30.958 2.785)">
      <g id="Group_39" data-name="Group 39" transform="translate(0)">
        <path id="Path_74" data-name="Path 74" d="M93.258,59.974a1.318,1.318,0,0,0-1.3,1.39,1.324,1.324,0,1,0,2.6,0A1.318,1.318,0,0,0,93.258,59.974Zm0,2.6a1.331,1.331,0,0,1-.928-1.208.932.932,0,1,1,1.856,0A1.307,1.307,0,0,1,93.258,62.573Z" transform="translate(-91.959 -59.974)" fill="#f46a6a"/>
      </g>
    </g>
    <g id="Group_42" data-name="Group 42" transform="translate(32.866 5.439)">
      <g id="Group_41" data-name="Group 41" transform="translate(0)">
        <path id="Path_75" data-name="Path 75" d="M133.04,116.406a4.59,4.59,0,0,1-.747-.354.186.186,0,0,0-.353.08c0,.107,0,.24.965.62a.186.186,0,0,0,.136-.346Z" transform="translate(-131.939 -115.947)" fill="#f46a6a"/>
      </g>
    </g>
    <g id="Group_44" data-name="Group 44" transform="translate(32.864 4.979)">
      <g id="Group_43" data-name="Group 43" transform="translate(0)">
        <path id="Path_76" data-name="Path 76" d="M132.126,106.124a.186.186,0,0,0-.186.186v.456a.186.186,0,0,0,.371,0v-.456A.186.186,0,0,0,132.126,106.124Z" transform="translate(-131.94 -106.124)" fill="#f46a6a"/>
      </g>
    </g>
    <g id="Group_46" data-name="Group 46" transform="translate(30.482 5.439)">
      <g id="Group_45" data-name="Group 45" transform="translate(0)">
        <path id="Path_77" data-name="Path 77" d="M82.744,115.947a.186.186,0,0,0-.167.105,4.583,4.583,0,0,1-.747.354.186.186,0,0,0,.136.346c.965-.379.965-.513.965-.62A.186.186,0,0,0,82.744,115.947Z" transform="translate(-81.712 -115.947)" fill="#f46a6a"/>
      </g>
    </g>
    <g id="Group_48" data-name="Group 48" transform="translate(31.329 4.979)">
      <g id="Group_47" data-name="Group 47" transform="translate(0)">
        <path id="Path_78" data-name="Path 78" d="M100.14,106.124a.186.186,0,0,0-.186.186v.456a.186.186,0,1,0,.371,0v-.456A.186.186,0,0,0,100.14,106.124Z" transform="translate(-99.954 -106.124)" fill="#f46a6a"/>
      </g>
    </g>
    <g id="Group_50" data-name="Group 50" transform="translate(29.844 2.042)">
      <g id="Group_49" data-name="Group 49" transform="translate(0)">
        <path id="Path_79" data-name="Path 79" d="M70.381,43.979a2.413,2.413,0,1,0,2.413,2.413A2.416,2.416,0,0,0,70.381,43.979Zm0,4.455a2.042,2.042,0,1,1,2.042-2.042A2.044,2.044,0,0,1,70.381,48.434Z" transform="translate(-67.968 -43.979)" fill="#f46a6a"/>
      </g>
    </g>
    <g id="Group_52" data-name="Group 52" transform="translate(42.258 2.785)">
      <g id="Group_51" data-name="Group 51">
        <path id="Path_80" data-name="Path 80" d="M333.147,59.974a1.317,1.317,0,0,0-1.3,1.39,1.324,1.324,0,1,0,2.6,0A1.318,1.318,0,0,0,333.147,59.974Zm0,2.6a1.331,1.331,0,0,1-.928-1.208.932.932,0,1,1,1.856,0A1.308,1.308,0,0,1,333.147,62.573Z" transform="translate(-331.848 -59.974)" fill="#f46a6a"/>
      </g>
    </g>
    <g id="Group_54" data-name="Group 54" transform="translate(44.123 5.439)">
      <g id="Group_53" data-name="Group 53" transform="translate(0)">
        <path id="Path_81" data-name="Path 81" d="M372.931,116.406a4.6,4.6,0,0,1-.747-.354.186.186,0,0,0-.353.08c0,.107,0,.24.965.62a.186.186,0,1,0,.136-.346Z" transform="translate(-371.831 -115.947)" fill="#f46a6a"/>
      </g>
    </g>
    <g id="Group_56" data-name="Group 56" transform="translate(44.116 4.979)">
      <g id="Group_55" data-name="Group 55">
        <path id="Path_82" data-name="Path 82" d="M372.016,106.124a.186.186,0,0,0-.186.186v.456a.186.186,0,1,0,.371,0v-.456A.186.186,0,0,0,372.016,106.124Z" transform="translate(-371.83 -106.124)" fill="#f46a6a"/>
      </g>
    </g>
    <g id="Group_58" data-name="Group 58" transform="translate(41.766 5.439)">
      <g id="Group_57" data-name="Group 57">
        <path id="Path_83" data-name="Path 83" d="M322.633,115.947a.186.186,0,0,0-.168.105,4.585,4.585,0,0,1-.747.354.186.186,0,0,0,.136.346c.965-.379.965-.513.965-.62A.186.186,0,0,0,322.633,115.947Z" transform="translate(-321.6 -115.947)" fill="#f46a6a"/>
      </g>
    </g>
    <g id="Group_60" data-name="Group 60" transform="translate(42.616 4.979)">
      <g id="Group_59" data-name="Group 59" transform="translate(0)">
        <path id="Path_84" data-name="Path 84" d="M340.031,106.124a.186.186,0,0,0-.186.186v.456a.186.186,0,1,0,.371,0v-.456A.186.186,0,0,0,340.031,106.124Z" transform="translate(-339.845 -106.124)" fill="#f46a6a"/>
      </g>
    </g>
    <g id="Group_62" data-name="Group 62" transform="translate(41.151 2.042)">
      <g id="Group_61" data-name="Group 61" transform="translate(0)">
        <path id="Path_85" data-name="Path 85" d="M310.272,43.979a2.413,2.413,0,1,0,2.413,2.413A2.416,2.416,0,0,0,310.272,43.979Zm0,4.455a2.042,2.042,0,1,1,2.042-2.042A2.045,2.045,0,0,1,310.272,48.434Z" transform="translate(-307.859 -43.979)" fill="#f46a6a"/>
      </g>
    </g>
    <g id="Group_64" data-name="Group 64" transform="translate(36.625 0.743)">
      <g id="Group_63" data-name="Group 63" transform="translate(0)">
        <path id="Path_86" data-name="Path 86" d="M213.2,15.994a1.318,1.318,0,0,0-1.3,1.39,1.324,1.324,0,1,0,2.6,0A1.318,1.318,0,0,0,213.2,15.994Zm0,2.6a1.331,1.331,0,0,1-.928-1.208.932.932,0,1,1,1.856,0A1.307,1.307,0,0,1,213.2,18.593Z" transform="translate(-211.904 -15.994)" fill="#f46a6a"/>
      </g>
    </g>
    <g id="Group_66" data-name="Group 66" transform="translate(38.494 3.342)">
      <g id="Group_65" data-name="Group 65" transform="translate(0)">
        <path id="Path_87" data-name="Path 87" d="M252.985,72.426a4.594,4.594,0,0,1-.747-.354.186.186,0,0,0-.353.08c0,.107,0,.24.965.62a.186.186,0,1,0,.136-.346Z" transform="translate(-251.885 -71.967)" fill="#f46a6a"/>
      </g>
    </g>
    <g id="Group_68" data-name="Group 68" transform="translate(38.49 2.885)">
      <g id="Group_67" data-name="Group 67" transform="translate(0)">
        <path id="Path_88" data-name="Path 88" d="M252.071,62.144a.186.186,0,0,0-.186.186v.456a.186.186,0,1,0,.371,0V62.33A.186.186,0,0,0,252.071,62.144Z" transform="translate(-251.885 -62.144)" fill="#f46a6a"/>
      </g>
    </g>
    <g id="Group_70" data-name="Group 70" transform="translate(36.137 3.342)">
      <g id="Group_69" data-name="Group 69" transform="translate(0)">
        <path id="Path_89" data-name="Path 89" d="M202.689,71.967a.186.186,0,0,0-.167.105,4.584,4.584,0,0,1-.747.354.186.186,0,0,0,.136.346c.965-.379.965-.513.965-.62A.186.186,0,0,0,202.689,71.967Z" transform="translate(-201.657 -71.967)" fill="#f46a6a"/>
      </g>
    </g>
    <g id="Group_72" data-name="Group 72" transform="translate(36.99 2.885)">
      <g id="Group_71" data-name="Group 71" transform="translate(0)">
        <path id="Path_90" data-name="Path 90" d="M220.086,62.144a.186.186,0,0,0-.186.186v.456a.186.186,0,1,0,.371,0V62.33A.186.186,0,0,0,220.086,62.144Z" transform="translate(-219.9 -62.144)" fill="#f46a6a"/>
      </g>
    </g>
    <g id="Group_74" data-name="Group 74" transform="translate(35.51)">
      <g id="Group_73" data-name="Group 73">
        <path id="Path_91" data-name="Path 91" d="M190.327,0a2.413,2.413,0,1,0,2.413,2.413A2.416,2.416,0,0,0,190.327,0Zm0,4.455a2.042,2.042,0,1,1,2.042-2.042A2.044,2.044,0,0,1,190.327,4.455Z" transform="translate(-187.914)" fill="#f46a6a"/>
      </g>
    </g>
    <g id="Group_76" data-name="Group 76" transform="translate(39.251 6.381)">
      <g id="Group_75" data-name="Group 75">
        <path id="Path_92" data-name="Path 92" d="M270.064,136.012a.186.186,0,0,0-.261-.029l-1.856,1.484a.186.186,0,0,0,.232.29l1.856-1.484A.186.186,0,0,0,270.064,136.012Z" transform="translate(-267.877 -135.943)" fill="#f46a6a"/>
      </g>
    </g>
    <g id="Group_78" data-name="Group 78" transform="translate(39.24 7.502)">
      <g id="Group_77" data-name="Group 77" transform="translate(0)">
        <path id="Path_93" data-name="Path 93" d="M268.063,159.927a.186.186,0,0,0-.186.186v.371a.186.186,0,0,0,.371,0v-.371A.186.186,0,0,0,268.063,159.927Z" transform="translate(-267.877 -159.927)" fill="#f46a6a"/>
      </g>
    </g>
    <g id="Group_80" data-name="Group 80" transform="translate(39.242 7.876)">
      <g id="Group_79" data-name="Group 79" transform="translate(0)">
        <path id="Path_94" data-name="Path 94" d="M268.434,167.923h-.371a.186.186,0,0,0,0,.371h.371a.186.186,0,0,0,0-.371Z" transform="translate(-267.877 -167.923)" fill="#f46a6a"/>
      </g>
    </g>
    <g id="Group_82" data-name="Group 82" transform="translate(34.37 6.381)">
      <g id="Group_81" data-name="Group 81">
        <path id="Path_95" data-name="Path 95" d="M166.082,137.467l-1.856-1.484a.186.186,0,1,0-.232.29l1.856,1.484a.186.186,0,1,0,.232-.29Z" transform="translate(-163.924 -135.943)" fill="#f46a6a"/>
      </g>
    </g>
    <g id="Group_84" data-name="Group 84" transform="translate(36.239 7.502)">
      <g id="Group_83" data-name="Group 83">
        <path id="Path_96" data-name="Path 96" d="M204.093,159.927a.186.186,0,0,0-.186.186v.371a.186.186,0,0,0,.371,0v-.371A.186.186,0,0,0,204.093,159.927Z" transform="translate(-203.907 -159.927)" fill="#f46a6a"/>
      </g>
    </g>
    <g id="Group_86" data-name="Group 86" transform="translate(35.866 7.876)">
      <g id="Group_85" data-name="Group 85">
        <path id="Path_97" data-name="Path 97" d="M196.467,167.923H196.1a.186.186,0,0,0,0,.371h.371a.186.186,0,1,0,0-.371Z" transform="translate(-195.91 -167.923)" fill="#f46a6a"/>
      </g>
    </g>
    <g id="Group_88" data-name="Group 88" transform="translate(37.74 5.256)">
      <g id="Group_87" data-name="Group 87" transform="translate(0)">
        <path id="Path_98" data-name="Path 98" d="M236.078,111.949a.186.186,0,0,0-.186.186v2.227a.186.186,0,0,0,.371,0v-2.227A.186.186,0,0,0,236.078,111.949Z" transform="translate(-235.892 -111.949)" fill="#f46a6a"/>
      </g>
    </g>
    <g id="Group_90" data-name="Group 90" transform="translate(37.741 7.236)">
      <g id="Group_89" data-name="Group 89" transform="translate(0)">
        <path id="Path_99" data-name="Path 99" d="M236.471,154.311a.186.186,0,0,0-.263,0l-.263.263a.186.186,0,1,0,.263.263l.263-.263A.186.186,0,0,0,236.471,154.311Z" transform="translate(-235.892 -154.257)" fill="#f46a6a"/>
      </g>
    </g>
    <g id="Group_92" data-name="Group 92" transform="translate(37.475 7.236)">
      <g id="Group_91" data-name="Group 91" transform="translate(0)">
        <path id="Path_100" data-name="Path 100" d="M230.809,154.574l-.263-.263a.186.186,0,1,0-.263.263l.263.263a.186.186,0,1,0,.262-.263Z" transform="translate(-230.229 -154.257)" fill="#f46a6a"/>
      </g>
    </g>
    <g id="Group_94" data-name="Group 94" transform="translate(43.051 16.946)">
      <g id="Group_93" data-name="Group 93" transform="translate(0)">
        <path id="Path_101" data-name="Path 101" d="M351,359.835a3.156,3.156,0,1,0,3.156,3.156A3.16,3.16,0,0,0,351,359.835Zm0,5.94a2.785,2.785,0,1,1,2.785-2.785A2.788,2.788,0,0,1,351,365.776Z" transform="translate(-347.841 -359.835)" fill="#f46a6a"/>
      </g>
    </g>
    <g id="Group_96" data-name="Group 96" transform="translate(43.051 20.658)">
      <g id="Group_95" data-name="Group 95" transform="translate(0)">
        <path id="Path_102" data-name="Path 102" d="M353.966,439.8a.185.185,0,0,0-.186.186,2.785,2.785,0,1,1-5.569,0,.186.186,0,0,0-.371,0,3.156,3.156,0,0,0,6.312,0A.185.185,0,0,0,353.966,439.8Z" transform="translate(-347.84 -439.799)" fill="#f46a6a"/>
      </g>
    </g>
    <g id="Group_98" data-name="Group 98" transform="translate(42.991 19.916)">
      <g id="Group_97" data-name="Group 97" transform="translate(0)">
        <path id="Path_103" data-name="Path 103" d="M348.027,423.806a.186.186,0,0,0-.186.186v.742a.186.186,0,1,0,.371,0v-.742A.186.186,0,0,0,348.027,423.806Z" transform="translate(-347.841 -423.806)" fill="#f46a6a"/>
      </g>
    </g>
    <g id="Group_100" data-name="Group 100" transform="translate(48.992 19.916)">
      <g id="Group_99" data-name="Group 99">
        <path id="Path_104" data-name="Path 104" d="M475.968,423.806a.186.186,0,0,0-.186.186v.742a.186.186,0,1,0,.371,0v-.742A.186.186,0,0,0,475.968,423.806Z" transform="translate(-475.782 -423.806)" fill="#f46a6a"/>
      </g>
    </g>
    <g id="Group_102" data-name="Group 102" transform="translate(46.021 18.802)">
      <g id="Group_101" data-name="Group 101" transform="translate(0)">
        <path id="Path_105" data-name="Path 105" d="M412,399.816a.186.186,0,0,0-.186.186v2.228a.186.186,0,1,0,.371,0V400A.186.186,0,0,0,412,399.816Z" transform="translate(-411.812 -399.816)" fill="#f46a6a"/>
      </g>
    </g>
    <g id="Group_104" data-name="Group 104" transform="translate(46.021 22.886)">
      <g id="Group_103" data-name="Group 103" transform="translate(0)">
        <path id="Path_106" data-name="Path 106" d="M412,487.777a.186.186,0,0,0-.186.186v.743a.186.186,0,1,0,.371,0v-.743A.186.186,0,0,0,412,487.777Z" transform="translate(-411.812 -487.777)" fill="#f46a6a"/>
      </g>
    </g>
    <g id="Group_106" data-name="Group 106" transform="translate(47.506 22.489)">
      <g id="Group_105" data-name="Group 105">
        <path id="Path_107" data-name="Path 107" d="M443.982,479.218a.186.186,0,0,0-.186.186v.743a.186.186,0,1,0,.371,0V479.4A.186.186,0,0,0,443.982,479.218Z" transform="translate(-443.796 -479.218)" fill="#f46a6a"/>
      </g>
    </g>
    <g id="Group_108" data-name="Group 108" transform="translate(44.491 22.489)">
      <g id="Group_107" data-name="Group 107" transform="translate(0)">
        <path id="Path_108" data-name="Path 108" d="M380.012,479.218a.186.186,0,0,0-.186.186v.743a.186.186,0,1,0,.371,0V479.4A.186.186,0,0,0,380.012,479.218Z" transform="translate(-379.826 -479.218)" fill="#f46a6a"/>
      </g>
    </g>
  </g>
</svg>
