<svg xmlns="http://www.w3.org/2000/svg" width="25" height="25" viewBox="0 0 25 25">
  <g id="Group_2887" data-name="Group 2887" transform="translate(-120 -667)">
    <rect id="Rectangle_313" data-name="Rectangle 313" width="25" height="25" rx="5" transform="translate(120 667)" fill="#0d3745"/>
    <path id="Icon_ionic-ios-person" data-name="Icon ionic-ios-person" d="M17.012,16.7c-.235-1.037-1.575-1.542-2.037-1.7a15.191,15.191,0,0,0-1.7-.326,1.726,1.726,0,0,1-.786-.362,6.866,6.866,0,0,1-.052-1.607,4.835,4.835,0,0,0,.372-.707,9.125,9.125,0,0,0,.274-1.236s.267,0,.362-.469A4.619,4.619,0,0,0,13.687,9.2c-.02-.375-.225-.365-.225-.365a5.716,5.716,0,0,0,.222-1.672A2.686,2.686,0,0,0,10.763,4.5,2.674,2.674,0,0,0,7.839,7.16a5.962,5.962,0,0,0,.218,1.672s-.205-.01-.225.365a4.619,4.619,0,0,0,.241,1.092c.091.469.362.469.362.469a9.124,9.124,0,0,0,.274,1.236,4.835,4.835,0,0,0,.372.707,6.866,6.866,0,0,1-.052,1.607,1.726,1.726,0,0,1-.786.362,15.191,15.191,0,0,0-1.7.326c-.463.163-1.8.668-2.037,1.7a.261.261,0,0,0,.258.316H16.758A.26.26,0,0,0,17.012,16.7Z" transform="translate(122.045 668.741)" fill="#fff"/>
  </g>
</svg>
