<svg id="scheduled-calls-icon" xmlns="http://www.w3.org/2000/svg" width="17" height="17" viewBox="0 0 17 17">
  <g id="Group_2460" data-name="Group 2460">
    <path id="Path_363" data-name="Path 363" d="M15.658,11.193a9.7,9.7,0,0,1-3.05-.486,1.307,1.307,0,0,0-1.327.281l-1.93,1.458a10.78,10.78,0,0,1-4.8-4.8L5.971,5.765A1.355,1.355,0,0,0,6.3,4.4a9.73,9.73,0,0,1-.488-3.054A1.344,1.344,0,0,0,4.474,0H1.342A1.344,1.344,0,0,0,0,1.342,15.676,15.676,0,0,0,15.658,17,1.344,1.344,0,0,0,17,15.658V12.535A1.344,1.344,0,0,0,15.658,11.193Zm.447,4.465a.448.448,0,0,1-.447.447A14.78,14.78,0,0,1,.895,1.342.448.448,0,0,1,1.342.895H4.474a.448.448,0,0,1,.447.447,10.622,10.622,0,0,0,.53,3.328.5.5,0,0,1-.154.51L3.668,7.337a.447.447,0,0,0-.041.472,11.739,11.739,0,0,0,5.563,5.563.445.445,0,0,0,.473-.041l2.2-1.67a.449.449,0,0,1,.455-.106,10.615,10.615,0,0,0,3.336.532.448.448,0,0,1,.447.447v3.123Z"/>
  </g>
</svg>
