<svg xmlns="http://www.w3.org/2000/svg" width="23.998" height="24" viewBox="0 0 23.998 24">
  <g id="iconfinder_Configuration-01_1976051" transform="translate(-2.15 -2.275)">
    <path id="Path_5" data-name="Path 5" d="M25.7,12.293l.445-1.194L24.878,8.036,23.72,7.507l-1.341.447-.335-.1a10.134,10.134,0,0,0-1.469-1.467l-.1-.337L20.917,4.7l-.529-1.158L17.325,2.275l-1.193.446L15.5,3.987l-.312.163a10.1,10.1,0,0,0-2.076,0L12.8,3.985l-.632-1.263-1.193-.447L7.909,3.544,7.381,4.7l.447,1.34-.106.336A10.073,10.073,0,0,0,6.255,7.848l-.336.1L4.578,7.506l-1.158.529L2.15,11.1l.445,1.194,1.266.633.163.312a10.191,10.191,0,0,0,0,2.076l-.162.312L2.6,16.258l-.445,1.194,1.269,3.064,1.158.529,1.34-.446.335.1A10.134,10.134,0,0,0,7.723,22.17l.1.335-.447,1.342.53,1.158,3.064,1.269,1.194-.446.632-1.264.312-.163a10.116,10.116,0,0,0,2.077,0l.311.163.632,1.263,1.193.445L20.388,25l.529-1.158-.446-1.34.1-.335A10.133,10.133,0,0,0,22.042,20.7l.335-.1,1.342.447,1.158-.529,1.269-3.065L25.7,16.257l-1.266-.633-.163-.311a10.2,10.2,0,0,0,0-2.077l.162-.312Zm-2.094-.213-.491.94.021.173a9,9,0,0,1,0,2.157l-.021.174.492.942,1.194.6.135.363-.931,2.245-.352.161-1.267-.421-1.014.318-.108.138a9,9,0,0,1-1.524,1.528L19.6,21.5l-.318,1.014.421,1.266-.161.352-2.245.931-.363-.135-.6-1.193-.94-.492-.173.021a9.011,9.011,0,0,1-2.159,0l-.173-.021-.942.492-.6,1.2-.363.135L8.75,24.133l-.161-.352.421-1.267L8.693,21.5l-.138-.108a9,9,0,0,1-1.528-1.525L6.92,19.73l-1.012-.318-1.266.423-.352-.161L3.36,17.429l.135-.363,1.031-.516.184-.123.47-.9-.021-.173a9,9,0,0,1,0-2.157l.021-.174-.492-.942-1.194-.6-.136-.363L4.29,8.876l.352-.161,1.267.421,1.014-.318.108-.138A9,9,0,0,1,8.555,7.154l.138-.108.317-1.014-.42-1.263.161-.352,2.245-.931.363.135.6,1.193.94.492.173-.021a9,9,0,0,1,2.157,0l.174.021.942-.493.6-1.2.363-.135,2.245.931.161.352-.421,1.267L19.6,7.048l.138.108a9,9,0,0,1,1.528,1.525l.107.138,1.013.318,1.266-.421.352.161.931,2.245-.135.363Z" transform="translate(0)" fill="#f5f5f5"/>
    <path id="Path_6" data-name="Path 6" d="M14.143,7a7.226,7.226,0,1,0,7.234,7.226A7.237,7.237,0,0,0,14.143,7Zm0,13.137a5.911,5.911,0,1,1,5.918-5.911A5.921,5.921,0,0,1,14.143,20.135Z" transform="translate(0 0)" fill="#f5f5f5"/>
  </g>
</svg>
