<svg xmlns="http://www.w3.org/2000/svg" width="16.464" height="17.24" viewBox="0 0 16.464 17.24">
  <g id="report_1_" data-name="report (1)" transform="translate(0 0)">
    <path id="Path_463" data-name="Path 463" d="M0,15.712A1.578,1.578,0,0,0,1.614,17.24h9.472a1.584,1.584,0,0,0,1.579-1.272,1.554,1.554,0,0,0,1.343-1.508V7.577h.77a.275.275,0,0,0,.152-.042l1.408-.915a.277.277,0,0,0,0-.465l-1.408-.924a.286.286,0,0,0-.152-.053h-.77V3.662a.344.344,0,0,0-.124-.239L10.679.157A.279.279,0,0,0,10.613.09L10.6.082a.277.277,0,0,0-.2-.082H2.934A1.59,1.59,0,0,0,1.349,1.272,1.559,1.559,0,0,0,0,2.78ZM4.727,7.021V5.735h9.767V7.021Zm10.323-.229V5.985l.62.4ZM10.741,1l2.306,2.37H11.112a.363.363,0,0,1-.372-.356ZM2.934.556h7.251V3.015a.92.92,0,0,0,.928.912h2.34V5.179H4.463a.3.3,0,0,0-.292.294v.036l-.828-.016h0a.286.286,0,0,0-.278.287l.009,1.21a.278.278,0,0,0,.278.276h.821v.041a.285.285,0,0,0,.292.272H5.05l0,.417a.612.612,0,0,0,.166.429.515.515,0,0,0,.36.162H8.949a.278.278,0,0,0,0-.556H5.6c0-.035,0-.017,0-.022l0-.43h7.845V14.46a1.012,1.012,0,0,1-1.046.973H2.934a1.022,1.022,0,0,1-1.057-.973V1.572c0-.014.009-.029.009-.043a.265.265,0,0,0,0-.036A1.018,1.018,0,0,1,2.934.556ZM4.171,6.708H3.626l-.012-.651.557.007ZM.556,2.78a1.016,1.016,0,0,1,.765-.937V14.46a1.578,1.578,0,0,0,1.613,1.529h9.154a1.02,1.02,0,0,1-1,.7H1.614a1.022,1.022,0,0,1-1.057-.972Zm0,0" transform="translate(0 0)"/>
    <path id="Path_464" data-name="Path 464" d="M88.739,268.556h4.572a.278.278,0,1,0,0-.556H88.739a.278.278,0,1,0,0,.556Zm0,0" transform="translate(-85.386 -258.685)"/>
    <path id="Path_465" data-name="Path 465" d="M88.739,307.556H96.7a.278.278,0,1,0,0-.556H88.739a.278.278,0,1,0,0,.556Zm0,0" transform="translate(-85.386 -296.329)"/>
    <path id="Path_466" data-name="Path 466" d="M88.739,346.556H96.7a.278.278,0,1,0,0-.556H88.739a.278.278,0,0,0,0,.556Zm0,0" transform="translate(-85.386 -333.974)"/>
    <path id="Path_467" data-name="Path 467" d="M88.739,385.556H96.7a.278.278,0,1,0,0-.556H88.739a.278.278,0,0,0,0,.556Zm0,0" transform="translate(-85.386 -371.618)"/>
  </g>
</svg>
