<svg id="sync_1_" data-name="sync (1)" xmlns="http://www.w3.org/2000/svg" width="18" height="18" viewBox="0 0 18 18">
  <path id="Path_454" data-name="Path 454" d="M10.75,10C8.944,10,7,9.53,7,8.5S8.944,7,10.75,7s3.75.47,3.75,1.5S12.556,10,10.75,10Zm0-2.25c-1.969,0-3,.557-3,.75s1.031.75,3,.75,3-.557,3-.75S12.719,7.75,10.75,7.75Z" transform="translate(-1.75 -1.75)"/>
  <path id="Path_455" data-name="Path 455" d="M10.75,14.875c-1.806,0-3.75-.469-3.75-1.5v-4.5a.375.375,0,0,1,.75,0v4.5c0,.193,1.031.75,3,.75s3-.557,3-.75v-4.5a.375.375,0,0,1,.75,0v4.5C14.5,14.406,12.556,14.875,10.75,14.875Z" transform="translate(-1.75 -2.125)"/>
  <path id="Path_456" data-name="Path 456" d="M10.75,13.375c-1.806,0-3.75-.47-3.75-1.5a.375.375,0,0,1,.75,0c0,.193,1.031.75,3,.75s3-.557,3-.75a.375.375,0,0,1,.75,0C14.5,12.905,12.556,13.375,10.75,13.375Z" transform="translate(-1.75 -2.875)"/>
  <path id="Path_457" data-name="Path 457" d="M.577,11.25a.375.375,0,0,1-.365-.293A8.9,8.9,0,0,1,0,9,8.991,8.991,0,0,1,16.24,3.671a.375.375,0,1,1-.605.443A8.249,8.249,0,0,0,.944,10.793a.375.375,0,0,1-.284.448.391.391,0,0,1-.082.009Z"/>
  <path id="Path_458" data-name="Path 458" d="M9.553,20.25a8.992,8.992,0,0,1-7.271-3.718.375.375,0,0,1,.608-.44A8.24,8.24,0,0,0,17.8,11.25a7.738,7.738,0,0,0-.2-1.788.375.375,0,0,1,.73-.173,8.527,8.527,0,0,1,.22,1.961,9.01,9.01,0,0,1-9,9Z" transform="translate(-0.553 -2.25)"/>
  <path id="Path_459" data-name="Path 459" d="M2.412,22.5a.375.375,0,0,1-.375-.371L2,18.379A.376.376,0,0,1,2.375,18h3.75a.375.375,0,0,1,0,.75H2.754l.034,3.371a.375.375,0,0,1-.371.379h0Z" transform="translate(-0.5 -4.5)"/>
  <path id="Path_460" data-name="Path 460" d="M20.125,4.5h-3.75a.375.375,0,0,1,0-.75H19.75V.375a.375.375,0,0,1,.75,0v3.75A.375.375,0,0,1,20.125,4.5Z" transform="translate(-4)"/>
</svg>
