<svg id="edit_5_" data-name="edit (5)" xmlns="http://www.w3.org/2000/svg" width="17.151" height="17.064" viewBox="0 0 17.151 17.064">
  <path id="Path_324" data-name="Path 324" d="M15.83,48.219a.427.427,0,0,0-.427.427v3.793a1.283,1.283,0,0,1-1.281,1.281H2.136A1.283,1.283,0,0,1,.854,52.439V41.308a1.283,1.283,0,0,1,1.281-1.281H5.928a.427.427,0,1,0,0-.854H2.136A2.138,2.138,0,0,0,0,41.308V52.439a2.138,2.138,0,0,0,2.136,2.136H14.121a2.138,2.138,0,0,0,2.136-2.136V48.646a.427.427,0,0,0-.427-.427Zm0,0" transform="translate(0 -37.51)"/>
  <path id="Path_325" data-name="Path 325" d="M119.656.824a1.922,1.922,0,0,0-2.718,0l-7.621,7.621a.427.427,0,0,0-.11.188l-1,3.618a.427.427,0,0,0,.526.526l3.618-1a.427.427,0,0,0,.188-.11l7.62-7.621a1.924,1.924,0,0,0,0-2.718Zm-9.408,7.9,6.237-6.237L118.5,4.5l-6.237,6.237Zm-.4.806,1.607,1.607-2.223.616Zm9.707-6.089-.453.453-2.012-2.012.453-.453a1.068,1.068,0,0,1,1.51,0l.5.5A1.069,1.069,0,0,1,119.554,3.439Zm0,0" transform="translate(-103.569 -0.261)"/>
</svg>
