<svg xmlns="http://www.w3.org/2000/svg" width="14.142" height="18" viewBox="0 0 14.142 18">
  <g id="tasks-icon" transform="translate(-47.037 0)">
    <g id="Group_2458" data-name="Group 2458" transform="translate(47.037 0)">
      <g id="Group_2457" data-name="Group 2457" transform="translate(0 0)">
        <path id="Path_356" data-name="Path 356" d="M59.379,2.359H57.751V1.63c0-.236-.257-.343-.493-.343H55.994A1.917,1.917,0,0,0,54.087,0,1.95,1.95,0,0,0,52.18,1.287H50.937c-.236,0-.471.107-.471.343v.729H48.837a1.821,1.821,0,0,0-1.8,1.736V16.372A1.724,1.724,0,0,0,48.837,18H59.379a1.724,1.724,0,0,0,1.8-1.628V4.094A1.821,1.821,0,0,0,59.379,2.359Zm-8.057-.214H52.5a.471.471,0,0,0,.407-.386A1.243,1.243,0,0,1,54.087.794a1.221,1.221,0,0,1,1.157.964.471.471,0,0,0,.429.386h1.221V3.858H51.322Zm9,14.228a.869.869,0,0,1-.943.771H48.837a.869.869,0,0,1-.943-.771V4.094a.964.964,0,0,1,.943-.878h1.628V4.308a.45.45,0,0,0,.471.407h6.321a.471.471,0,0,0,.493-.407V3.216h1.628a.964.964,0,0,1,.943.878V16.372Z" transform="translate(-47.037 0)"/>
        <path id="Path_357" data-name="Path 357" d="M102.655,230.445a.428.428,0,0,0-.6-.021l-1.371,1.307-.579-.6a.429.429,0,0,0-.6-.021.45.45,0,0,0,0,.621l.878.9a.386.386,0,0,0,.3.129.428.428,0,0,0,.3-.129l1.671-1.586a.407.407,0,0,0,.025-.575Z" transform="translate(-97.234 -220.866)"/>
        <path id="Path_358" data-name="Path 358" d="M203.9,256.034h-4.928a.429.429,0,1,0,0,.857H203.9a.429.429,0,1,0,0-.857Z" transform="translate(-192.334 -245.533)"/>
        <path id="Path_359" data-name="Path 359" d="M102.655,146.853a.429.429,0,0,0-.6-.021l-1.371,1.307-.579-.6a.429.429,0,0,0-.6-.021.45.45,0,0,0,0,.621l.878.9a.386.386,0,0,0,.3.129.428.428,0,0,0,.3-.129l1.671-1.586a.407.407,0,0,0,.025-.575Z" transform="translate(-97.234 -140.702)"/>
        <path id="Path_360" data-name="Path 360" d="M203.9,172.442h-4.928a.429.429,0,1,0,0,.857H203.9a.429.429,0,1,0,0-.857Z" transform="translate(-192.334 -165.37)"/>
        <path id="Path_361" data-name="Path 361" d="M102.655,314.036a.429.429,0,0,0-.6-.021l-1.371,1.307-.579-.6a.429.429,0,0,0-.6-.021.45.45,0,0,0,0,.621l.878.9a.386.386,0,0,0,.3.129.428.428,0,0,0,.3-.129l1.671-1.586a.407.407,0,0,0,.025-.575Z" transform="translate(-97.234 -301.029)"/>
        <path id="Path_362" data-name="Path 362" d="M203.9,339.626h-4.928a.429.429,0,1,0,0,.857H203.9a.429.429,0,1,0,0-.857Z" transform="translate(-192.334 -325.697)"/>
      </g>
    </g>
  </g>
</svg>
