<svg id="total-sales" xmlns="http://www.w3.org/2000/svg" width="105.195" height="63.405" viewBox="0 0 105.195 63.405">
  <path id="Path_33" data-name="Path 33" d="M18.216,88.688a2.017,2.017,0,0,1-1.545-3.312L43.339,53.54a2.017,2.017,0,0,1,2.84-.252L59.415,64.382,78.123,42.047a2.017,2.017,0,0,1,2.842-.252L94.2,52.889l22.523-26.884a2.017,2.017,0,1,1,3.092,2.59L96,57.022a2.017,2.017,0,0,1-2.84.25L79.923,46.178,61.212,68.507a2.017,2.017,0,0,1-2.842.252L45.136,57.665l-25.379,30.3a2.017,2.017,0,0,1-1.541.722Z" transform="translate(-16.201 -25.283)" fill="#f46a6a"/>
  <path id="Path_34" data-name="Path 34" d="M75.246,41.856a2.017,2.017,0,0,1-2.007-1.84l-.93-10.529-10.529.93a2.018,2.018,0,0,1-.353-4.02l12.536-1.105a2.017,2.017,0,0,1,2.191,1.84L77.262,39.67a2.017,2.017,0,0,1-1.831,2.187h-.184Z" transform="translate(27.925 -25.282)" fill="#f46a6a"/>
</svg>
