<svg id="group_2_" data-name="group (2)" xmlns="http://www.w3.org/2000/svg" width="46.881" height="47" viewBox="0 0 46.881 47">
  <g id="Group_2629" data-name="Group 2629" transform="translate(17.971)">
    <g id="Group_2628" data-name="Group 2628">
      <path id="Path_372" data-name="Path 372" d="M189.469,0a5.469,5.469,0,1,0,5.469,5.469A5.469,5.469,0,0,0,189.469,0Zm0,9.376a3.907,3.907,0,1,1,3.907-3.907A3.907,3.907,0,0,1,189.469,9.376Z" transform="translate(-184)" fill="#f46a6a"/>
    </g>
  </g>
  <g id="Group_2631" data-name="Group 2631" transform="translate(14.064 11.72)">
    <g id="Group_2630" data-name="Group 2630">
      <path id="Path_373" data-name="Path 373" d="M155.72,120h-4.688A7.04,7.04,0,0,0,144,127.032v13.283h3.125v14.846h1.563V137.19h-1.563v1.563h-1.563v-11.72a5.476,5.476,0,0,1,5.469-5.469h4.688a5.476,5.476,0,0,1,5.469,5.469v11.72h-1.563V137.19h-1.563v17.971h1.563V140.315h3.125V127.032A7.04,7.04,0,0,0,155.72,120Z" transform="translate(-144 -120)" fill="#f46a6a"/>
    </g>
  </g>
  <g id="Group_2633" data-name="Group 2633" transform="translate(23.102 32.087)">
    <g id="Group_2632" data-name="Group 2632" transform="translate(0 0)">
      <rect id="Rectangle_270" data-name="Rectangle 270" width="1" height="15" transform="translate(-0.102 -0.087)" fill="#f46a6a"/>
    </g>
  </g>
  <g id="Group_2635" data-name="Group 2635" transform="translate(34.38 7.814)">
    <g id="Group_2634" data-name="Group 2634">
      <path id="Path_374" data-name="Path 374" d="M356.688,80a4.688,4.688,0,1,0,4.688,4.688A4.688,4.688,0,0,0,356.688,80Zm0,7.814a3.125,3.125,0,1,1,3.125-3.125A3.125,3.125,0,0,1,356.688,87.814Z" transform="translate(-352 -80)" fill="#f46a6a"/>
    </g>
  </g>
  <g id="Group_2637" data-name="Group 2637" transform="translate(34.38 17.971)">
    <g id="Group_2636" data-name="Group 2636">
      <path id="Path_375" data-name="Path 375" d="M359.032,184H352v1.563h7.032a3.911,3.911,0,0,1,3.907,3.907v10.158h-1.563v-1.563h-1.563V212.91h1.563V201.19H364.5v-11.72A5.476,5.476,0,0,0,359.032,184Z" transform="translate(-352 -184)" fill="#f46a6a"/>
    </g>
  </g>
  <g id="Group_2639" data-name="Group 2639" transform="translate(31.254 32.035)">
    <g id="Group_2638" data-name="Group 2638">
      <path id="Path_376" data-name="Path 376" d="M323.125,328v1.563H320v1.563h3.125v11.72h1.563V328Z" transform="translate(-320 -328)" fill="#f46a6a"/>
    </g>
  </g>
  <g id="Group_2641" data-name="Group 2641" transform="translate(38.503 34.653)">
    <g id="Group_2640" data-name="Group 2640" transform="translate(0 0)">
      <rect id="Rectangle_271" data-name="Rectangle 271" width="1" height="12" transform="translate(0.497 0.347)" fill="#f46a6a"/>
    </g>
  </g>
  <g id="Group_2643" data-name="Group 2643" transform="translate(3.125 7.814)">
    <g id="Group_2642" data-name="Group 2642">
      <path id="Path_377" data-name="Path 377" d="M36.688,80a4.688,4.688,0,1,0,4.688,4.688A4.688,4.688,0,0,0,36.688,80Zm0,7.814a3.125,3.125,0,1,1,3.125-3.125A3.125,3.125,0,0,1,36.688,87.814Z" transform="translate(-32 -80)" fill="#f46a6a"/>
    </g>
  </g>
  <g id="Group_2645" data-name="Group 2645" transform="translate(0 17.971)">
    <g id="Group_2644" data-name="Group 2644">
      <path id="Path_378" data-name="Path 378" d="M5.469,184A5.476,5.476,0,0,0,0,189.469v11.72H3.125v11.72H4.688V198.064H3.125v1.563H1.563V189.469a3.911,3.911,0,0,1,3.907-3.907H12.5V184Z" transform="translate(0 -184)" fill="#f46a6a"/>
    </g>
  </g>
  <g id="Group_2647" data-name="Group 2647" transform="translate(10.939 32.035)">
    <g id="Group_2646" data-name="Group 2646">
      <path id="Path_379" data-name="Path 379" d="M113.563,329.563V328H112v14.846h1.563v-11.72h3.125v-1.563Z" transform="translate(-112 -328)" fill="#f46a6a"/>
    </g>
  </g>
  <g id="Group_2649" data-name="Group 2649" transform="translate(6.417 34.653)">
    <g id="Group_2648" data-name="Group 2648" transform="translate(0 0)">
      <rect id="Rectangle_272" data-name="Rectangle 272" width="3" height="12" transform="translate(-0.417 0.347)" fill="#f46a6a"/>
    </g>
  </g>
</svg>
