<svg xmlns="http://www.w3.org/2000/svg" width="24" height="15.724" viewBox="0 0 24 15.724">
  <g id="_226-united-states" data-name="226-united-states" transform="translate(0 -88.276)">
    <path id="Path_7" data-name="Path 7" d="M23.586,104H.414A.414.414,0,0,1,0,103.586V88.69a.414.414,0,0,1,.414-.414H23.586A.414.414,0,0,1,24,88.69v14.9A.414.414,0,0,1,23.586,104Z" transform="translate(0)" fill="#f5f5f5"/>
    <g id="Group_1" data-name="Group 1" transform="translate(0 88.276)">
      <path id="Path_8" data-name="Path 8" d="M24,89.494H0v-.8a.415.415,0,0,1,.414-.417H23.586a.415.415,0,0,1,.414.417v.8Z" transform="translate(0 -88.276)" fill="#ff4b55"/>
      <rect id="Rectangle_5" data-name="Rectangle 5" width="24" height="1.218" transform="translate(0 4.835)" fill="#ff4b55"/>
      <rect id="Rectangle_6" data-name="Rectangle 6" width="24" height="1.218" transform="translate(0 2.418)" fill="#ff4b55"/>
      <path id="Path_9" data-name="Path 9" d="M24,244.316H.414A.415.415,0,0,1,0,243.9v-.8H24Z" transform="translate(0 -235.845)" fill="#ff4b55"/>
      <rect id="Rectangle_7" data-name="Rectangle 7" width="24" height="1.218" transform="translate(0 12.089)" fill="#ff4b55"/>
      <path id="Path_10" data-name="Path 10" d="M23.586,399.139H.414A.415.415,0,0,1,0,398.722v-.8H24v.8A.415.415,0,0,1,23.586,399.139Z" transform="translate(0 -383.415)" fill="#ff4b55"/>
      <rect id="Rectangle_8" data-name="Rectangle 8" width="24" height="1.218" transform="translate(0 9.671)" fill="#ff4b55"/>
    </g>
    <path id="Path_11" data-name="Path 11" d="M10.834,88.277H.417A.417.417,0,0,0,0,88.694v7.693a.417.417,0,0,0,.417.417H10.835a.417.417,0,0,0,.417-.417V88.694A.417.417,0,0,0,10.834,88.277Z" transform="translate(0 -0.001)" fill="#41479b"/>
    <g id="Group_2" data-name="Group 2" transform="translate(0.673 89.206)">
      <path id="Path_12" data-name="Path 12" d="M14.75,108l.092.277.292,0a.039.039,0,0,1,.023.071l-.235.173.088.278a.039.039,0,0,1-.06.044l-.237-.17-.237.17a.039.039,0,0,1-.06-.044l.088-.278-.235-.173a.039.039,0,0,1,.023-.071l.292,0,.092-.277A.039.039,0,0,1,14.75,108Z" transform="translate(-14.253 -107.969)" fill="#f5f5f5"/>
      <path id="Path_13" data-name="Path 13" d="M14.75,138.65l.092.277.292,0a.039.039,0,0,1,.023.071l-.235.173.088.278a.039.039,0,0,1-.06.044l-.237-.17-.237.17a.039.039,0,0,1-.06-.044l.088-.278L14.269,139a.039.039,0,0,1,.023-.071l.292,0,.092-.277A.039.039,0,0,1,14.75,138.65Z" transform="translate(-14.253 -137.177)" fill="#f5f5f5"/>
      <path id="Path_14" data-name="Path 14" d="M14.75,169.3l.092.277.292,0a.039.039,0,0,1,.023.071l-.235.173.088.278a.039.039,0,0,1-.06.044l-.237-.17-.237.17a.039.039,0,0,1-.06-.044l.088-.278-.235-.173a.039.039,0,0,1,.023-.071l.292,0,.092-.277A.039.039,0,0,1,14.75,169.3Z" transform="translate(-14.253 -166.383)" fill="#f5f5f5"/>
      <path id="Path_15" data-name="Path 15" d="M14.75,199.959l.092.277.292,0a.039.039,0,0,1,.023.071l-.235.173.088.278a.039.039,0,0,1-.06.044l-.237-.17-.237.17a.039.039,0,0,1-.06-.044l.088-.278-.235-.173a.039.039,0,0,1,.023-.071l.292,0,.092-.277A.039.039,0,0,1,14.75,199.959Z" transform="translate(-14.253 -195.591)" fill="#f5f5f5"/>
      <path id="Path_16" data-name="Path 16" d="M14.75,230.612l.092.277.292,0a.039.039,0,0,1,.023.071l-.235.173.088.278a.039.039,0,0,1-.06.044l-.237-.17-.237.17a.039.039,0,0,1-.06-.044l.088-.278-.235-.173a.039.039,0,0,1,.023-.071l.292,0,.092-.277A.039.039,0,0,1,14.75,230.612Z" transform="translate(-14.253 -224.797)" fill="#f5f5f5"/>
      <path id="Path_17" data-name="Path 17" d="M38.543,123.025l.092.277.292,0a.039.039,0,0,1,.023.071l-.235.173.088.278a.039.039,0,0,1-.06.044l-.237-.17-.237.17a.039.039,0,0,1-.06-.044l.088-.278-.235-.173a.039.039,0,0,1,.023-.071l.292,0,.092-.277A.039.039,0,0,1,38.543,123.025Z" transform="translate(-36.922 -122.289)" fill="#f5f5f5"/>
      <path id="Path_18" data-name="Path 18" d="M38.543,153.68l.092.277.292,0a.039.039,0,0,1,.023.071l-.235.173.088.278a.039.039,0,0,1-.06.044l-.237-.17-.237.17a.039.039,0,0,1-.06-.044l.088-.278-.235-.173a.039.039,0,0,1,.023-.071l.292,0,.092-.277A.039.039,0,0,1,38.543,153.68Z" transform="translate(-36.922 -151.496)" fill="#f5f5f5"/>
      <path id="Path_19" data-name="Path 19" d="M38.543,184.334l.092.277.292,0a.039.039,0,0,1,.023.071l-.235.173.088.278a.039.039,0,0,1-.06.044l-.237-.17-.237.17a.039.039,0,0,1-.06-.044l.088-.278-.235-.173a.039.039,0,0,1,.023-.071l.292,0,.092-.277A.039.039,0,0,1,38.543,184.334Z" transform="translate(-36.922 -180.703)" fill="#f5f5f5"/>
      <path id="Path_20" data-name="Path 20" d="M38.543,214.988l.092.277.292,0a.039.039,0,0,1,.023.071l-.235.173.088.278a.039.039,0,0,1-.06.044l-.237-.17-.237.17a.039.039,0,0,1-.06-.044l.088-.278-.235-.173a.039.039,0,0,1,.023-.071l.292,0,.092-.277A.039.039,0,0,1,38.543,214.988Z" transform="translate(-36.922 -209.911)" fill="#f5f5f5"/>
      <path id="Path_21" data-name="Path 21" d="M62.336,108l.092.277.292,0a.039.039,0,0,1,.023.071l-.235.173.088.278a.039.039,0,0,1-.06.044l-.237-.17-.237.17A.039.039,0,0,1,62,108.8l.088-.278-.235-.173a.039.039,0,0,1,.023-.071l.292,0,.092-.277A.039.039,0,0,1,62.336,108Z" transform="translate(-59.592 -107.969)" fill="#f5f5f5"/>
      <path id="Path_22" data-name="Path 22" d="M62.336,138.65l.092.277.292,0a.039.039,0,0,1,.023.071l-.235.173.088.278a.039.039,0,0,1-.06.044l-.237-.17-.237.17a.039.039,0,0,1-.06-.044l.088-.278L61.855,139a.039.039,0,0,1,.023-.071l.292,0,.092-.277A.039.039,0,0,1,62.336,138.65Z" transform="translate(-59.592 -137.176)" fill="#f5f5f5"/>
      <path id="Path_23" data-name="Path 23" d="M62.336,169.3l.092.277.292,0a.039.039,0,0,1,.023.071l-.235.173.088.278a.039.039,0,0,1-.06.044l-.237-.17-.237.17a.039.039,0,0,1-.06-.044l.088-.278-.235-.173a.039.039,0,0,1,.023-.071l.292,0,.092-.277A.039.039,0,0,1,62.336,169.3Z" transform="translate(-59.592 -166.383)" fill="#f5f5f5"/>
      <path id="Path_24" data-name="Path 24" d="M62.336,199.959l.092.277.292,0a.039.039,0,0,1,.023.071l-.235.173.088.278a.039.039,0,0,1-.06.044l-.237-.17-.237.17a.039.039,0,0,1-.06-.044l.088-.278-.235-.173a.039.039,0,0,1,.023-.071l.292,0,.092-.277A.039.039,0,0,1,62.336,199.959Z" transform="translate(-59.592 -195.591)" fill="#f5f5f5"/>
      <path id="Path_25" data-name="Path 25" d="M62.336,230.612l.092.277.292,0a.039.039,0,0,1,.023.071l-.235.173.088.278a.039.039,0,0,1-.06.044l-.237-.17-.237.17a.039.039,0,0,1-.06-.044l.088-.278-.235-.173a.039.039,0,0,1,.023-.071l.292,0,.092-.277A.039.039,0,0,1,62.336,230.612Z" transform="translate(-59.592 -224.797)" fill="#f5f5f5"/>
      <path id="Path_26" data-name="Path 26" d="M86.13,123.025l.092.277.292,0a.039.039,0,0,1,.023.071l-.235.173.088.278a.039.039,0,0,1-.06.044l-.237-.17-.237.17a.039.039,0,0,1-.06-.044l.088-.278-.235-.173a.039.039,0,0,1,.023-.071l.292,0,.092-.277A.039.039,0,0,1,86.13,123.025Z" transform="translate(-82.263 -122.289)" fill="#f5f5f5"/>
      <path id="Path_27" data-name="Path 27" d="M86.13,153.68l.092.277.292,0a.039.039,0,0,1,.023.071l-.235.173.088.278a.039.039,0,0,1-.06.044l-.237-.17-.237.17a.039.039,0,0,1-.06-.044l.088-.278-.235-.173a.039.039,0,0,1,.023-.071l.292,0,.092-.277A.039.039,0,0,1,86.13,153.68Z" transform="translate(-82.263 -151.496)" fill="#f5f5f5"/>
      <path id="Path_28" data-name="Path 28" d="M86.13,184.334l.092.277.292,0a.039.039,0,0,1,.023.071l-.235.173.088.278a.039.039,0,0,1-.06.044l-.237-.17-.237.17a.039.039,0,0,1-.06-.044l.088-.278-.235-.173a.039.039,0,0,1,.023-.071l.292,0,.092-.277A.039.039,0,0,1,86.13,184.334Z" transform="translate(-82.263 -180.703)" fill="#f5f5f5"/>
      <path id="Path_29" data-name="Path 29" d="M86.13,214.988l.092.277.292,0a.039.039,0,0,1,.023.071l-.235.173.088.278a.039.039,0,0,1-.06.044l-.237-.17-.237.17a.039.039,0,0,1-.06-.044l.088-.278-.235-.173a.039.039,0,0,1,.023-.071l.292,0,.092-.277A.039.039,0,0,1,86.13,214.988Z" transform="translate(-82.263 -209.911)" fill="#f5f5f5"/>
      <path id="Path_30" data-name="Path 30" d="M109.922,108l.092.277.292,0a.039.039,0,0,1,.023.071l-.235.173.088.278a.039.039,0,0,1-.06.044l-.237-.17-.237.17a.039.039,0,0,1-.06-.044l.088-.278-.235-.173a.039.039,0,0,1,.023-.071l.292,0,.092-.277A.039.039,0,0,1,109.922,108Z" transform="translate(-104.932 -107.969)" fill="#f5f5f5"/>
      <path id="Path_31" data-name="Path 31" d="M109.922,138.65l.092.277.292,0a.039.039,0,0,1,.023.071l-.235.173.088.278a.039.039,0,0,1-.06.044l-.237-.17-.237.17a.039.039,0,0,1-.06-.044l.088-.278-.235-.173a.039.039,0,0,1,.023-.071l.292,0,.092-.277A.039.039,0,0,1,109.922,138.65Z" transform="translate(-104.932 -137.176)" fill="#f5f5f5"/>
      <path id="Path_32" data-name="Path 32" d="M109.922,169.3l.092.277.292,0a.039.039,0,0,1,.023.071l-.235.173.088.278a.039.039,0,0,1-.06.044l-.237-.17-.237.17a.039.039,0,0,1-.06-.044l.088-.278-.235-.173a.039.039,0,0,1,.023-.071l.292,0,.092-.277A.039.039,0,0,1,109.922,169.3Z" transform="translate(-104.932 -166.383)" fill="#f5f5f5"/>
      <path id="Path_33" data-name="Path 33" d="M109.922,199.959l.092.277.292,0a.039.039,0,0,1,.023.071l-.235.173.088.278a.039.039,0,0,1-.06.044l-.237-.17-.237.17a.039.039,0,0,1-.06-.044l.088-.278-.235-.173a.039.039,0,0,1,.023-.071l.292,0,.092-.277A.039.039,0,0,1,109.922,199.959Z" transform="translate(-104.932 -195.591)" fill="#f5f5f5"/>
      <path id="Path_34" data-name="Path 34" d="M109.922,230.612l.092.277.292,0a.039.039,0,0,1,.023.071l-.235.173.088.278a.039.039,0,0,1-.06.044l-.237-.17-.237.17a.039.039,0,0,1-.06-.044l.088-.278-.235-.173a.039.039,0,0,1,.023-.071l.292,0,.092-.277A.039.039,0,0,1,109.922,230.612Z" transform="translate(-104.932 -224.797)" fill="#f5f5f5"/>
      <path id="Path_35" data-name="Path 35" d="M133.716,123.025l.092.277.292,0a.039.039,0,0,1,.023.071l-.235.173.088.278a.039.039,0,0,1-.06.044l-.237-.17-.237.17a.039.039,0,0,1-.06-.044l.088-.278-.235-.173a.039.039,0,0,1,.023-.071l.292,0,.092-.277A.039.039,0,0,1,133.716,123.025Z" transform="translate(-127.603 -122.289)" fill="#f5f5f5"/>
      <path id="Path_36" data-name="Path 36" d="M133.716,153.68l.092.277.292,0a.039.039,0,0,1,.023.071l-.235.173.088.278a.039.039,0,0,1-.06.044l-.237-.17-.237.17a.039.039,0,0,1-.06-.044l.088-.278-.235-.173a.039.039,0,0,1,.023-.071l.292,0,.092-.277A.039.039,0,0,1,133.716,153.68Z" transform="translate(-127.603 -151.496)" fill="#f5f5f5"/>
      <path id="Path_37" data-name="Path 37" d="M133.716,184.334l.092.277.292,0a.039.039,0,0,1,.023.071l-.235.173.088.278a.039.039,0,0,1-.06.044l-.237-.17-.237.17a.039.039,0,0,1-.06-.044l.088-.278-.235-.173a.039.039,0,0,1,.023-.071l.292,0,.092-.277A.039.039,0,0,1,133.716,184.334Z" transform="translate(-127.603 -180.703)" fill="#f5f5f5"/>
      <path id="Path_38" data-name="Path 38" d="M133.716,214.988l.092.277.292,0a.039.039,0,0,1,.023.071l-.235.173.088.278a.039.039,0,0,1-.06.044l-.237-.17-.237.17a.039.039,0,0,1-.06-.044l.088-.278-.235-.173a.039.039,0,0,1,.023-.071l.292,0,.092-.277A.039.039,0,0,1,133.716,214.988Z" transform="translate(-127.603 -209.911)" fill="#f5f5f5"/>
      <path id="Path_39" data-name="Path 39" d="M157.51,108l.092.277.292,0a.039.039,0,0,1,.023.071l-.235.173.088.278a.039.039,0,0,1-.06.044l-.237-.17-.237.17a.039.039,0,0,1-.06-.044l.088-.278-.235-.173a.039.039,0,0,1,.023-.071l.292,0,.092-.277A.039.039,0,0,1,157.51,108Z" transform="translate(-150.274 -107.969)" fill="#f5f5f5"/>
      <path id="Path_40" data-name="Path 40" d="M157.51,138.65l.092.277.292,0a.039.039,0,0,1,.023.071l-.235.173.088.278a.039.039,0,0,1-.06.044l-.237-.17-.237.17a.039.039,0,0,1-.06-.044l.088-.278-.235-.173a.039.039,0,0,1,.023-.071l.292,0,.092-.277A.039.039,0,0,1,157.51,138.65Z" transform="translate(-150.274 -137.176)" fill="#f5f5f5"/>
      <path id="Path_41" data-name="Path 41" d="M157.51,169.3l.092.277.292,0a.039.039,0,0,1,.023.071l-.235.173.088.278a.039.039,0,0,1-.06.044l-.237-.17-.237.17a.039.039,0,0,1-.06-.044l.088-.278-.235-.173a.039.039,0,0,1,.023-.071l.292,0,.092-.277A.039.039,0,0,1,157.51,169.3Z" transform="translate(-150.274 -166.383)" fill="#f5f5f5"/>
      <path id="Path_42" data-name="Path 42" d="M157.51,199.959l.092.277.292,0a.039.039,0,0,1,.023.071l-.235.173.088.278a.039.039,0,0,1-.06.044l-.237-.17-.237.17a.039.039,0,0,1-.06-.044l.088-.278-.235-.173a.039.039,0,0,1,.023-.071l.292,0,.092-.277A.039.039,0,0,1,157.51,199.959Z" transform="translate(-150.274 -195.591)" fill="#f5f5f5"/>
      <path id="Path_43" data-name="Path 43" d="M157.51,230.612l.092.277.292,0a.039.039,0,0,1,.023.071l-.235.173.088.278a.039.039,0,0,1-.06.044l-.237-.17-.237.17a.039.039,0,0,1-.06-.044l.088-.278-.235-.173a.039.039,0,0,1,.023-.071l.292,0,.092-.277A.039.039,0,0,1,157.51,230.612Z" transform="translate(-150.274 -224.797)" fill="#f5f5f5"/>
      <path id="Path_44" data-name="Path 44" d="M181.3,123.025l.092.277.292,0a.039.039,0,0,1,.023.071l-.235.173.088.278a.039.039,0,0,1-.06.044l-.237-.17-.237.17a.039.039,0,0,1-.06-.044l.088-.278-.235-.173a.039.039,0,0,1,.023-.071l.292,0,.092-.277A.039.039,0,0,1,181.3,123.025Z" transform="translate(-172.943 -122.289)" fill="#f5f5f5"/>
      <path id="Path_45" data-name="Path 45" d="M181.3,153.68l.092.277.292,0a.039.039,0,0,1,.023.071l-.235.173.088.278a.039.039,0,0,1-.06.044l-.237-.17-.237.17a.039.039,0,0,1-.06-.044l.088-.278-.235-.173a.039.039,0,0,1,.023-.071l.292,0,.092-.277A.039.039,0,0,1,181.3,153.68Z" transform="translate(-172.943 -151.496)" fill="#f5f5f5"/>
      <path id="Path_46" data-name="Path 46" d="M181.3,184.334l.092.277.292,0a.039.039,0,0,1,.023.071l-.235.173.088.278a.039.039,0,0,1-.06.044l-.237-.17-.237.17a.039.039,0,0,1-.06-.044l.088-.278-.235-.173a.039.039,0,0,1,.023-.071l.292,0,.092-.277A.039.039,0,0,1,181.3,184.334Z" transform="translate(-172.943 -180.703)" fill="#f5f5f5"/>
      <path id="Path_47" data-name="Path 47" d="M181.3,214.988l.092.277.292,0a.039.039,0,0,1,.023.071l-.235.173.088.278a.039.039,0,0,1-.06.044l-.237-.17-.237.17a.039.039,0,0,1-.06-.044l.088-.278-.235-.173a.039.039,0,0,1,.023-.071l.292,0,.092-.277A.039.039,0,0,1,181.3,214.988Z" transform="translate(-172.943 -209.911)" fill="#f5f5f5"/>
      <path id="Path_48" data-name="Path 48" d="M205.1,108l.092.277.292,0a.039.039,0,0,1,.023.071l-.235.173.088.278a.039.039,0,0,1-.06.044l-.237-.17-.237.17a.039.039,0,0,1-.06-.044l.088-.278-.235-.173a.039.039,0,0,1,.023-.071l.292,0,.092-.277A.039.039,0,0,1,205.1,108Z" transform="translate(-195.614 -107.969)" fill="#f5f5f5"/>
      <path id="Path_49" data-name="Path 49" d="M205.1,138.65l.092.277.292,0a.039.039,0,0,1,.023.071l-.235.173.088.278a.039.039,0,0,1-.06.044l-.237-.17-.237.17a.039.039,0,0,1-.06-.044l.088-.278-.235-.173a.039.039,0,0,1,.023-.071l.292,0,.092-.277A.039.039,0,0,1,205.1,138.65Z" transform="translate(-195.614 -137.176)" fill="#f5f5f5"/>
      <path id="Path_50" data-name="Path 50" d="M205.1,169.3l.092.277.292,0a.039.039,0,0,1,.023.071l-.235.173.088.278a.039.039,0,0,1-.06.044l-.237-.17-.237.17a.039.039,0,0,1-.06-.044l.088-.278-.235-.173a.039.039,0,0,1,.023-.071l.292,0,.092-.277A.039.039,0,0,1,205.1,169.3Z" transform="translate(-195.614 -166.383)" fill="#f5f5f5"/>
      <path id="Path_51" data-name="Path 51" d="M205.1,199.959l.092.277.292,0a.039.039,0,0,1,.023.071l-.235.173.088.278a.039.039,0,0,1-.06.044l-.237-.17-.237.17a.039.039,0,0,1-.06-.044l.088-.278-.235-.173a.039.039,0,0,1,.023-.071l.292,0,.092-.277A.039.039,0,0,1,205.1,199.959Z" transform="translate(-195.614 -195.591)" fill="#f5f5f5"/>
      <path id="Path_52" data-name="Path 52" d="M205.1,230.612l.092.277.292,0a.039.039,0,0,1,.023.071l-.235.173.088.278a.039.039,0,0,1-.06.044l-.237-.17-.237.17a.039.039,0,0,1-.06-.044l.088-.278-.235-.173a.039.039,0,0,1,.023-.071l.292,0,.092-.277A.039.039,0,0,1,205.1,230.612Z" transform="translate(-195.614 -224.797)" fill="#f5f5f5"/>
    </g>
  </g>
</svg>
