<svg id="user_12_" data-name="user (12)" xmlns="http://www.w3.org/2000/svg" width="17.998" height="18" viewBox="0 0 17.998 18">
  <path id="Path_409" data-name="Path 409" d="M9,0A9,9,0,0,0,9,18q.407,0,.81-.036c.25-.022.5-.057.743-.1l.094-.017A9,9,0,0,0,9,0ZM8.277,17.368H8.256c-.233-.021-.465-.052-.694-.092l-.039-.006q-.337-.06-.666-.148L6.8,17.108c-.214-.058-.427-.126-.636-.2L6.1,16.885c-.2-.075-.406-.16-.6-.251L5.423,16.6c-.194-.09-.385-.191-.572-.3l-.079-.045q-.276-.161-.54-.344l-.08-.055c-.173-.123-.342-.253-.507-.39l-.045-.04V12.9A3.3,3.3,0,0,1,6.9,9.6h4.2a3.3,3.3,0,0,1,3.3,3.3v2.53l-.04.033q-.252.21-.517.4l-.07.048q-.268.186-.548.35l-.071.04c-.19.108-.383.21-.579.3l-.068.03c-.2.092-.4.177-.609.253l-.06.021c-.21.075-.423.143-.639.2l-.052.013c-.22.058-.442.108-.667.149l-.039.006c-.23.04-.462.071-.7.092H9.725c-.24.021-.48.032-.723.032s-.485-.009-.725-.03ZM15,14.873V12.9A3.9,3.9,0,0,0,11.1,9H6.9A3.9,3.9,0,0,0,3,12.9v1.973a8.4,8.4,0,1,1,12,0Zm0,0" transform="translate(0 0)"/>
  <path id="Path_410" data-name="Path 410" d="M163,64a3,3,0,1,0,3,3A3,3,0,0,0,163,64Zm0,5.4a2.4,2.4,0,1,1,2.4-2.4A2.4,2.4,0,0,1,163,69.4Zm0,0" transform="translate(-154 -61.6)"/>
</svg>
