<svg xmlns="http://www.w3.org/2000/svg" width="7.967" height="9.105" viewBox="0 0 7.967 9.105">
  <path id="view-invoices-icon" d="M33.509,3.111A1.992,1.992,0,1,0,35.5,1.119,1.994,1.994,0,0,0,33.509,3.111Zm3.68,0A1.688,1.688,0,1,1,35.5,1.423,1.69,1.69,0,0,1,37.189,3.111ZM35.5,2.086a.152.152,0,0,1,.152.152V2.3a.456.456,0,0,1,.3.429.152.152,0,1,1-.3,0,.152.152,0,0,0-.3,0v.061a.151.151,0,0,0,.106.145l.181.057a.453.453,0,0,1,.319.435V3.49a.456.456,0,0,1-.36.445v.048a.152.152,0,1,1-.3,0V3.895a.456.456,0,0,1-.247-.4.152.152,0,1,1,.3,0,.152.152,0,0,0,.3,0V3.429a.151.151,0,0,0-.106-.145l-.181-.057a.453.453,0,0,1-.319-.435V2.731a.456.456,0,0,1,.3-.429V2.238A.152.152,0,0,1,35.5,2.086Zm2.466,4.021V8.042A1.063,1.063,0,0,1,36.9,9.1H31.062A1.063,1.063,0,0,1,30,8.042V.607A.608.608,0,0,1,30.607,0h4.932a.608.608,0,0,1,.607.607.152.152,0,1,1-.3,0,.3.3,0,0,0-.3-.3H30.607a.3.3,0,0,0-.3.3V8.042a.76.76,0,0,0,.759.759h5.1a1.059,1.059,0,0,1-.32-.759V5.671a.152.152,0,1,1,.3,0V8.042a.759.759,0,0,0,1.517,0V6.108a.3.3,0,0,0-.3-.3h-.645a.152.152,0,1,1,0-.3h.645A.608.608,0,0,1,37.967,6.108Zm-6.639-2.03a.152.152,0,0,1,.152-.152h1.29a.152.152,0,0,1,0,.3h-1.29A.152.152,0,0,1,31.328,4.078Zm0-1.707a.152.152,0,0,1,.152-.152h1.29a.152.152,0,0,1,0,.3h-1.29A.152.152,0,0,1,31.328,2.371Zm3.49,3.414a.152.152,0,0,1-.152.152H31.479a.152.152,0,0,1,0-.3h3.187A.152.152,0,0,1,34.818,5.785Zm0,1.593a.152.152,0,0,1-.152.152H31.479a.152.152,0,0,1,0-.3h3.187A.152.152,0,0,1,34.818,7.379Z" transform="translate(-30)"/>
</svg>
