<svg xmlns="http://www.w3.org/2000/svg" width="28.301" height="38.646" viewBox="0 0 28.301 38.646">
  <g id="wait" transform="translate(-67.192)">
    <g id="Group_2652" data-name="Group 2652" transform="translate(67.192)">
      <g id="Group_2651" data-name="Group 2651" transform="translate(0)">
        <path id="Path_389" data-name="Path 389" d="M153.621,317.135a.77.77,0,0,0-1.071.2,12.64,12.64,0,0,0-2.054,5.657.77.77,0,0,0,.672.857.78.78,0,0,0,.093.006.77.77,0,0,0,.763-.677,11.1,11.1,0,0,1,1.792-4.967A.77.77,0,0,0,153.621,317.135Z" transform="translate(-144.078 -292.594)" fill="#be2623"/>
        <path id="Path_390" data-name="Path 390" d="M199.2,281.249a7.016,7.016,0,0,0-1.9,1.081.77.77,0,1,0,.953,1.209,5.478,5.478,0,0,1,1.484-.846.77.77,0,0,0-.535-1.444Z" transform="translate(-187.007 -259.552)" fill="#be2623"/>
        <path id="Path_391" data-name="Path 391" d="M170.118,149.581a8.9,8.9,0,0,1-3.634-4.095.77.77,0,0,0-1.434.561,10.458,10.458,0,0,0,4.258,4.843.77.77,0,0,0,.811-1.309Z" transform="translate(-157.467 -133.834)" fill="#be2623"/>
        <path id="Path_392" data-name="Path 392" d="M92.409,32.48H91.88a17.253,17.253,0,0,0-3-9.559,10.615,10.615,0,0,0-4.221-3.6,10.614,10.614,0,0,0,4.221-3.6,17.254,17.254,0,0,0,3-9.559h.529a3.083,3.083,0,1,0,0-6.167H70.276a3.083,3.083,0,1,0,0,6.167h.53a17.253,17.253,0,0,0,3,9.559,10.615,10.615,0,0,0,4.221,3.6,10.614,10.614,0,0,0-4.221,3.6,17.254,17.254,0,0,0-3,9.559h-.53a3.083,3.083,0,1,0,0,6.167H92.409a3.083,3.083,0,1,0,0-6.167ZM70.276,4.627a1.544,1.544,0,1,1,0-3.088H92.409a1.544,1.544,0,1,1,0,3.088H70.276Zm2.07,1.54H90.34c-.2,6.849-4.157,12.335-9,12.335S72.542,13.016,72.345,6.167Zm9,13.977c4.841,0,8.8,5.486,9,12.335H72.345C72.542,25.63,76.5,20.144,81.342,20.144ZM92.409,37.107H70.276a1.544,1.544,0,1,1,0-3.088H92.409a1.544,1.544,0,1,1,0,3.088Z" transform="translate(-67.192)" fill="#be2623"/>
      </g>
    </g>
  </g>
</svg>
