<svg xmlns="http://www.w3.org/2000/svg" width="32.422" height="32.42" viewBox="0 0 32.422 32.42">
  <g id="wallet" transform="translate(0 -0.011)">
    <g id="XMLID_561_" transform="translate(0 0.011)">
      <path id="XMLID_592_" d="M30.522,17.487h-.633V13.054a3.678,3.678,0,0,0-2.865-3.582L24.142,4.48a3.164,3.164,0,0,0-3.648-1.448L18.4.935a3.166,3.166,0,0,0-4.473,0L5.48,9.381H3.673A3.677,3.677,0,0,0,0,13.054v15.7a3.677,3.677,0,0,0,3.673,3.673h8.422a.633.633,0,1,0,0-1.266H3.673a2.409,2.409,0,0,1-2.406-2.406v-15.7a2.409,2.409,0,0,1,2.406-2.406H26.216a2.409,2.409,0,0,1,2.406,2.406v4.433H23.936a3.419,3.419,0,1,0,0,6.839h4.686v4.433a2.409,2.409,0,0,1-2.406,2.406H17.794a.633.633,0,0,0,0,1.266h8.422a3.677,3.677,0,0,0,3.673-3.673V24.326h.633a1.9,1.9,0,0,0,1.9-1.9v-3.04A1.9,1.9,0,0,0,30.522,17.487ZM21.894,4.229a1.884,1.884,0,0,1,1.151.883L25.51,9.381H11.86l8.595-4.962a1.884,1.884,0,0,1,1.439-.189Zm-7.073-2.4a1.9,1.9,0,0,1,2.682,0L19.3,3.625,9.327,9.381H7.271ZM31.155,22.426a.634.634,0,0,1-.633.633H23.937a2.153,2.153,0,1,1,0-4.306h6.586a.634.634,0,0,1,.633.633Z" transform="translate(0 -0.011)" fill="#be2623"/>
      <path id="XMLID_1063_" d="M366.963,319.988a.634.634,0,1,0,.448.186A.638.638,0,0,0,366.963,319.988Z" transform="translate(-343.132 -299.726)" fill="#be2623"/>
      <path id="XMLID_1068_" d="M226.633,491.988a.634.634,0,1,0,.448.186A.638.638,0,0,0,226.633,491.988Z" transform="translate(-211.689 -460.834)" fill="#be2623"/>
    </g>
  </g>
</svg>
