<svg xmlns="http://www.w3.org/2000/svg" width="30" height="30" viewBox="0 0 30 30">
  <g id="whatsapp-icon" transform="translate(-1175 -15)">
    <rect id="Rectangle_3" data-name="Rectangle 3" width="30" height="30" rx="3" transform="translate(1175 15)" fill="#0d3745"/>
    <path id="Icon_awesome-whatsapp" data-name="Icon awesome-whatsapp" d="M10.716,4.081a6.248,6.248,0,0,0-9.83,7.537L0,14.854l3.311-.869a6.226,6.226,0,0,0,2.985.76h0A6.306,6.306,0,0,0,12.6,8.5a6.27,6.27,0,0,0-1.888-4.417ZM6.3,13.692a5.182,5.182,0,0,1-2.644-.723l-.188-.113L1.5,13.371l.523-1.916-.124-.2A5.2,5.2,0,1,1,11.549,8.5,5.249,5.249,0,0,1,6.3,13.692ZM9.146,9.8c-.155-.079-.923-.456-1.066-.506s-.248-.079-.352.079-.4.506-.5.613-.183.118-.338.039A4.248,4.248,0,0,1,4.771,8.172c-.16-.276.16-.256.459-.852a.289.289,0,0,0-.014-.273c-.039-.079-.352-.847-.481-1.159s-.256-.262-.352-.267-.194-.006-.3-.006a.578.578,0,0,0-.416.194,1.754,1.754,0,0,0-.546,1.3,3.057,3.057,0,0,0,.636,1.615,6.974,6.974,0,0,0,2.667,2.358,3.054,3.054,0,0,0,1.874.391,1.6,1.6,0,0,0,1.052-.743,1.305,1.305,0,0,0,.09-.743C9.4,9.919,9.3,9.88,9.146,9.8Z" transform="translate(1184 21.75)" fill="#fff"/>
  </g>
</svg>
