<svg xmlns="http://www.w3.org/2000/svg" width="12.069" height="12.069" viewBox="0 0 12.069 12.069">
  <g id="zoom-in" transform="translate(0 0)">
    <g id="Group_2693" data-name="Group 2693" transform="translate(0 0)">
      <g id="Group_2692" data-name="Group 2692" transform="translate(0 0)">
        <path id="Path_473" data-name="Path 473" d="M11.93,11.263l-3.4-3.4a4.81,4.81,0,1,0-.667.667l3.4,3.4a.472.472,0,0,0,.667-.667ZM7.541,7.541a3.867,3.867,0,1,1,0-5.468A3.871,3.871,0,0,1,7.541,7.541Z" transform="translate(0 0)"/>
      </g>
    </g>
    <g id="Group_2695" data-name="Group 2695" transform="translate(2.027 2.027)">
      <g id="Group_2694" data-name="Group 2694">
        <path id="Path_474" data-name="Path 474" d="M91.094,88.314H89.257V86.477a.472.472,0,1,0-.943,0v1.837H86.477a.472.472,0,1,0,0,.943h1.837v1.837a.472.472,0,0,0,.943,0V89.257h1.837a.472.472,0,0,0,0-.943Z" transform="translate(-86.005 -86.005)"/>
      </g>
    </g>
  </g>
</svg>
